<svg width="24" height="22" viewBox="0 0 24 22" fill="none" xmlns="http://www.w3.org/2000/svg">
<path d="M20.5355 11.8119H18.6794C18.8686 12.3298 18.972 12.8888 18.972 13.4714V20.4863C18.972 20.7292 18.9297 20.9623 18.8527 21.1792H21.9212C23.0675 21.1792 24 20.2467 24 19.1005V15.2764C24 13.3661 22.4458 11.8119 20.5355 11.8119ZM5.02805 13.4715C5.02805 12.8888 5.13141 12.3299 5.32059 11.8119H3.46453C1.55419 11.8119 0 13.3661 0 15.2765V19.1006C0 20.2468 0.932484 21.1793 2.07872 21.1793H5.14725C5.06827 20.9568 5.02796 20.7224 5.02805 20.4863V13.4715ZM14.1216 10.007H9.87839C7.96805 10.007 6.41386 11.5611 6.41386 13.4715V20.4863C6.41386 20.869 6.72408 21.1792 7.10677 21.1792H16.8932C17.2759 21.1792 17.5861 20.869 17.5861 20.4863V13.4715C17.5861 11.5611 16.032 10.007 14.1216 10.007ZM12 0.820625C9.70256 0.820625 7.83347 2.68972 7.83347 4.9872C7.83347 6.54556 8.69358 7.90658 9.9638 8.62114C10.5663 8.96005 11.2609 9.15374 12 9.15374C12.7391 9.15374 13.4337 8.96005 14.0362 8.62114C15.3065 7.90658 16.1665 6.54552 16.1665 4.9872C16.1665 2.68977 14.2974 0.820625 12 0.820625ZM4.68366 4.70417C2.96545 4.70417 1.56764 6.10198 1.56764 7.82019C1.56764 9.53839 2.96545 10.9362 4.68366 10.9362C5.10589 10.9366 5.52374 10.8506 5.91155 10.6836C6.56339 10.403 7.10086 9.90622 7.43344 9.28395C7.67436 8.8337 7.80018 8.33085 7.79967 7.82019C7.79967 6.10203 6.40186 4.70417 4.68366 4.70417ZM19.3163 4.70417C17.5981 4.70417 16.2003 6.10198 16.2003 7.82019C16.1998 8.33085 16.3256 8.8337 16.5666 9.28395C16.8991 9.90627 17.4366 10.403 18.0885 10.6836C18.4763 10.8506 18.8941 10.9366 19.3163 10.9362C21.0345 10.9362 22.4324 9.53839 22.4324 7.82019C22.4324 6.10198 21.0345 4.70417 19.3163 4.70417Z" fill="white"/>
</svg>
