<svg width="24" height="24" viewBox="0 0 24 24" fill="none" xmlns="http://www.w3.org/2000/svg">
<g id="Frame">
<g id="Group">
<path id="Vector" d="M21 10.8819C20.448 10.8819 20.0001 10.4341 20.0001 9.882C20.0001 7.077 18.908 4.44103 16.925 2.45691C16.534 2.06597 16.534 1.43409 16.925 1.04297C17.3159 0.652031 17.948 0.652031 18.3389 1.04297C20.7001 3.40392 21.9999 6.54309 21.9999 9.882C21.9999 10.4341 21.552 10.8819 21 10.8819ZM0.999938 10.8819C0.448078 10.8819 0 10.4341 0 9.882C0 6.54309 1.30003 3.40392 3.66103 1.04297C4.05197 0.652031 4.68403 0.652031 5.07497 1.04297C5.46605 1.43409 5.46605 2.06597 5.07497 2.45691C3.09188 4.44 2.00006 7.07705 2.00006 9.882C2.00006 10.4341 1.55198 10.8819 0.999938 10.8819ZM20.3791 16.9131C18.867 15.635 18 13.767 18 11.7879V9C18 5.48109 15.386 2.56805 12 2.08008V0.999938C12 0.446953 11.5519 0 11.0001 0C10.448 0 9.99994 0.446953 9.99994 0.999938V2.08008C6.61303 2.56805 3.99994 5.48109 3.99994 9V11.788C3.99994 13.767 3.13294 15.635 1.61208 16.9209C1.42001 17.085 1.26582 17.2888 1.16014 17.5182C1.05445 17.7477 0.999798 17.9973 0.999938 18.2499C0.999938 19.2151 1.78491 20.0001 2.75006 20.0001H19.2501C20.215 20.0001 21 19.2151 21 18.2499C21 17.738 20.777 17.2541 20.3791 16.9131ZM11.0001 24C12.811 24 14.326 22.7089 14.6741 21H7.32605C7.67395 22.7089 9.18895 24 11.0001 24Z" fill="white"/>
</g>
</g>
</svg>
