<svg width="24" height="24" viewBox="0 0 24 24" fill="none" xmlns="http://www.w3.org/2000/svg">
<g id="Frame" clip-path="url(#clip0_6528_29004)">
<g id="Group">
<path id="Vector" d="M7.77091 16.08L4.58182 10.5564L2.13455 11.9673C0.61091 12.8509 0.0872734 14.8 0.97091 16.3273C1.85091 17.8509 3.8 18.3745 5.32727 17.4945L7.77091 16.08ZM18.4691 6.39272C18.5382 6.50908 18.6582 6.57454 18.7855 6.57454C18.8473 6.57454 18.9091 6.55999 18.9673 6.52726L21.9055 4.82908C22.08 4.72726 22.1382 4.50544 22.04 4.3309C21.9913 4.24747 21.9118 4.18657 21.8185 4.16139C21.7253 4.13621 21.6259 4.14877 21.5418 4.19635L18.6036 5.89454C18.4291 5.99635 18.3673 6.21817 18.4691 6.39272ZM23.08 8.85454L19.6909 9.00363C19.4909 9.0109 19.3345 9.18181 19.3418 9.38181C19.3491 9.57817 19.5127 9.7309 19.7055 9.7309H19.72L23.1091 9.58181C23.3091 9.57454 23.4655 9.40363 23.4582 9.20363C23.4509 8.99999 23.2836 8.8509 23.08 8.85454ZM16.3164 4.14181C16.3782 4.18181 16.4436 4.19999 16.5127 4.19999C16.6327 4.19999 16.7491 4.14181 16.8182 4.03272L18.6436 1.1709C18.6956 1.08985 18.7133 0.99151 18.6928 0.897441C18.6724 0.803373 18.6155 0.721251 18.5345 0.669081C18.4943 0.643239 18.4493 0.625647 18.4022 0.617326C18.3551 0.609004 18.3068 0.610119 18.2601 0.620605C18.2134 0.631091 18.1693 0.65074 18.1302 0.678412C18.0912 0.706084 18.0581 0.741229 18.0327 0.781808L16.2073 3.64363C16.1816 3.68348 16.1641 3.72799 16.1557 3.77462C16.1474 3.82125 16.1483 3.86908 16.1584 3.91537C16.1685 3.96165 16.1877 4.00548 16.2148 4.04433C16.2419 4.08319 16.2764 4.11632 16.3164 4.14181ZM7.64364 16.9927L5.68727 18.1236C5.42546 18.2727 5.14909 18.3854 4.86546 18.4727C5.21455 20.2109 6.10545 21.7964 7.41091 22.9964C7.64842 23.2133 7.94907 23.3487 8.26897 23.3827C8.58887 23.4167 8.91126 23.3476 9.18909 23.1854C9.20364 23.1782 9.21455 23.1709 9.22909 23.1636C10.0618 22.6836 10.2509 21.5564 9.60727 20.8436C8.62915 19.7525 7.95235 18.4252 7.64364 16.9927ZM12.5091 9.66181C11.3236 7.60726 10.3636 5.57817 9.80727 3.94544C9.49091 3.0109 9.32 2.26908 9.29818 1.69454C8.55273 2.67635 8.17091 4.2909 7.66182 5.67999C7.06182 7.55999 6.23636 9.0509 5.14909 10.08L8.46909 15.8327C9.90546 15.4036 11.6109 15.4364 13.5382 15.8545C15.0036 16.1054 16.6073 16.5891 17.8327 16.4254C15.6982 15.1054 12.8727 10.2873 12.5091 9.66181Z" fill="white"/>
<path id="Vector_2" d="M10.2727 0.894546C9.6 1.28364 10.3382 3.87273 11.9455 7.08364C13.1055 6.53818 14.5091 6.96 15.16 8.09091C15.8145 9.22182 15.4764 10.6509 14.4218 11.3818C16.4145 14.4109 18.3091 16.3745 18.9855 15.9818C19.8073 15.5055 18.5273 11.7418 16.12 7.57455C13.7127 3.40727 11.0982 0.418182 10.2727 0.894546Z" fill="white"/>
</g>
</g>
<defs>
<clipPath id="clip0_6528_29004">
<rect width="24" height="24" fill="white"/>
</clipPath>
</defs>
</svg>
