<svg width="24" height="24" viewBox="0 0 24 24" fill="none" xmlns="http://www.w3.org/2000/svg">
<g id="Frame" clip-path="url(#clip0_6528_5101)">
<g id="Group">
<path id="Vector" d="M18.0293 10.6457C19.3573 10.6457 20.6044 10.9987 21.682 11.6155V0.741318C21.682 0.353385 21.3675 0.0388794 20.9795 0.0388794H6.27513C5.8872 0.0388794 5.57269 0.353385 5.57269 0.741318V19.0518C5.57269 19.4397 5.8872 19.7542 6.27513 19.7542H10.8598C9.70186 15.2103 13.3288 10.582 18.0293 10.6457ZM9.08503 2.33356H18.1696C19.1016 2.3707 19.1009 3.70168 18.1696 3.73844H9.08503C8.15303 3.7013 8.15374 2.37032 9.08503 2.33356ZM9.08503 5.14332H18.1696C19.1016 5.18045 19.1009 6.51143 18.1696 6.54819H9.08503C8.15303 6.51106 8.15374 5.18008 9.08503 5.14332ZM9.08503 7.95307H18.1696C19.1016 7.99021 19.1009 9.32119 18.1696 9.35795H9.08503C8.15303 9.32082 8.15374 7.98983 9.08503 7.95307ZM8.38259 11.4653C8.38259 11.0773 8.6971 10.7628 9.08503 10.7628H11.3201C12.2521 10.8 12.2514 12.1309 11.3201 12.1677H9.08503C8.6971 12.1677 8.38259 11.8532 8.38259 11.4653Z" fill="white"/>
<path id="Vector_2" d="M18.0293 12.0506C14.737 12.0506 12.0585 14.729 12.0585 18.0213C12.3865 25.9423 23.6732 25.94 24 18.0213C24 14.729 21.3216 12.0506 18.0293 12.0506ZM20.7871 16.7684L18.1196 20.1766C18.0557 20.2583 17.9744 20.3248 17.8818 20.3713C17.7891 20.4179 17.6872 20.4433 17.5835 20.4459C17.4798 20.4484 17.3769 20.4279 17.282 20.3859C17.1872 20.3439 17.1028 20.2814 17.035 20.2029L15.6013 18.5441C15.3476 18.2505 15.3799 17.807 15.6734 17.5533C15.967 17.2995 16.4105 17.3319 16.6641 17.6254L17.5395 18.6383L19.6807 15.9025C19.9199 15.597 20.3613 15.5431 20.6669 15.7823C20.9723 16.0214 21.0262 16.4629 20.7871 16.7684ZM0 6.45447H4.21463V15.0711H0V6.45447ZM2.10732 2.3335C0.945342 2.3335 0 3.27884 0 4.44081V5.04959H4.21463V4.44081C4.21463 3.27884 3.26929 2.3335 2.10732 2.3335ZM1.45887 19.4154C1.69522 19.9881 2.51946 19.9879 2.75567 19.4154L3.98049 16.4759H0.234146L1.45887 19.4154Z" fill="white"/>
</g>
</g>
<defs>
<clipPath id="clip0_6528_5101">
<rect width="24" height="24" fill="white"/>
</clipPath>
</defs>
</svg>
