<svg width="24" height="24" viewBox="0 0 24 24" fill="none" xmlns="http://www.w3.org/2000/svg">
<g id="Frame">
<g id="Group">
<path id="Vector" fill-rule="evenodd" clip-rule="evenodd" d="M6.75 2V5.5C6.75 5.69891 6.82902 5.88968 6.96967 6.03033C7.11032 6.17098 7.30109 6.25 7.5 6.25C7.69891 6.25 7.88968 6.17098 8.03033 6.03033C8.17098 5.88968 8.25 5.69891 8.25 5.5V2C8.25 1.80109 8.17098 1.61032 8.03033 1.46967C7.88968 1.32902 7.69891 1.25 7.5 1.25C7.30109 1.25 7.11032 1.32902 6.96967 1.46967C6.82902 1.61032 6.75 1.80109 6.75 2ZM15.75 2V5.5C15.75 5.69891 15.829 5.88968 15.9697 6.03033C16.1103 6.17098 16.3011 6.25 16.5 6.25C16.6989 6.25 16.8897 6.17098 17.0303 6.03033C17.171 5.88968 17.25 5.69891 17.25 5.5V2C17.25 1.80109 17.171 1.61032 17.0303 1.46967C16.8897 1.32902 16.6989 1.25 16.5 1.25C16.3011 1.25 16.1103 1.32902 15.9697 1.46967C15.829 1.61032 15.75 1.80109 15.75 2Z" fill="white"/>
<path id="Vector_2" fill-rule="evenodd" clip-rule="evenodd" d="M22.75 14.109V10.5H1.25V18.75C1.25 19.7446 1.64509 20.6984 2.34835 21.4017C3.05161 22.1049 4.00544 22.5 5 22.5H13.751C12.9742 21.9183 12.3438 21.1635 11.9096 20.2955C11.4755 19.4276 11.2497 18.4704 11.25 17.5C11.2511 15.8427 11.9099 14.2536 13.0818 13.0818C14.2536 11.9099 15.8427 11.2511 17.5 11.25C19.7 11.25 21.636 12.389 22.75 14.109ZM9.25 3V5.5C9.24999 5.77256 9.18632 6.04134 9.06406 6.28494C8.9418 6.52853 8.76434 6.74021 8.5458 6.90309C8.32727 7.06597 8.07372 7.17555 7.80534 7.2231C7.53697 7.27066 7.26119 7.25487 7 7.177V3H5C4.00544 3 3.05161 3.39509 2.34835 4.09835C1.64509 4.80161 1.25 5.75544 1.25 6.75V9H22.75V6.75C22.75 5.75544 22.3549 4.80161 21.6517 4.09835C20.9484 3.39509 19.9946 3 19 3H18.25V5.5C18.25 5.77256 18.1863 6.04134 18.0641 6.28494C17.9418 6.52853 17.7643 6.74021 17.5458 6.90309C17.3273 7.06597 17.0737 7.17555 16.8053 7.2231C16.537 7.27066 16.2612 7.25487 16 7.177V3H9.25Z" fill="white"/>
<path id="Vector_3" fill-rule="evenodd" clip-rule="evenodd" d="M17.5 12.25C14.602 12.25 12.25 14.602 12.25 17.5C12.25 20.398 14.602 22.75 17.5 22.75C20.398 22.75 22.75 20.398 22.75 17.5C22.75 14.602 20.398 12.25 17.5 12.25ZM14.97 17.78L16.47 19.28C16.5396 19.3497 16.6222 19.4049 16.7131 19.4426C16.8041 19.4803 16.9016 19.4998 17 19.4998C17.0984 19.4998 17.1959 19.4803 17.2869 19.4426C17.3778 19.4049 17.4604 19.3497 17.53 19.28L20.03 16.78C20.0996 16.7104 20.1548 16.6278 20.1925 16.5368C20.2301 16.4459 20.2495 16.3484 20.2495 16.25C20.2495 16.1516 20.2301 16.0541 20.1925 15.9632C20.1548 15.8722 20.0996 15.7896 20.03 15.72C19.9604 15.6504 19.8778 15.5952 19.7868 15.5575C19.6959 15.5199 19.5984 15.5005 19.5 15.5005C19.4016 15.5005 19.3041 15.5199 19.2132 15.5575C19.1222 15.5952 19.0396 15.6504 18.97 15.72L17 17.689L16.03 16.72C15.9604 16.6504 15.8778 16.5952 15.7868 16.5575C15.6959 16.5199 15.5984 16.5005 15.5 16.5005C15.4016 16.5005 15.3041 16.5199 15.2132 16.5575C15.1222 16.5952 15.0396 16.6504 14.97 16.72C14.9004 16.7896 14.8452 16.8722 14.8075 16.9632C14.7699 17.0541 14.7505 17.1516 14.7505 17.25C14.7505 17.3484 14.7699 17.4459 14.8075 17.5368C14.8452 17.6278 14.9004 17.7104 14.97 17.78Z" fill="white"/>
</g>
</g>
</svg>
