<svg width="24" height="24" viewBox="0 0 24 24" fill="none" xmlns="http://www.w3.org/2000/svg">
<g id="Frame">
<g id="Group">
<path id="Vector" d="M21.7908 0H11.2467C10.0265 0 9.03751 0.989156 9.03751 2.20917V7.40292C9.5949 7.67995 10.1972 7.97953 10.7593 8.25895L11.6193 6.53817C12.1401 5.49755 13.4095 5.07473 14.4498 5.59458C15.4922 6.1163 15.9146 7.38225 15.3928 8.42489L13.8596 11.4919C13.9007 11.899 13.8634 12.3101 13.7498 12.7031H14.762L12.0923 20.0442C11.9339 20.4796 12.2401 20.9877 12.7533 20.9877C13.0402 20.9877 13.3102 20.8107 13.4138 20.5246L16.2581 12.7031H16.7509L19.6241 20.527C19.7287 20.8116 19.9979 20.9877 20.2846 20.9877C20.7641 20.9877 21.1157 20.5088 20.9441 20.0423L18.2489 12.7031H21.7909C23.0109 12.7031 24 11.714 24 10.494V2.20922C24 0.989156 23.0108 0 21.7908 0ZM20.2843 9.69084H17.1295C16.7413 9.69084 16.4264 9.37594 16.4264 8.98772C16.4264 8.59917 16.7413 8.28459 17.1295 8.28459H20.2842C20.6728 8.28459 20.9874 8.59917 20.9874 8.98772C20.9874 9.37594 20.6729 9.69084 20.2843 9.69084ZM20.2843 7.05469H17.1295C16.7413 7.05469 16.4264 6.74016 16.4264 6.35156C16.4264 5.96339 16.7413 5.64844 17.1295 5.64844H20.2842C20.6728 5.64844 20.9874 5.96339 20.9874 6.35156C20.9874 6.74016 20.6729 7.05469 20.2843 7.05469ZM20.2843 4.41891H12.7533C12.3647 4.41891 12.0502 4.10391 12.0502 3.71578C12.0502 3.32766 12.3647 3.01266 12.7533 3.01266H20.2842C20.6728 3.01266 20.9874 3.32756 20.9874 3.71578C20.9874 4.104 20.6728 4.41891 20.2843 4.41891Z" fill="white"/>
<path id="Vector_2" d="M12.3713 12.4015C12.4984 12.0293 12.4975 11.6404 12.3902 11.2855L14.1352 7.79587C14.3088 7.44853 14.1682 7.02614 13.8208 6.85252C13.4737 6.67875 13.0512 6.81956 12.8775 7.16695L11.3892 10.1431C10.4996 9.70017 9.14813 9.02822 8.05941 8.48677C7.04644 7.98305 6.32353 7.53131 5.09016 7.53131H4.46887C5.42925 7.53131 6.28636 7.08928 6.84741 6.3975C7.27552 5.87109 7.5315 5.20017 7.5315 4.46906C7.5315 2.77734 6.16041 1.40625 4.4685 1.40625C2.77734 1.40625 1.40625 2.77734 1.40625 4.46906C1.40625 5.2815 1.72266 6.01978 2.23884 6.56766C2.79694 7.16109 3.58959 7.53131 4.46831 7.5315C3.2902 7.5315 2.13848 8.00883 1.30992 8.83959C0.465234 9.68208 0 10.8045 0 12.0002V14.2596C0 15.2322 0.631547 16.0598 1.50623 16.3543V20.2844C1.50623 20.6728 1.821 20.9875 2.20936 20.9875H6.72802C7.11638 20.9875 7.43114 20.6728 7.43114 20.2844V12.3844C8.09784 12.7177 8.97366 13.1555 9.68227 13.5099C10.179 13.7582 10.7595 13.7805 11.2771 13.57C11.7933 13.3576 12.1912 12.9348 12.3686 12.4098L12.3713 12.4015Z" fill="white"/>
</g>
</g>
</svg>
