<svg width="16" height="17" viewBox="0 0 16 17" fill="none" xmlns="http://www.w3.org/2000/svg">
<path d="M1.6875 0.375H5.0625C5.97656 0.375 6.75 1.14844 6.75 2.0625V7.6875C6.75 8.63672 5.97656 9.375 5.0625 9.375H1.6875C0.738281 9.375 0 8.63672 0 7.6875V2.0625C0 1.14844 0.738281 0.375 1.6875 0.375ZM10.6875 7.125H14.0625C14.9766 7.125 15.75 7.89844 15.75 8.8125V14.4375C15.75 15.3867 14.9766 16.125 14.0625 16.125H10.6875C9.73828 16.125 9 15.3867 9 14.4375V8.8125C9 7.89844 9.73828 7.125 10.6875 7.125ZM0 13.3125C0 12.3984 0.738281 11.625 1.6875 11.625H5.0625C5.97656 11.625 6.75 12.3984 6.75 13.3125V14.4375C6.75 15.3867 5.97656 16.125 5.0625 16.125H1.6875C0.738281 16.125 0 15.3867 0 14.4375V13.3125ZM10.6875 0.375H14.0625C14.9766 0.375 15.75 1.14844 15.75 2.0625V3.1875C15.75 4.13672 14.9766 4.875 14.0625 4.875H10.6875C9.73828 4.875 9 4.13672 9 3.1875V2.0625C9 1.14844 9.73828 0.375 10.6875 0.375Z" fill="white"/>
</svg>
