<svg width="24" height="24" viewBox="0 0 24 24" fill="none" xmlns="http://www.w3.org/2000/svg">
<g id="Frame">
<g id="Group">
<g id="Group_2">
<path id="Vector" d="M12.0297 4.39358C11.0409 4.39284 10.0616 4.58706 9.14782 4.96514C8.23408 5.34322 7.40385 5.89774 6.70461 6.59697C6.00538 7.29621 5.45086 8.12644 5.07278 9.04018C4.6947 9.95392 4.50048 10.9332 4.50122 11.9221C4.50048 12.911 4.6947 13.8903 5.07278 14.804C5.45086 15.7178 6.00538 16.548 6.70461 17.2472C7.40385 17.9465 8.23408 18.501 9.14782 18.8791C10.0616 19.2572 11.0409 19.4514 12.0297 19.4506C13.0186 19.4514 13.9979 19.2572 14.9117 18.8791C15.8254 18.501 16.6556 17.9465 17.3549 17.2472C18.0541 16.548 18.6086 15.7178 18.9867 14.804C19.3648 13.8903 19.559 12.911 19.5583 11.9221C19.5594 10.933 19.3654 9.95338 18.9875 9.03931C18.6096 8.12525 18.0552 7.29468 17.3559 6.59514C16.6566 5.8956 15.8262 5.34083 14.9123 4.96258C13.9984 4.58432 13.0189 4.39284 12.0297 4.39358ZM10.4934 7.72416L10.74 7.85172C10.6181 8.07281 10.7514 8.22304 10.9413 8.36193C11.0745 8.46397 11.2843 8.57452 11.5734 8.69641C11.5224 9.14993 11.3636 9.54677 11.2191 9.94644L11.0292 9.87274L11.6102 13.1835V14.6376H8.02171C7.25072 14.6376 6.69799 14.5044 6.36068 14.2408C6.05738 14.0055 5.90715 13.6398 5.90715 13.1438C5.89581 12.3501 6.26997 11.6415 6.57894 11.0264L6.89924 11.2532C6.48823 11.9873 6.35501 12.7271 6.94743 12.9936C7.20253 13.1183 7.6844 13.1835 8.39587 13.1835H10.9696L10.3234 9.55244L9.98038 9.32567C9.98038 8.73042 10.2808 8.18619 10.4934 7.72416ZM9.48717 8.56602C9.47016 8.87498 9.47016 9.16127 9.46733 9.45606C9.32938 9.46856 9.19696 9.51632 9.08279 9.59474C8.96863 9.67317 8.87654 9.77964 8.81538 9.90392C9.02514 10.1023 9.43898 9.92376 9.64307 10.1987C9.93786 10.5927 9.69409 11.4091 9.35394 11.7662C9.07616 12.0298 8.68499 12.163 8.18328 12.163C7.89983 12.1574 7.65889 12.1347 7.43496 12.0865L7.49732 11.7435C7.84314 11.7435 8.26265 11.7067 8.56878 11.6018C8.86924 11.4998 9.01663 11.3835 9.01663 11.2503C9.0223 11.0944 8.88341 11.1143 8.75019 11.1029C8.40721 11.1029 8.23714 10.9527 8.23714 10.6522C8.24281 10.0853 8.47807 9.59495 8.71901 9.1471C8.90325 8.83813 9.17253 8.70774 9.48717 8.56602ZM16.8286 9.58362C17.8859 10.468 18.0758 11.7549 18.0786 12.9199V14.6376H15.6579C15.0939 14.6234 14.8671 14.2918 14.887 13.8949C14.9153 13.5435 14.938 13.1721 14.9833 12.8348L15.1874 12.8235C15.2526 13.158 15.4822 13.1778 15.7316 13.1835H17.5741C17.4692 12.2906 17.027 11.7549 16.4431 11.2503L16.8286 9.58362ZM13.1579 14.6177C13.2728 14.6174 13.3866 14.6384 13.4929 14.6796C13.5991 14.7207 13.6957 14.7812 13.7771 14.8576C13.8584 14.9339 13.923 15.0247 13.967 15.1246C14.0111 15.2245 14.0338 15.3316 14.0338 15.4398C14.0338 15.5479 14.0111 15.655 13.967 15.755C13.923 15.8549 13.8584 15.9456 13.7771 16.022C13.6957 16.0983 13.5991 16.1588 13.4929 16.2C13.3866 16.2411 13.2728 16.2621 13.1579 16.2618C12.9263 16.2618 12.7043 16.1752 12.5406 16.021C12.3768 15.8669 12.2849 15.6578 12.2849 15.4398C12.2849 15.2218 12.3768 15.0127 12.5406 14.8585C12.7043 14.7044 12.9263 14.6177 13.1579 14.6177Z" fill="white"/>
<path id="Vector_2" d="M11.9901 1.49952C10.6123 1.4984 9.24791 1.76889 7.97481 2.29552C6.70171 2.82215 5.54492 3.59458 4.57059 4.56865C3.59626 5.54271 2.82351 6.6993 2.29654 7.97226C1.76957 9.24521 1.49871 10.6096 1.49945 11.9873C1.49889 14.0624 2.11375 16.091 3.26626 17.8166C4.41877 19.5422 6.05715 20.8873 7.97417 21.6816C9.8912 22.476 12.0007 22.684 14.036 22.2793C16.0712 21.8746 17.9407 20.8754 19.408 19.4081C20.8754 17.9408 21.8745 16.0713 22.2792 14.036C22.6839 12.0008 22.4759 9.89126 21.6816 7.97423C20.8872 6.05721 19.5422 4.41883 17.8166 3.26632C16.091 2.11381 14.0652 1.49895 11.9901 1.49952ZM7.77228 3.5999C7.81052 3.67254 7.81858 3.75733 7.7947 3.83587C7.77082 3.91441 7.71693 3.98036 7.64472 4.01942C6.11974 4.84993 4.86688 6.1113 4.03069 7.63628C4.01293 7.67546 3.98726 7.71054 3.95528 7.73931C3.92331 7.76808 3.88573 7.78993 3.8449 7.80348C3.80407 7.81702 3.76089 7.82197 3.71805 7.81802C3.67522 7.81407 3.63367 7.80129 3.59601 7.7805C3.55836 7.75971 3.52541 7.73136 3.49924 7.69722C3.47307 7.66308 3.45425 7.62389 3.44396 7.58213C3.43368 7.54036 3.43214 7.49692 3.43945 7.45453C3.44677 7.41214 3.46277 7.37172 3.48646 7.33582C4.37838 5.70604 5.71797 4.36547 7.3471 3.47235C7.56819 3.37314 7.71559 3.48936 7.77228 3.5999ZM12.0297 3.61124C14.233 3.6135 16.3453 4.48991 17.9029 6.04809C19.4606 7.60628 20.3363 9.71887 20.3378 11.9221C20.3378 16.5055 16.6132 20.2301 12.0326 20.2301C7.45197 20.2301 3.71889 16.5055 3.71889 11.9221C3.72039 9.71887 4.59609 7.60628 6.15374 6.04809C7.71139 4.48991 9.82652 3.6135 12.0297 3.61124ZM20.3973 16.1909C20.469 16.2304 20.5223 16.2966 20.5456 16.3751C20.569 16.4536 20.5605 16.5381 20.522 16.6104C19.6347 18.2434 18.2991 19.5888 16.6727 20.4881C16.6016 20.5179 16.5219 20.5204 16.4491 20.4949C16.3763 20.4694 16.3155 20.4179 16.2784 20.3502C16.2414 20.2825 16.2308 20.2035 16.2487 20.1284C16.2665 20.0534 16.3116 19.9876 16.3751 19.9438C17.8975 19.1029 19.1476 17.8439 19.9778 16.3156C20.0178 16.2445 20.084 16.1916 20.1623 16.1684C20.2406 16.1451 20.3249 16.1532 20.3973 16.1909Z" fill="white"/>
</g>
</g>
</g>
</svg>
