<svg width="24" height="24" viewBox="0 0 24 24" fill="none" xmlns="http://www.w3.org/2000/svg">
<g id="Frame">
<g id="Group">
<path id="Vector" d="M14.1638 5.41125H7.71376C7.41937 5.41125 7.13704 5.2943 6.92887 5.08614C6.72071 4.87797 6.60376 4.59564 6.60376 4.30125V2.61C6.60376 1.99725 7.10101 1.5 7.71376 1.5H14.1638C14.7765 1.5 15.2738 1.99725 15.2738 2.61V4.30125C15.2738 4.44702 15.245 4.59136 15.1893 4.72603C15.1335 4.8607 15.0517 4.98307 14.9486 5.08614C14.8456 5.18921 14.7232 5.27097 14.5885 5.32676C14.4539 5.38254 14.3095 5.41125 14.1638 5.41125ZM21.6225 13.4925C20.9325 12.8025 19.8075 12.8025 19.1175 13.4925L18.2985 14.316L20.805 16.8218L21.6225 16.0043C22.32 15.3075 22.32 14.19 21.6225 13.4925ZM17.505 15.1125L13.1325 19.4775C13.0425 19.575 12.9825 19.695 12.96 19.8225L12.63 21.765C12.555 22.1925 12.93 22.56 13.3575 22.4925L15.3 22.1625C15.4275 22.14 15.5475 22.08 15.6375 21.99L20.01 17.6175L17.505 15.1125Z" fill="white"/>
<path id="Vector_2" d="M17.3325 3.45753H16.3988V4.30128C16.398 4.89379 16.1622 5.46181 15.7433 5.88078C15.3243 6.29976 14.7563 6.53548 14.1638 6.53628H7.71376C7.12118 6.53568 6.55305 6.30002 6.13403 5.881C5.71502 5.46199 5.47935 4.89385 5.47876 4.30128V3.45753H4.53001C3.05251 3.45753 1.85251 4.65753 1.85251 6.13503V19.8225C1.85251 21.3 3.05251 22.5 4.53001 22.5H11.6228C11.5046 22.2056 11.4696 21.8845 11.5215 21.5715L11.8508 19.6343C11.9093 19.2908 12.0668 18.9735 12.3038 18.7148L17.0775 13.9478L18.3188 12.6998C18.7745 12.2462 19.3698 11.9592 20.0085 11.8853V6.14253C20.0106 5.7901 19.9429 5.44076 19.8092 5.11465C19.6756 4.78854 19.4787 4.49212 19.2299 4.2425C18.9811 3.99287 18.6854 3.79499 18.3597 3.66026C18.0341 3.52553 17.6849 3.45663 17.3325 3.45753ZM9.77101 14.5823H6.51676C6.33774 14.5823 6.16605 14.5112 6.03946 14.3846C5.91287 14.258 5.84176 14.0863 5.84176 13.9073C5.84176 13.7283 5.91287 13.5566 6.03946 13.43C6.16605 13.3034 6.33774 13.2323 6.51676 13.2323H9.77101C9.95003 13.2323 10.1217 13.3034 10.2483 13.43C10.3749 13.5566 10.446 13.7283 10.446 13.9073C10.446 14.0863 10.3749 14.258 10.2483 14.3846C10.1217 14.5112 9.95003 14.5823 9.77101 14.5823ZM13.755 10.7513H6.51751C6.33849 10.7513 6.1668 10.6802 6.04021 10.5536C5.91362 10.427 5.84251 10.2553 5.84251 10.0763C5.84251 9.89726 5.91362 9.72557 6.04021 9.59898C6.1668 9.47239 6.33849 9.40128 6.51751 9.40128H13.755C13.934 9.40128 14.1057 9.47239 14.2323 9.59898C14.3589 9.72557 14.43 9.89726 14.43 10.0763C14.43 10.2553 14.3589 10.427 14.2323 10.5536C14.1057 10.6802 13.934 10.7513 13.755 10.7513Z" fill="white"/>
</g>
</g>
</svg>
