<svg width="24" height="24" viewBox="0 0 24 24" fill="none" xmlns="http://www.w3.org/2000/svg">
<g id="Frame">
<g id="Group">
<path id="Vector" d="M23.8242 1.42254L22.6241 0.222633C22.3901 -0.0115546 22.0104 -0.0117421 21.7762 0.222258C21.776 0.222445 21.7758 0.222445 21.7758 0.222633L14.5757 7.42254C14.4633 7.53508 14.4001 7.68765 14.4 7.84676V9.04685C14.4 9.37807 14.6686 9.64671 15 9.64671H16.2001C16.3592 9.64671 16.5117 9.58352 16.6241 9.47112L23.8242 2.27102C24.0584 2.03684 24.0586 1.65724 23.8246 1.42287L23.8244 1.42277L23.8242 1.42254Z" fill="white"/>
<path id="Vector_2" d="M16.2001 10.8468H15C14.0063 10.8457 13.201 10.0404 13.1999 9.0469V7.84681C13.1994 7.61037 13.2457 7.37617 13.3362 7.15774C13.4267 6.93931 13.5596 6.74099 13.7273 6.57424L17.8546 2.4469H3C1.34381 2.44868 0.001875 3.79066 0 5.4469V16.2468C0.001875 17.903 1.34381 19.2452 3 19.2468H8.4V22.2468C8.4 22.5782 8.66859 22.8468 9 22.8468C9.12984 22.8468 9.25617 22.8047 9.36 22.7267L14.0006 19.2468H19.7999C21.4561 19.2449 22.7983 17.9028 22.7999 16.2468V4.99221L17.4727 10.3195C17.3059 10.4871 17.1076 10.62 16.8892 10.7105C16.6707 10.8011 16.4365 10.8474 16.2001 10.8468ZM4.20009 6.0469H10.2001C10.5313 6.0469 10.7999 6.31549 10.7999 6.6469C10.7999 6.97817 10.5313 7.24681 10.2001 7.24681H4.20009C3.86869 7.24681 3.60005 6.97835 3.60005 6.64695C3.60005 6.31554 3.86859 6.0469 4.2 6.0469H4.20009ZM4.20009 9.64676H10.2001C10.5313 9.64676 10.7999 9.91535 10.7999 10.2468C10.7999 10.5782 10.5313 10.8468 10.2001 10.8468H4.20009C3.86869 10.8468 3.60005 10.5782 3.60005 10.2468C3.60005 9.91554 3.86869 9.64676 4.20009 9.64676ZM19.1999 13.8468C19.1999 14.1782 18.9313 14.4469 18.6 14.4469H4.2C3.86859 14.4469 3.6 14.1783 3.6 13.8469C3.6 13.5156 3.86859 13.2468 4.2 13.2468H18.6C18.9312 13.2468 19.1999 13.5154 19.1999 13.8468H19.1999Z" fill="white"/>
</g>
</g>
</svg>
