<svg width="18" height="22" viewBox="0 0 18 22" fill="none" xmlns="http://www.w3.org/2000/svg">
<path d="M7.125 9.32031L7.7775 11.0003H6.4725L7.125 9.32031Z" fill="white"/>
<path d="M15 0.5H3C2.40326 0.5 1.83097 0.737053 1.40901 1.15901C0.987053 1.58097 0.75 2.15326 0.75 2.75V19.25C0.75 19.8467 0.987053 20.419 1.40901 20.841C1.83097 21.2629 2.40326 21.5 3 21.5H11.25V17.75C11.25 17.1533 11.4871 16.581 11.909 16.159C12.331 15.7371 12.9033 15.5 13.5 15.5H17.25V2.75C17.25 2.15326 17.0129 1.58097 16.591 1.15901C16.169 0.737053 15.5967 0.5 15 0.5ZM10.02 14.6975C9.93444 14.7329 9.84261 14.7508 9.75 14.75C9.59892 14.7496 9.4515 14.7035 9.32704 14.6178C9.20258 14.5322 9.10689 14.411 9.0525 14.27L8.3625 12.5H5.8875L5.1975 14.27C5.16749 14.3687 5.11744 14.4602 5.05047 14.5387C4.9835 14.6172 4.90105 14.681 4.80829 14.7262C4.71553 14.7713 4.61444 14.7969 4.51135 14.8012C4.40827 14.8055 4.3054 14.7885 4.20918 14.7513C4.11296 14.7141 4.02545 14.6574 3.95215 14.5847C3.87884 14.5121 3.8213 14.4252 3.78313 14.3293C3.74496 14.2335 3.72698 14.1308 3.73031 14.0276C3.73365 13.9245 3.75822 13.8232 3.8025 13.73L6.4275 6.98C6.48279 6.84011 6.57886 6.72007 6.70325 6.63549C6.82763 6.5509 6.97458 6.50567 7.125 6.50567C7.27542 6.50567 7.42237 6.5509 7.54675 6.63549C7.67114 6.72007 7.76721 6.84011 7.8225 6.98L9.5625 11.48L10.4475 13.73C10.5185 13.915 10.5135 14.1207 10.4333 14.3019C10.3532 14.4832 10.2046 14.6254 10.02 14.6975ZM13.5 8H12.75V8.75C12.75 8.94891 12.671 9.13968 12.5303 9.28033C12.3897 9.42098 12.1989 9.5 12 9.5C11.8011 9.5 11.6103 9.42098 11.4697 9.28033C11.329 9.13968 11.25 8.94891 11.25 8.75V8H10.5C10.3011 8 10.1103 7.92098 9.96967 7.78033C9.82902 7.63968 9.75 7.44891 9.75 7.25C9.75 7.05109 9.82902 6.86032 9.96967 6.71967C10.1103 6.57902 10.3011 6.5 10.5 6.5H11.25V5.75C11.25 5.55109 11.329 5.36032 11.4697 5.21967C11.6103 5.07902 11.8011 5 12 5C12.1989 5 12.3897 5.07902 12.5303 5.21967C12.671 5.36032 12.75 5.55109 12.75 5.75V6.5H13.5C13.6989 6.5 13.8897 6.57902 14.0303 6.71967C14.171 6.86032 14.25 7.05109 14.25 7.25C14.25 7.44891 14.171 7.63968 14.0303 7.78033C13.8897 7.92098 13.6989 8 13.5 8ZM12.75 17.75V21.065L16.815 17H13.5C13.3011 17 13.1103 17.079 12.9697 17.2197C12.829 17.3603 12.75 17.5511 12.75 17.75Z" fill="white"/>
</svg>
