<svg width="18" height="18" viewBox="0 0 18 18" fill="none" xmlns="http://www.w3.org/2000/svg">
<g id="Frame" clip-path="url(#clip0_6842_2757)">
<g id="Group">
<path id="Vector" fill-rule="evenodd" clip-rule="evenodd" d="M8.87087 15.1332V16.0302C8.87087 16.7496 8.51234 17.3706 7.88934 17.7303C7.5896 17.9033 7.25505 17.9999 6.9082 18C6.56103 18.0002 6.22659 17.9035 5.92664 17.7303L1.93795 15.4274C1.31487 15.0677 0.956421 14.4468 0.956421 13.7274V1.96305C0.956421 0.880559 1.83701 0 2.91948 0H11.704C12.7865 0 13.6672 0.880488 13.6672 1.96305V4.44294C13.6672 4.79869 13.3784 5.08753 13.0226 5.08753C12.6668 5.08753 12.3782 4.79872 12.3782 4.44294V1.96305C12.3782 1.59135 12.0757 1.2889 11.704 1.2889H4.00647L7.88934 3.53106C8.51213 3.89071 8.87087 4.51157 8.87087 5.23076V13.8441H11.704C12.0757 13.8441 12.3782 13.5419 12.3782 13.1701V10.9962C12.3782 10.6402 12.6666 10.3516 13.0226 10.3516C13.3785 10.3516 13.6672 10.6403 13.6672 10.9962V13.1701C13.6672 14.2527 12.7865 15.1332 11.704 15.1332H8.87087ZM14.8433 8.21102L14.1335 8.92086C13.8818 9.17255 13.8819 9.58057 14.1335 9.83229C14.1933 9.89218 14.2643 9.93968 14.3425 9.97204C14.4207 10.0044 14.5046 10.021 14.5892 10.0209C14.6739 10.021 14.7577 10.0045 14.836 9.9721C14.9142 9.93973 14.9853 9.89222 15.0451 9.83229L16.8549 8.02216C17.1065 7.77052 17.1066 7.3627 16.8549 7.11105L15.0451 5.30121C14.7934 5.04949 14.3853 5.0496 14.1335 5.30118C13.8819 5.55261 13.882 5.96081 14.1335 6.21232L14.8433 6.92198H10.0881C9.73198 6.92198 9.44363 7.21055 9.44363 7.56661C9.44363 7.92267 9.73202 8.21106 10.0881 8.21106H14.8433V8.21102Z" fill="white"/>
</g>
</g>
<defs>
<clipPath id="clip0_6842_2757">
<rect width="18" height="18" fill="white"/>
</clipPath>
</defs>
</svg>
