<svg width="24" height="24" viewBox="0 0 24 24" fill="none" xmlns="http://www.w3.org/2000/svg">
<path d="M12 22.2863H11.8286C11.7429 22.2863 3.42857 20.3149 3.42857 11.1435V6.00061C3.42857 5.65776 3.6 5.3149 3.94286 5.22919L11.6571 1.80061C11.9143 1.7149 12.1714 1.7149 12.3429 1.80061L20.0571 5.22919C20.4 5.3149 20.5714 5.65776 20.5714 6.00061V11.1435C20.5714 20.3149 12.2571 22.2863 12.1714 22.2863H12ZM12 12.8578C9.51429 12.8578 7.71429 13.972 7.71429 15.4292C7.71429 16.8863 9.51429 18.0006 12 18.0006C14.4857 18.0006 16.2857 16.8863 16.2857 15.4292C16.2857 13.972 14.4857 12.8578 12 12.8578ZM12 6.00061C10.5429 6.00061 9.42857 7.1149 9.42857 8.57204C9.42857 10.0292 10.5429 11.1435 12 11.1435C13.4571 11.1435 14.5714 10.0292 14.5714 8.57204C14.5714 7.1149 13.4571 6.00061 12 6.00061Z" fill="white"/>
</svg>
