<svg width="24" height="24" viewBox="0 0 24 24" fill="none" xmlns="http://www.w3.org/2000/svg">
<g id="Frame" clip-path="url(#clip0_7161_545)">
<g id="Group">
<path id="Vector" d="M12 0.599976C5.3832 0.599976 0 5.44478 0 11.4C0 13.4816 0.6584 15.498 1.9072 17.2416C1.6708 19.8564 1.0372 21.7976 0.1172 22.7172C0.0579665 22.7765 0.0188642 22.8529 0.00541619 22.9357C-0.00803186 23.0184 0.00485396 23.1033 0.0422536 23.1783C0.0796533 23.2533 0.139677 23.3147 0.213846 23.3537C0.288015 23.3928 0.372581 23.4076 0.4556 23.396C0.6176 23.3732 4.3808 22.8316 7.1028 21.2604C8.6484 21.884 10.2948 22.2 12 22.2C18.6168 22.2 24 17.3552 24 11.4C24 5.44478 18.6168 0.599976 12 0.599976ZM6.4 13C5.5176 13 4.8 12.2824 4.8 11.4C4.8 10.5176 5.5176 9.79998 6.4 9.79998C7.2824 9.79998 8 10.5176 8 11.4C8 12.2824 7.2824 13 6.4 13ZM12 13C11.1176 13 10.4 12.2824 10.4 11.4C10.4 10.5176 11.1176 9.79998 12 9.79998C12.8824 9.79998 13.6 10.5176 13.6 11.4C13.6 12.2824 12.8824 13 12 13ZM17.6 13C16.7176 13 16 12.2824 16 11.4C16 10.5176 16.7176 9.79998 17.6 9.79998C18.4824 9.79998 19.2 10.5176 19.2 11.4C19.2 12.2824 18.4824 13 17.6 13Z" fill="white"/>
</g>
</g>
<defs>
<clipPath id="clip0_7161_545">
<rect width="24" height="24" fill="white"/>
</clipPath>
</defs>
</svg>
