<svg width="24" height="24" viewBox="0 0 24 24" fill="none" xmlns="http://www.w3.org/2000/svg">
<g id="Frame">
<g id="Group">
<path id="Vector" d="M10.3715 10.8789H4.36678C1.95891 10.8789 0 12.8377 0 15.2456V21.7751H11.9523V15.9951C11.9523 14.5934 12.8268 13.3929 14.0584 12.9081C13.2829 11.6893 11.9202 10.8789 10.3715 10.8789ZM7.36912 2.22485C5.34155 2.22485 3.69197 3.87443 3.69197 5.90201C3.69197 7.92959 5.34155 9.57917 7.36912 9.57917C9.39675 9.57917 11.0463 7.92959 11.0463 5.90201C11.0463 3.87443 9.3967 2.22485 7.36912 2.22485Z" fill="white"/>
<path id="Vector_2" d="M21.6309 13.626H15.2692C13.9628 13.626 12.9 14.6888 12.9 15.9952V21.7751H24V15.9952C24 14.6888 22.9372 13.626 21.6309 13.626ZM18.45 6.70898C16.9533 6.70898 15.7356 7.9267 15.7356 9.42337C15.7356 10.9201 16.9533 12.1378 18.45 12.1378C19.9467 12.1378 21.1644 10.9201 21.1644 9.42337C21.1644 7.92666 19.9467 6.70898 18.45 6.70898Z" fill="white"/>
</g>
</g>
</svg>
