<svg width="24" height="24" viewBox="0 0 24 24" fill="none" xmlns="http://www.w3.org/2000/svg">
<g id="Frame">
<g id="Group">
<g id="Exam Result">
<path id="Vector" d="M6 21.5625H18.375V22.125C18.3747 22.2244 18.3351 22.3196 18.2648 22.3898C18.1946 22.4601 18.0994 22.4997 18 22.5H4.5C4.40064 22.4997 4.30542 22.4601 4.23516 22.3898C4.1649 22.3196 4.1253 22.2244 4.125 22.125V3.75C4.1253 3.65064 4.1649 3.55542 4.23516 3.48516C4.30542 3.4149 4.40064 3.3753 4.5 3.375H5.24625C5.12368 3.73738 5.0616 4.11746 5.0625 4.5V20.625C5.0625 20.8736 5.16127 21.1121 5.33709 21.2879C5.5129 21.4637 5.75136 21.5625 6 21.5625Z" fill="white"/>
<path id="Vector_2" d="M7.875 4.12875C7.06684 4.16414 6.28586 4.43098 5.625 4.8975V4.5C5.62483 4.11417 5.69998 3.73203 5.84625 3.375C6.07041 2.82154 6.45454 2.3475 6.94953 2.0135C7.44451 1.6795 8.02787 1.50071 8.625 1.5H8.74125C8.18155 2.23678 7.87742 3.136 7.875 4.06125V4.12875Z" fill="white"/>
<path id="Vector_3" d="M19.5 1.5H9.75C9.39635 1.82654 9.1139 2.22256 8.92032 2.66327C8.72674 3.10398 8.6262 3.5799 8.625 4.06125V4.5C8.6247 4.59936 8.5851 4.69458 8.51484 4.76484C8.44458 4.8351 8.34936 4.8747 8.25 4.875H8.06625C7.15318 4.87451 6.27646 5.23274 5.625 5.8725V20.625C5.6253 20.7244 5.6649 20.8196 5.73516 20.8898C5.80542 20.9601 5.90064 20.9997 6 21H19.5C19.5994 20.9997 19.6946 20.9601 19.7648 20.8898C19.8351 20.8196 19.8747 20.7244 19.875 20.625V1.875C19.8747 1.77564 19.8351 1.68042 19.7648 1.61016C19.6946 1.5399 19.5994 1.5003 19.5 1.5ZM9.675 15.975L8.55 17.475C8.51782 17.5182 8.47671 17.554 8.42947 17.5798C8.38224 17.6057 8.32998 17.6211 8.27625 17.625H8.25C8.15038 17.6253 8.05468 17.5862 7.98375 17.5163L7.23375 16.7662C7.16314 16.6956 7.12347 16.5999 7.12347 16.5C7.12347 16.4001 7.16314 16.3044 7.23375 16.2338C7.30436 16.1631 7.40014 16.1235 7.5 16.1235C7.59986 16.1235 7.69564 16.1631 7.76625 16.2338L8.20875 16.68L9.075 15.525C9.13467 15.4454 9.22351 15.3928 9.32197 15.3788C9.42042 15.3647 9.52044 15.3903 9.6 15.45C9.67956 15.5097 9.73217 15.5985 9.74623 15.697C9.7603 15.7954 9.73467 15.8954 9.675 15.975ZM9.675 12.975L8.55 14.475C8.51782 14.5182 8.47671 14.554 8.42947 14.5798C8.38224 14.6057 8.32998 14.6211 8.27625 14.625H8.25C8.15038 14.6253 8.05468 14.5862 7.98375 14.5162L7.23375 13.7662C7.19879 13.7313 7.17105 13.6898 7.15213 13.6441C7.1332 13.5984 7.12347 13.5494 7.12347 13.5C7.12347 13.4506 7.1332 13.4016 7.15213 13.3559C7.17105 13.3102 7.19879 13.2687 7.23375 13.2338C7.26871 13.1988 7.31022 13.1711 7.35591 13.1521C7.40159 13.1332 7.45055 13.1235 7.5 13.1235C7.54945 13.1235 7.59841 13.1332 7.64409 13.1521C7.68978 13.1711 7.73129 13.1988 7.76625 13.2338L8.20875 13.68L9.075 12.525C9.13467 12.4454 9.22351 12.3928 9.32197 12.3788C9.42042 12.3647 9.52044 12.3903 9.6 12.45C9.67956 12.5097 9.73217 12.5985 9.74623 12.697C9.7603 12.7954 9.73467 12.8954 9.675 12.975ZM9.675 9.975L8.55 11.475C8.51782 11.5182 8.47671 11.554 8.42947 11.5798C8.38224 11.6057 8.32998 11.6211 8.27625 11.625H8.25C8.15038 11.6253 8.05468 11.5862 7.98375 11.5162L7.23375 10.7662C7.19879 10.7313 7.17105 10.6898 7.15213 10.6441C7.1332 10.5984 7.12347 10.5494 7.12347 10.5C7.12347 10.4506 7.1332 10.4016 7.15213 10.3559C7.17105 10.3102 7.19879 10.2687 7.23375 10.2338C7.26871 10.1988 7.31022 10.1711 7.35591 10.1521C7.40159 10.1332 7.45055 10.1235 7.5 10.1235C7.54945 10.1235 7.59841 10.1332 7.64409 10.1521C7.68978 10.1711 7.73129 10.1988 7.76625 10.2338L8.20875 10.68L9.075 9.525C9.13467 9.44544 9.22351 9.39283 9.32197 9.37877C9.42042 9.3647 9.52044 9.39033 9.6 9.45C9.67956 9.50967 9.73217 9.59851 9.74623 9.69697C9.7603 9.79542 9.73467 9.89544 9.675 9.975ZM9.675 6.975L8.55 8.475C8.51782 8.5182 8.47671 8.55395 8.42947 8.57984C8.38224 8.60572 8.32998 8.62113 8.27625 8.625H8.25C8.15038 8.62529 8.05468 8.5862 7.98375 8.51625L7.23375 7.76625C7.19879 7.73129 7.17105 7.68978 7.15213 7.64409C7.1332 7.59841 7.12347 7.54945 7.12347 7.5C7.12347 7.45055 7.1332 7.40159 7.15213 7.35591C7.17105 7.31022 7.19879 7.26871 7.23375 7.23375C7.26871 7.19879 7.31022 7.17105 7.35591 7.15213C7.40159 7.1332 7.45055 7.12347 7.5 7.12347C7.54945 7.12347 7.59841 7.1332 7.64409 7.15213C7.68978 7.17105 7.73129 7.19879 7.76625 7.23375L8.20875 7.68L9.075 6.525C9.10455 6.4856 9.14157 6.45241 9.18394 6.42732C9.22631 6.40223 9.27322 6.38573 9.32197 6.37877C9.37072 6.3718 9.42036 6.37451 9.46807 6.38673C9.51577 6.39895 9.5606 6.42045 9.6 6.45C9.6394 6.47955 9.67259 6.51657 9.69768 6.55894C9.72277 6.60132 9.73927 6.64822 9.74623 6.69697C9.7532 6.74572 9.75049 6.79536 9.73827 6.84307C9.72605 6.89077 9.70455 6.9356 9.675 6.975ZM14.25 17.625H10.5C10.4005 17.625 10.3052 17.5855 10.2348 17.5152C10.1645 17.4448 10.125 17.3495 10.125 17.25C10.125 17.1505 10.1645 17.0552 10.2348 16.9848C10.3052 16.9145 10.4005 16.875 10.5 16.875H14.25C14.3495 16.875 14.4448 16.9145 14.5152 16.9848C14.5855 17.0552 14.625 17.1505 14.625 17.25C14.625 17.3495 14.5855 17.4448 14.5152 17.5152C14.4448 17.5855 14.3495 17.625 14.25 17.625ZM16.875 14.625H10.5C10.4005 14.625 10.3052 14.5855 10.2348 14.5152C10.1645 14.4448 10.125 14.3495 10.125 14.25C10.125 14.1505 10.1645 14.0552 10.2348 13.9848C10.3052 13.9145 10.4005 13.875 10.5 13.875H16.875C16.9745 13.875 17.0698 13.9145 17.1402 13.9848C17.2105 14.0552 17.25 14.1505 17.25 14.25C17.25 14.3495 17.2105 14.4448 17.1402 14.5152C17.0698 14.5855 16.9745 14.625 16.875 14.625ZM16.875 11.625H10.5C10.4005 11.625 10.3052 11.5855 10.2348 11.5152C10.1645 11.4448 10.125 11.3495 10.125 11.25C10.125 11.1505 10.1645 11.0552 10.2348 10.9848C10.3052 10.9145 10.4005 10.875 10.5 10.875H16.875C16.9745 10.875 17.0698 10.9145 17.1402 10.9848C17.2105 11.0552 17.25 11.1505 17.25 11.25C17.25 11.3495 17.2105 11.4448 17.1402 11.5152C17.0698 11.5855 16.9745 11.625 16.875 11.625ZM16.875 8.625H10.5C10.4005 8.625 10.3052 8.58549 10.2348 8.51517C10.1645 8.44484 10.125 8.34946 10.125 8.25C10.125 8.15054 10.1645 8.05516 10.2348 7.98483C10.3052 7.91451 10.4005 7.875 10.5 7.875H16.875C16.9745 7.875 17.0698 7.91451 17.1402 7.98483C17.2105 8.05516 17.25 8.15054 17.25 8.25C17.25 8.34946 17.2105 8.44484 17.1402 8.51517C17.0698 8.58549 16.9745 8.625 16.875 8.625ZM17.4412 5.5725C17.3832 5.60635 17.3172 5.62444 17.25 5.625C17.1849 5.62525 17.1208 5.60841 17.0642 5.57617C17.0076 5.54393 16.9605 5.49741 16.9275 5.44125L16.6875 5.04375H15.5625L15.3225 5.44125C15.2709 5.52495 15.1885 5.58502 15.093 5.60853C14.9975 5.63205 14.8966 5.61712 14.812 5.56696C14.7275 5.51681 14.666 5.43544 14.6408 5.34038C14.6156 5.24532 14.6288 5.14418 14.6775 5.05875L15.0375 4.45875L15.8025 3.18375C15.8381 3.13093 15.8861 3.08765 15.9423 3.05774C15.9986 3.02782 16.0613 3.01217 16.125 3.01217C16.1887 3.01217 16.2514 3.02782 16.3077 3.05774C16.3639 3.08765 16.4119 3.13093 16.4475 3.18375L17.2125 4.45875L17.5725 5.05875C17.6232 5.14429 17.6379 5.24646 17.6133 5.3428C17.5886 5.43914 17.5268 5.52177 17.4412 5.5725ZM16.0087 4.29375H16.2413L16.125 4.1025L16.0087 4.29375Z" fill="white"/>
<path id="Vector_4" d="M8.625 1.5C8.02787 1.50071 7.44451 1.6795 6.94953 2.0135C6.45454 2.3475 6.07041 2.82154 5.84625 3.375C5.69998 3.73203 5.62483 4.11417 5.625 4.5V4.8975C6.28586 4.43098 7.06684 4.16414 7.875 4.12875V4.06125C7.87742 3.136 8.18155 2.23678 8.74125 1.5H8.625ZM19.5 1.5H9.75C9.39635 1.82654 9.1139 2.22256 8.92032 2.66327C8.72674 3.10398 8.62621 3.5799 8.625 4.06125V4.5C8.6247 4.59936 8.5851 4.69458 8.51484 4.76484C8.44458 4.8351 8.34937 4.8747 8.25 4.875H8.06625C7.15318 4.87451 6.27646 5.23274 5.625 5.8725V20.625C5.6253 20.7244 5.6649 20.8196 5.73516 20.8898C5.80542 20.9601 5.90064 20.9997 6 21H19.5C19.5994 20.9997 19.6946 20.9601 19.7648 20.8898C19.8351 20.8196 19.8747 20.7244 19.875 20.625V1.875C19.8747 1.77564 19.8351 1.68042 19.7648 1.61016C19.6946 1.5399 19.5994 1.5003 19.5 1.5ZM9.675 15.975L8.55 17.475C8.51782 17.5182 8.47671 17.554 8.42947 17.5798C8.38224 17.6057 8.32998 17.6211 8.27625 17.625H8.25C8.15038 17.6253 8.05468 17.5862 7.98375 17.5163L7.23375 16.7662C7.16314 16.6956 7.12347 16.5999 7.12347 16.5C7.12347 16.4001 7.16314 16.3044 7.23375 16.2338C7.30436 16.1631 7.40014 16.1235 7.5 16.1235C7.59986 16.1235 7.69564 16.1631 7.76625 16.2338L8.20875 16.68L9.075 15.525C9.13467 15.4454 9.22351 15.3928 9.32197 15.3788C9.42042 15.3647 9.52044 15.3903 9.6 15.45C9.67957 15.5097 9.73217 15.5985 9.74623 15.697C9.7603 15.7954 9.73467 15.8954 9.675 15.975ZM9.675 12.975L8.55 14.475C8.51782 14.5182 8.47671 14.554 8.42947 14.5798C8.38224 14.6057 8.32998 14.6211 8.27625 14.625H8.25C8.15038 14.6253 8.05468 14.5862 7.98375 14.5162L7.23375 13.7662C7.19879 13.7313 7.17105 13.6898 7.15213 13.6441C7.13321 13.5984 7.12347 13.5494 7.12347 13.5C7.12347 13.4506 7.13321 13.4016 7.15213 13.3559C7.17105 13.3102 7.19879 13.2687 7.23375 13.2338C7.26872 13.1988 7.31022 13.1711 7.35591 13.1521C7.40159 13.1332 7.45055 13.1235 7.5 13.1235C7.54945 13.1235 7.59841 13.1332 7.64409 13.1521C7.68978 13.1711 7.73129 13.1988 7.76625 13.2338L8.20875 13.68L9.075 12.525C9.13467 12.4454 9.22351 12.3928 9.32197 12.3788C9.42042 12.3647 9.52044 12.3903 9.6 12.45C9.67957 12.5097 9.73217 12.5985 9.74623 12.697C9.7603 12.7954 9.73467 12.8954 9.675 12.975ZM9.675 9.975L8.55 11.475C8.51782 11.5182 8.47671 11.554 8.42947 11.5798C8.38224 11.6057 8.32998 11.6211 8.27625 11.625H8.25C8.15038 11.6253 8.05468 11.5862 7.98375 11.5162L7.23375 10.7662C7.19879 10.7313 7.17105 10.6898 7.15213 10.6441C7.13321 10.5984 7.12347 10.5494 7.12347 10.5C7.12347 10.4506 7.13321 10.4016 7.15213 10.3559C7.17105 10.3102 7.19879 10.2687 7.23375 10.2338C7.26872 10.1988 7.31022 10.1711 7.35591 10.1521C7.40159 10.1332 7.45055 10.1235 7.5 10.1235C7.54945 10.1235 7.59841 10.1332 7.64409 10.1521C7.68978 10.1711 7.73129 10.1988 7.76625 10.2338L8.20875 10.68L9.075 9.525C9.13467 9.44544 9.22351 9.39283 9.32197 9.37877C9.42042 9.3647 9.52044 9.39033 9.6 9.45C9.67957 9.50967 9.73217 9.59851 9.74623 9.69697C9.7603 9.79542 9.73467 9.89544 9.675 9.975ZM9.675 6.975L8.55 8.475C8.51782 8.5182 8.47671 8.55395 8.42947 8.57984C8.38224 8.60572 8.32998 8.62113 8.27625 8.625H8.25C8.15038 8.62529 8.05468 8.5862 7.98375 8.51625L7.23375 7.76625C7.19879 7.73129 7.17105 7.68978 7.15213 7.64409C7.13321 7.59841 7.12347 7.54945 7.12347 7.5C7.12347 7.45055 7.13321 7.40159 7.15213 7.35591C7.17105 7.31022 7.19879 7.26871 7.23375 7.23375C7.26872 7.19879 7.31022 7.17105 7.35591 7.15213C7.40159 7.1332 7.45055 7.12347 7.5 7.12347C7.54945 7.12347 7.59841 7.1332 7.64409 7.15213C7.68978 7.17105 7.73129 7.19879 7.76625 7.23375L8.20875 7.68L9.075 6.525C9.10455 6.4856 9.14157 6.45241 9.18394 6.42732C9.22632 6.40223 9.27322 6.38573 9.32197 6.37877C9.37072 6.3718 9.42036 6.37451 9.46807 6.38673C9.51577 6.39895 9.5606 6.42045 9.6 6.45C9.6394 6.47955 9.67259 6.51657 9.69768 6.55894C9.72277 6.60132 9.73927 6.64822 9.74623 6.69697C9.7532 6.74572 9.75049 6.79536 9.73827 6.84307C9.72605 6.89077 9.70455 6.9356 9.675 6.975ZM14.25 17.625H10.5C10.4005 17.625 10.3052 17.5855 10.2348 17.5152C10.1645 17.4448 10.125 17.3495 10.125 17.25C10.125 17.1505 10.1645 17.0552 10.2348 16.9848C10.3052 16.9145 10.4005 16.875 10.5 16.875H14.25C14.3495 16.875 14.4448 16.9145 14.5152 16.9848C14.5855 17.0552 14.625 17.1505 14.625 17.25C14.625 17.3495 14.5855 17.4448 14.5152 17.5152C14.4448 17.5855 14.3495 17.625 14.25 17.625ZM16.875 14.625H10.5C10.4005 14.625 10.3052 14.5855 10.2348 14.5152C10.1645 14.4448 10.125 14.3495 10.125 14.25C10.125 14.1505 10.1645 14.0552 10.2348 13.9848C10.3052 13.9145 10.4005 13.875 10.5 13.875H16.875C16.9745 13.875 17.0698 13.9145 17.1402 13.9848C17.2105 14.0552 17.25 14.1505 17.25 14.25C17.25 14.3495 17.2105 14.4448 17.1402 14.5152C17.0698 14.5855 16.9745 14.625 16.875 14.625ZM16.875 11.625H10.5C10.4005 11.625 10.3052 11.5855 10.2348 11.5152C10.1645 11.4448 10.125 11.3495 10.125 11.25C10.125 11.1505 10.1645 11.0552 10.2348 10.9848C10.3052 10.9145 10.4005 10.875 10.5 10.875H16.875C16.9745 10.875 17.0698 10.9145 17.1402 10.9848C17.2105 11.0552 17.25 11.1505 17.25 11.25C17.25 11.3495 17.2105 11.4448 17.1402 11.5152C17.0698 11.5855 16.9745 11.625 16.875 11.625ZM16.875 8.625H10.5C10.4005 8.625 10.3052 8.58549 10.2348 8.51517C10.1645 8.44484 10.125 8.34946 10.125 8.25C10.125 8.15054 10.1645 8.05516 10.2348 7.98483C10.3052 7.91451 10.4005 7.875 10.5 7.875H16.875C16.9745 7.875 17.0698 7.91451 17.1402 7.98483C17.2105 8.05516 17.25 8.15054 17.25 8.25C17.25 8.34946 17.2105 8.44484 17.1402 8.51517C17.0698 8.58549 16.9745 8.625 16.875 8.625ZM17.4412 5.5725C17.3832 5.60635 17.3172 5.62444 17.25 5.625C17.1849 5.62525 17.1208 5.60841 17.0642 5.57617C17.0076 5.54393 16.9605 5.49741 16.9275 5.44125L16.6875 5.04375H15.5625L15.3225 5.44125C15.2709 5.52495 15.1885 5.58502 15.093 5.60853C14.9975 5.63205 14.8966 5.61712 14.812 5.56696C14.7275 5.51681 14.666 5.43544 14.6408 5.34038C14.6156 5.24532 14.6288 5.14418 14.6775 5.05875L15.0375 4.45875L15.8025 3.18375C15.8381 3.13093 15.8861 3.08765 15.9423 3.05774C15.9986 3.02782 16.0613 3.01217 16.125 3.01217C16.1887 3.01217 16.2514 3.02782 16.3077 3.05774C16.3639 3.08765 16.4119 3.13093 16.4475 3.18375L17.2125 4.45875L17.5725 5.05875C17.6232 5.14429 17.6379 5.24646 17.6133 5.3428C17.5886 5.43914 17.5268 5.52177 17.4412 5.5725ZM16.0087 4.29375H16.2413L16.125 4.1025L16.0087 4.29375Z" fill="white"/>
</g>
</g>
</g>
</svg>
