<svg width="24" height="24" viewBox="0 0 24 24" fill="none" xmlns="http://www.w3.org/2000/svg">
<g id="Frame">
<g id="Group">
<path id="Vector" d="M17.558 17.5249C17.558 17.5259 17.558 17.5271 17.5581 17.528C17.5564 17.7765 17.3537 17.9781 17.1049 17.9781C16.8551 17.9781 16.6518 17.775 16.6518 17.5251C16.6518 17.2751 16.8551 17.0719 17.1049 17.0719C17.3537 17.0719 17.5564 17.2735 17.558 17.5221V17.5249Z" fill="white"/>
<path id="Vector_2" d="M22.4221 17.2868H21.6957C21.5642 17.2868 21.4574 17.3935 21.4574 17.5251C21.4574 17.6567 21.5643 17.7634 21.6957 17.7634H22.4221C22.3652 19.0516 21.8481 20.2221 21.0315 21.1145L20.5196 20.6026C20.4267 20.5094 20.2758 20.5094 20.1826 20.6026C20.0896 20.6956 20.0896 20.8466 20.1826 20.9397L20.6945 21.4516C19.8021 22.2682 18.6314 22.7853 17.3433 22.8422V22.1159C17.3433 21.9842 17.2365 21.8776 17.105 21.8776C16.9732 21.8776 16.8666 21.9843 16.8666 22.1159V22.8424C15.5786 22.7855 14.4079 22.2683 13.5155 21.4518L14.0273 20.9399C14.1205 20.8468 14.1205 20.6959 14.0273 20.6027C13.9344 20.5096 13.7835 20.5096 13.6903 20.6027L13.1784 21.1147C12.7779 20.6771 12.4495 20.1726 12.2121 19.62C11.9654 19.0459 11.8169 18.42 11.7878 17.7635H12.5142C12.6459 17.7635 12.7525 17.6567 12.7525 17.5252C12.7525 17.3935 12.6458 17.2869 12.5142 17.2869H11.7878C11.8447 15.9987 12.3618 14.8282 13.1784 13.9357L13.6903 14.4476C13.7368 14.494 13.7979 14.5175 13.8587 14.5175C13.9199 14.5175 13.9807 14.494 14.0272 14.4476C14.1203 14.3546 14.1203 14.2036 14.0272 14.1105L13.5154 13.5986C14.4078 12.7819 15.5784 12.2649 16.8665 12.208V12.9345C16.8665 13.066 16.9732 13.1728 17.1048 13.1728C17.2365 13.1728 17.3431 13.0659 17.3431 12.9345V12.208C18.2976 12.2502 19.1877 12.545 19.9475 13.0272C20.2128 13.1954 20.4627 13.3866 20.6944 13.5987L20.1825 14.1106C20.0894 14.2038 20.0894 14.3546 20.1825 14.4477C20.2289 14.4942 20.29 14.5176 20.3509 14.5176C20.412 14.5176 20.4729 14.4942 20.5193 14.4477L21.0312 13.9358C21.8482 14.8281 22.3652 15.9986 22.4221 17.2868ZM19.9107 17.525C19.9107 17.3934 19.804 17.2867 19.6724 17.2867H18.0038C17.9186 16.9652 17.6649 16.7116 17.3434 16.6262V14.5675C17.3434 14.4357 17.2367 14.3291 17.1051 14.3291C16.9734 14.3291 16.8668 14.4359 16.8668 14.5675V16.6262C16.4692 16.7317 16.1753 17.0948 16.1753 17.5251C16.1753 18.0377 16.5925 18.4549 17.1052 18.4549C17.5355 18.4549 17.8986 18.161 18.0041 17.7634H19.6725C19.804 17.7634 19.9107 17.6567 19.9107 17.525ZM3.349 15.7012H5.35187V17.704H3.349V15.7012ZM7.58599 15.7012H9.58886V17.704H7.58599V15.7012ZM7.58599 11.8765H9.58886V13.8792H7.58599V11.8765ZM3.349 11.8765H5.35187V13.8792H3.349V11.8765ZM3.349 8.05188H5.35187V10.0546H3.349V8.05188ZM7.58599 8.05188H9.58886V10.0546H7.58599V8.05188ZM11.823 8.05188H13.8258V10.0546H11.823V8.05188ZM16.0602 8.05188H18.063V10.0546H16.0602V8.05188Z" fill="white"/>
<path id="Vector_3" d="M19.834 6.28082V12.4067C19.6803 12.3247 19.5229 12.2496 19.3624 12.1817C18.6472 11.8793 17.8878 11.7259 17.1048 11.7259C16.322 11.7259 15.5624 11.8793 14.8472 12.1817C14.1568 12.4738 13.5366 12.892 13.004 13.4245C12.4715 13.957 12.0534 14.5772 11.7613 15.2678C11.4587 15.9829 11.3054 16.7424 11.3054 17.5254C11.3054 18.1968 11.4182 18.8513 11.6416 19.4753H2.09732C1.81087 19.4753 1.57779 19.2424 1.57779 18.9558V6.28096H19.834V6.28082ZM18.5396 10.2929V7.81357C18.5396 7.68185 18.4328 7.57526 18.3013 7.57526H15.8218C15.6901 7.57526 15.5835 7.68199 15.5835 7.81357V10.2931C15.5835 10.4248 15.6902 10.5314 15.8218 10.5314H18.3013C18.433 10.5314 18.5396 10.4246 18.5396 10.2929ZM14.3026 10.2929V7.81357C14.3026 7.68185 14.1959 7.57526 14.0643 7.57526H11.5847C11.4531 7.57526 11.3464 7.68199 11.3464 7.81357V10.2931C11.3464 10.4248 11.4532 10.5314 11.5847 10.5314H14.0643C14.196 10.5314 14.3026 10.4246 14.3026 10.2929ZM10.0656 17.9423V15.4628C10.0656 15.3311 9.95887 15.2245 9.82729 15.2245H7.34767C7.2161 15.2245 7.10937 15.3312 7.10937 15.4628V17.9423C7.10937 18.074 7.21624 18.1806 7.34767 18.1806H9.82729C9.95901 18.1806 10.0656 18.074 10.0656 17.9423ZM10.0656 14.1177V11.6382C10.0656 11.5065 9.95887 11.3999 9.82729 11.3999H7.34767C7.2161 11.3999 7.10937 11.5066 7.10937 11.6382V14.1177C7.10937 14.2494 7.21624 14.356 7.34767 14.356H9.82729C9.95901 14.356 10.0656 14.2494 10.0656 14.1177ZM10.0656 10.2929V7.81357C10.0656 7.68185 9.95887 7.57526 9.82729 7.57526H7.34767C7.2161 7.57526 7.10937 7.68199 7.10937 7.81357V10.2931C7.10937 10.4248 7.21624 10.5314 7.34767 10.5314H9.82729C9.95901 10.5314 10.0656 10.4246 10.0656 10.2929ZM5.82861 17.9423V15.4628C5.82861 15.3311 5.72174 15.2245 5.59031 15.2245H3.11068C2.97897 15.2245 2.87238 15.3312 2.87238 15.4628V17.9423C2.87238 18.074 2.97911 18.1806 3.11068 18.1806H5.59031C5.72174 18.1806 5.82861 18.074 5.82861 17.9423ZM5.82861 14.1177V11.6382C5.82861 11.5065 5.72174 11.3999 5.59031 11.3999H3.11068C2.97897 11.3999 2.87238 11.5066 2.87238 11.6382V14.1177C2.87238 14.2494 2.97911 14.356 3.11068 14.356H5.59031C5.72174 14.356 5.82861 14.2494 5.82861 14.1177ZM5.82861 10.2929V7.81357C5.82861 7.68185 5.72174 7.57526 5.59031 7.57526H3.11068C2.97897 7.57526 2.87238 7.68199 2.87238 7.81357V10.2931C2.87238 10.4248 2.97911 10.5314 3.11068 10.5314H5.59031C5.72174 10.5314 5.82861 10.4246 5.82861 10.2929ZM19.834 3.50472V5.80406H1.57793V3.50472C1.57793 3.18538 1.8377 2.92548 2.15704 2.92548H3.81487V3.71423C3.81487 4.25409 4.25421 4.69343 4.79407 4.69343C5.33393 4.69343 5.77327 4.25409 5.77327 3.71423V2.92548H15.6388V3.71423C15.6388 4.25409 16.0782 4.69343 16.618 4.69343C17.1579 4.69343 17.5972 4.25409 17.5972 3.71423V2.92548H19.2551C19.5744 2.92548 19.834 3.18524 19.834 3.50472Z" fill="white"/>
<path id="Vector_4" d="M4.29147 1.6601C4.29147 1.38297 4.51693 1.15765 4.79392 1.15765C5.07105 1.15765 5.29637 1.38311 5.29637 1.6601V3.71422C5.29637 3.99135 5.07091 4.21667 4.79392 4.21667C4.51679 4.21667 4.29147 3.99121 4.29147 3.71422V1.6601ZM16.1154 1.6601C16.1154 1.38297 16.3409 1.15765 16.6179 1.15765C16.8949 1.15765 17.1203 1.38311 17.1203 1.6601V3.71422C17.1203 3.99135 16.8949 4.21667 16.6179 4.21667C16.3409 4.21667 16.1154 3.99121 16.1154 3.71422V1.6601Z" fill="white"/>
</g>
</g>
</svg>
