<svg width="24" height="24" viewBox="0 0 24 24" fill="none" xmlns="http://www.w3.org/2000/svg">
<g id="Frame" clip-path="url(#clip0_7161_777)">
<g id="Group">
<path id="Vector" d="M15.9724 2.57881L15.2692 1.65566L15.9724 0.732636C16.024 0.66498 16.0557 0.584226 16.0638 0.499509C16.0719 0.414792 16.0562 0.329493 16.0183 0.253263C15.9805 0.177032 15.9221 0.112912 15.8497 0.0681555C15.7773 0.0233991 15.6938 -0.000207008 15.6087 7.51711e-06H12.0087C11.8867 -0.000686865 11.7694 0.0467505 11.6822 0.132025C11.595 0.217299 11.5449 0.33353 11.5428 0.455493V4.51429H12.4571V3.31429H15.6087C15.694 3.3141 15.7775 3.29012 15.8499 3.24505C15.9222 3.19998 15.9806 3.13562 16.0184 3.0592C16.0562 2.98277 16.0719 2.89732 16.0637 2.81246C16.0556 2.72759 16.024 2.64667 15.9724 2.57881ZM1.53495 14.4C1.16255 14.3981 0.85906 14.6983 0.857117 15.0707V24H6.62855V14.4H1.53495ZM3.02855 21.4857C3.02855 21.607 2.98038 21.7232 2.89465 21.809C2.80892 21.8947 2.69264 21.9429 2.5714 21.9429C2.45016 21.9429 2.33388 21.8947 2.24815 21.809C2.16242 21.7232 2.11426 21.607 2.11426 21.4857V20.5034C2.11426 20.3821 2.16242 20.2659 2.24815 20.1801C2.33388 20.0944 2.45016 20.0462 2.5714 20.0462C2.69264 20.0462 2.80892 20.0944 2.89465 20.1801C2.98038 20.2659 3.02855 20.3821 3.02855 20.5034V21.4857ZM3.02855 17.6595C3.02855 17.7808 2.98038 17.8971 2.89465 17.9828C2.80892 18.0685 2.69264 18.1167 2.5714 18.1167C2.45016 18.1167 2.33388 18.0685 2.24815 17.9828C2.16242 17.8971 2.11426 17.7808 2.11426 17.6595V16.6772C2.11426 16.5559 2.16242 16.4396 2.24815 16.3539C2.33388 16.2682 2.45016 16.22 2.5714 16.22C2.69264 16.22 2.80892 16.2682 2.89465 16.3539C2.98038 16.4396 3.02855 16.5559 3.02855 16.6772V17.6595ZM5.3714 21.4857C5.3714 21.607 5.32324 21.7232 5.23751 21.809C5.15178 21.8947 5.0355 21.9429 4.91426 21.9429C4.79302 21.9429 4.67674 21.8947 4.59101 21.809C4.50528 21.7232 4.45712 21.607 4.45712 21.4857V20.5034C4.45712 20.3821 4.50528 20.2659 4.59101 20.1801C4.67674 20.0944 4.79302 20.0462 4.91426 20.0462C5.0355 20.0462 5.15178 20.0944 5.23751 20.1801C5.32324 20.2659 5.3714 20.3821 5.3714 20.5034V21.4857ZM5.3714 17.6595C5.3714 17.7808 5.32324 17.8971 5.23751 17.9828C5.15178 18.0685 5.0355 18.1167 4.91426 18.1167C4.79302 18.1167 4.67674 18.0685 4.59101 17.9828C4.50528 17.8971 4.45712 17.7808 4.45712 17.6595V16.6772C4.45712 16.5559 4.50528 16.4396 4.59101 16.3539C4.67674 16.2682 4.79302 16.22 4.91426 16.22C5.0355 16.22 5.15178 16.2682 5.23751 16.3539C5.32324 16.4396 5.3714 16.5559 5.3714 16.6772V17.6595ZM11.9265 8.02858L7.54283 11.7574V24H9.54283V19.2394C9.54135 19.1812 9.55174 19.1233 9.57338 19.0692C9.59501 19.0151 9.62744 18.9661 9.66867 18.9249C9.7099 18.8838 9.75908 18.8515 9.8132 18.8301C9.86732 18.8086 9.92525 18.7984 9.98346 18.8H13.9131C13.9707 18.7986 14.0281 18.809 14.0815 18.8307C14.1349 18.8524 14.1833 18.8849 14.2236 18.9261C14.264 18.9673 14.2954 19.0164 14.3159 19.0703C14.3364 19.1242 14.3456 19.1818 14.3428 19.2394V24H16.2857V11.7531L11.9265 8.02858ZM13.9131 16.2286H9.95763C9.83639 16.2286 9.72011 16.1804 9.63438 16.0947C9.54865 16.009 9.50049 15.8927 9.50049 15.7714C9.50049 15.6502 9.54865 15.5339 9.63438 15.4482C9.72011 15.3625 9.83639 15.3143 9.95763 15.3143H13.9131C14.0343 15.3143 14.1506 15.3625 14.2363 15.4482C14.322 15.5339 14.3702 15.6502 14.3702 15.7714C14.3702 15.8927 14.322 16.009 14.2363 16.0947C14.1506 16.1804 14.0343 16.2286 13.9131 16.2286ZM22.4739 14.4H17.2V24H23.1428V15.0796C23.1458 14.7072 22.8463 14.403 22.4739 14.4ZM19.5428 21.4857C19.5428 21.607 19.4947 21.7232 19.4089 21.809C19.3232 21.8947 19.2069 21.9429 19.0857 21.9429C18.9644 21.9429 18.8482 21.8947 18.7624 21.809C18.6767 21.7232 18.6285 21.607 18.6285 21.4857V20.5034C18.6285 20.3821 18.6767 20.2659 18.7624 20.1801C18.8482 20.0944 18.9644 20.0462 19.0857 20.0462C19.2069 20.0462 19.3232 20.0944 19.4089 20.1801C19.4947 20.2659 19.5428 20.3821 19.5428 20.5034V21.4857ZM19.5428 17.6595C19.5428 17.7808 19.4947 17.8971 19.4089 17.9828C19.3232 18.0685 19.2069 18.1167 19.0857 18.1167C18.9644 18.1167 18.8482 18.0685 18.7624 17.9828C18.6767 17.8971 18.6285 17.7808 18.6285 17.6595V16.6772C18.6285 16.5559 18.6767 16.4396 18.7624 16.3539C18.8482 16.2682 18.9644 16.22 19.0857 16.22C19.2069 16.22 19.3232 16.2682 19.4089 16.3539C19.4947 16.4396 19.5428 16.5559 19.5428 16.6772V17.6595ZM21.8285 21.4857C21.8285 21.607 21.7804 21.7232 21.6947 21.809C21.6089 21.8947 21.4926 21.9429 21.3714 21.9429C21.2502 21.9429 21.1339 21.8947 21.0482 21.809C20.9624 21.7232 20.9143 21.607 20.9143 21.4857V20.5034C20.9143 20.3821 20.9624 20.2659 21.0482 20.1801C21.1339 20.0944 21.2502 20.0462 21.3714 20.0462C21.4926 20.0462 21.6089 20.0944 21.6947 20.1801C21.7804 20.2659 21.8285 20.3821 21.8285 20.5034V21.4857ZM21.8285 17.6595C21.8285 17.7808 21.7804 17.8971 21.6947 17.9828C21.6089 18.0685 21.4926 18.1167 21.3714 18.1167C21.2502 18.1167 21.1339 18.0685 21.0482 17.9828C20.9624 17.8971 20.9143 17.7808 20.9143 17.6595V16.6772C20.9143 16.5559 20.9624 16.4396 21.0482 16.3539C21.1339 16.2682 21.2502 16.22 21.3714 16.22C21.4926 16.22 21.6089 16.2682 21.6947 16.3539C21.7804 16.4396 21.8285 16.5559 21.8285 16.6772V17.6595Z" fill="white"/>
<path id="Vector_2" d="M11.9486 5.1333L5.40668 10.7339L6.23342 11.6959L11.6518 7.07902C11.7346 7.00841 11.8399 6.96969 11.9488 6.9698C12.0576 6.96992 12.1628 7.00887 12.2455 7.07964L17.6414 11.6978L18.4871 10.7312L11.9486 5.1333ZM10.4571 19.7141H13.4286V23.9998H10.4571V19.7141Z" fill="white"/>
</g>
</g>
<defs>
<clipPath id="clip0_7161_777">
<rect width="24" height="24" fill="white"/>
</clipPath>
</defs>
</svg>
