<svg width="24" height="24" viewBox="0 0 24 24" fill="none" xmlns="http://www.w3.org/2000/svg">
<g id="Frame" clip-path="url(#clip0_7161_784)">
<g id="Group">
<path id="Vector" d="M18.5269 8.23438C18.5615 9.1663 19.8989 9.1656 19.9331 8.23438V5.33544L18.5269 5.84943V8.23438ZM4.52846 4.00691L11.7561 6.65043C11.912 6.70746 12.083 6.70749 12.239 6.65052L19.4714 4.007C20.0831 3.78411 20.0829 2.90896 19.4715 2.68621L12.2414 0.0427854C12.0855 -0.0142618 11.9145 -0.0142618 11.7586 0.0427854L4.52856 2.68621C3.91693 2.90905 3.91717 3.78416 4.52846 4.00691ZM7.15501 15.3388C7.15501 14.0237 6.08509 12.9538 4.77001 12.9538C1.61031 13.0737 1.6112 17.6043 4.77006 17.7238C6.08509 17.7238 7.15501 16.6538 7.15501 15.3388ZM21.6151 15.3388C21.6151 14.0237 20.5451 12.9538 19.2301 12.9538C16.0704 13.0737 16.0712 17.6043 19.2301 17.7238C20.5451 17.7238 21.6151 16.6538 21.6151 15.3388ZM9.61501 15.3388C9.61501 16.6538 10.6849 17.7238 12 17.7238C15.1597 17.6038 15.1589 13.0732 12 12.9538C10.6849 12.9538 9.61501 14.0237 9.61501 15.3388ZM19.23 17.7238C18.2883 17.7238 17.4096 17.9981 16.6693 18.471C17.605 19.5525 18.1714 20.9585 18.1714 22.4937V24H23.2969C23.6852 24 24 23.6852 24 23.2969V22.4937C24 19.8636 21.8602 17.7238 19.23 17.7238Z" fill="white"/>
<path id="Vector_2" d="M11.96 17.7236C9.31045 17.7236 7.15486 19.8634 7.15486 22.4936V23.9998H16.7652V22.4935C16.7652 19.8634 14.6096 17.7236 11.96 17.7236ZM4.77 17.7236C2.1398 17.7236 0 19.8634 0 22.4935V23.2967C0 23.685 0.314812 23.9998 0.703125 23.9998H5.74861V22.4935C5.74861 20.943 6.32639 19.5242 7.27889 18.4384C6.54956 17.9856 5.68983 17.7236 4.77 17.7236ZM16.4687 9.11655V6.60156L12.7217 7.97111C12.2575 8.14197 11.7364 8.14197 11.2725 7.97069L7.53127 6.60236V9.1173C7.53126 9.2614 7.57554 9.40203 7.65811 9.52014C7.74068 9.63825 7.85755 9.72813 7.99289 9.77762L11.7561 11.154C11.912 11.211 12.0831 11.211 12.239 11.154L16.007 9.77697C16.1423 9.72748 16.2592 9.63759 16.3418 9.51947C16.4244 9.40134 16.4687 9.26068 16.4687 9.11655Z" fill="white"/>
</g>
</g>
<defs>
<clipPath id="clip0_7161_784">
<rect width="24" height="24" fill="white"/>
</clipPath>
</defs>
</svg>
