<svg width="24" height="24" viewBox="0 0 24 24" fill="none" xmlns="http://www.w3.org/2000/svg">
<g id="Frame" clip-path="url(#clip0_6528_4204)">
<g id="Group">
<path id="Vector" d="M22.2878 8.29238C22.1908 7.56281 22.1771 6.30623 22.8547 5.88429C22.8668 5.87655 22.8759 5.86538 22.8865 5.85578C23.4405 5.67858 23.8239 5.4299 23.5229 5.09527L15.3504 2.63281L2.11724 4.47264C2.11724 4.47264 0.601873 4.68923 0.737244 7.04353C0.810731 8.3249 1.21262 8.95419 1.56408 9.2639L0.478177 9.59115C0.17678 9.92578 0.560116 10.1745 1.1142 10.3514C1.12473 10.3613 1.13361 10.3724 1.14593 10.3802C1.82315 10.8025 1.81011 12.0589 1.7127 12.7886C-0.720175 13.4794 0.153144 13.7046 0.153144 13.7046L0.68682 13.8337C0.311435 14.1729 -0.0613716 14.8162 0.00846243 16.0362C0.143905 18.39 1.3886 18.5525 1.3886 18.5525L10.0483 21.3672L23.1191 18.2012C23.1191 18.2012 23.9927 17.9758 21.5592 17.2849C21.4613 16.5563 21.4477 15.3 22.1265 14.8766C22.139 14.8691 22.1481 14.8577 22.1582 14.8483C22.7123 14.6711 23.0953 14.4226 22.7943 14.088L22.2262 13.9164C22.605 13.6879 23.1742 13.0908 23.2634 11.5397C23.3249 10.4728 23.0465 9.84793 22.7244 9.48006L23.8473 9.20832C23.8474 9.20875 24.721 8.98327 22.2878 8.29238ZM11.3549 8.26223L13.5529 7.81049L20.981 6.28402L22.0876 6.0564C21.734 6.7036 21.7488 7.58931 21.8074 8.15859C21.8202 8.28737 21.8349 8.40497 21.8493 8.49436L20.6379 8.79554L11.2625 11.1279L11.3549 8.26223ZM1.91311 10.553L3.01964 10.7806L10.1532 12.2471L10.7764 12.3747L12.6454 12.7588L12.7375 15.6245L3.10157 13.2272L2.15162 12.9911C2.16558 12.9016 2.18034 12.7841 2.19373 12.655C2.25189 12.0861 2.267 11.2002 1.91311 10.553ZM1.48321 6.93022C1.46982 6.30401 1.58141 5.85112 1.80696 5.62092C1.95049 5.47395 2.11989 5.44337 2.23606 5.44337C2.29744 5.44337 2.34164 5.45189 2.34465 5.45189L8.04647 7.31076L10.8912 8.23823L10.7979 11.1239L2.8173 8.88651L2.39614 8.76854C2.37893 8.76401 2.36128 8.7613 2.3435 8.76045C2.31062 8.75808 1.52161 8.68546 1.48321 6.93022ZM10.0689 20.117L1.66743 17.7615C1.65028 17.7569 1.63268 17.7541 1.61493 17.7532C1.58148 17.751 0.792108 17.6784 0.753932 15.9236C0.740324 15.2966 0.852488 14.8442 1.0776 14.6138C1.2215 14.4668 1.39096 14.4362 1.50692 14.4362C1.56845 14.4362 1.6125 14.4444 1.61572 14.4444L10.1617 17.2312L10.0689 20.117ZM21.078 17.1512C21.0913 17.2804 21.106 17.3978 21.1203 17.4873L10.5334 20.1211L10.6259 17.2554L12.8893 16.79L13.2236 16.8709L14.4764 16.4637L20.2516 15.2769L21.3587 15.0492C21.0047 15.6963 21.0194 16.5824 21.078 17.1512ZM21.6612 13.2566C21.642 13.2568 21.6229 13.2598 21.6045 13.2654L20.8061 13.4889L13.2032 15.6207L13.1103 12.735L15.6047 11.9215L21.6446 9.95171C21.6453 9.95135 21.9623 9.88095 22.1949 10.1175C22.4201 10.3477 22.5318 10.8006 22.5187 11.4268C22.4793 13.1815 21.6899 13.2544 21.6612 13.2566Z" fill="white"/>
</g>
</g>
<defs>
<clipPath id="clip0_6528_4204">
<rect width="24" height="24" fill="white"/>
</clipPath>
</defs>
</svg>
