<svg width="24" height="24" viewBox="0 0 24 24" fill="none" xmlns="http://www.w3.org/2000/svg">
<g id="Frame">
<g id="Group">
<path id="Vector" d="M4.5 21C4.5 21.1989 4.57902 21.3896 4.71967 21.5303C4.86032 21.6709 5.05109 21.75 5.25 21.75H18.75C18.9489 21.75 19.1397 21.6709 19.2803 21.5303C19.421 21.3896 19.5 21.1989 19.5 21V18.75H4.5V21ZM21.4553 6.15371C21.3436 6.0688 21.2104 6.01679 21.0707 6.00354C20.931 5.99029 20.7904 6.01632 20.6648 6.07871L15.3938 8.71421L12.6968 1.97171C12.6412 1.83229 12.5451 1.71274 12.4209 1.62851C12.2967 1.54429 12.1501 1.49927 12 1.49927C11.8499 1.49927 11.7033 1.54429 11.5791 1.62851C11.4549 1.71274 11.3588 1.83229 11.3033 1.97171L8.60625 8.71421L3.33525 6.07871C3.20966 6.01605 3.06901 5.98989 2.9293 6.0032C2.78958 6.01651 2.6564 6.06876 2.5449 6.15401C2.4334 6.23925 2.34806 6.35407 2.29858 6.48541C2.2491 6.61675 2.23747 6.75933 2.265 6.89696L4.335 17.25H19.665L21.735 6.89696C21.7625 6.75942 21.7508 6.61693 21.7014 6.48568C21.6519 6.35444 21.5666 6.23968 21.4553 6.15446V6.15371ZM12 14.25C11.5547 14.195 11.1486 13.9681 10.8684 13.6178C10.5881 13.2674 10.4559 12.8214 10.5 12.375C10.4559 11.9285 10.5881 11.4825 10.8684 11.1321C11.1486 10.7818 11.5547 10.5549 12 10.5C12.4453 10.5549 12.8514 10.7818 13.1316 11.1321C13.4119 11.4825 13.5441 11.9285 13.5 12.375C13.5441 12.8214 13.4119 13.2674 13.1316 13.6178C12.8514 13.9681 12.4453 14.195 12 14.25Z" fill="white"/>
</g>
</g>
</svg>
