<svg width="24" height="24" viewBox="0 0 24 24" fill="none" xmlns="http://www.w3.org/2000/svg">
<g id="Frame">
<g id="Group">
<path id="Vector" fill-rule="evenodd" clip-rule="evenodd" d="M14.0723 14.1165L18.2197 9.96975L19.2803 11.0302L15.285 15.0262L15.75 15.375V18H12.75V21.75H2.25V15.75C2.25 14.9544 2.56607 14.1913 3.12868 13.6287C3.69129 13.0661 4.45435 12.75 5.25 12.75H11.25C11.8988 12.75 12.531 12.9607 13.05 13.35L14.0723 14.1165ZM7.5 5.25C9.156 5.25 10.5 6.594 10.5 8.25C10.5 9.906 9.156 11.25 7.5 11.25C5.844 11.25 4.5 9.906 4.5 8.25C4.5 6.594 5.844 5.25 7.5 5.25ZM7.5 3.75V2.25H21.75V16.5H18.75V15H20.25V3.75H7.5ZM18 6V7.5H12.75V6H18ZM15.75 9V10.5H12.75V9H15.75Z" fill="white"/>
</g>
</g>
</svg>
