<svg width="24" height="24" viewBox="0 0 24 24" fill="none" xmlns="http://www.w3.org/2000/svg">
<g id="Frame">
<g id="Group">
<path id="Vector" d="M21.73 13.1203C20.8513 12.8948 19.9996 12.5746 19.19 12.1653C18.94 12.0403 18.71 11.9203 18.5 11.8053C18.085 11.5753 17.755 11.3703 17.54 11.2303C17.5277 11.2216 17.5143 11.2149 17.5 11.2103C17.3415 11.1179 17.1606 11.0709 16.9772 11.0744C16.7938 11.0779 16.6148 11.1319 16.46 11.2303C15.1699 12.0739 13.7563 12.7116 12.27 13.1203C12.0512 13.1734 11.8565 13.2983 11.7169 13.475C11.5774 13.6517 11.501 13.8701 11.5 14.0953V14.9503C11.4995 16.1851 11.8041 17.4008 12.3868 18.4895C12.9695 19.5781 13.8122 20.5059 14.84 21.1903L15.305 21.5003L16.445 22.2603C16.5354 22.3198 16.6351 22.3637 16.74 22.3903H16.745C16.827 22.4185 16.9133 22.4321 17 22.4303C17.1976 22.4286 17.3904 22.3695 17.555 22.2603L19.16 21.1903C20.1878 20.5059 21.0305 19.5781 21.6132 18.4895C22.1959 17.4008 22.5005 16.1851 22.5 14.9503V14.0953C22.499 13.8701 22.4226 13.6517 22.2831 13.475C22.1435 13.2983 21.9488 13.1734 21.73 13.1203ZM18.855 15.8553L16.855 17.8553C16.7602 17.9482 16.6328 18.0003 16.5 18.0003C16.3672 18.0003 16.2398 17.9482 16.145 17.8553L15.145 16.8553C15.0508 16.7611 14.998 16.6334 14.998 16.5003C14.998 16.3671 15.0508 16.2394 15.145 16.1453C15.2392 16.0511 15.3668 15.9982 15.5 15.9982C15.6332 15.9982 15.7608 16.0511 15.855 16.1453L16.5 16.7953L18.145 15.1453C18.1916 15.0987 18.247 15.0617 18.3079 15.0364C18.3688 15.0112 18.4341 14.9982 18.5 14.9982C18.5659 14.9982 18.6312 15.0112 18.6921 15.0364C18.753 15.0617 18.8084 15.0987 18.855 15.1453C18.9016 15.1919 18.9386 15.2472 18.9638 15.3081C18.9891 15.3691 19.002 15.4343 19.002 15.5003C19.002 15.5662 18.9891 15.6315 18.9638 15.6924C18.9386 15.7533 18.9016 15.8087 18.855 15.8553Z" fill="white"/>
<path id="Vector_2" d="M17.79 6.62006L13.515 2.25006C13.3616 2.09479 13.1884 1.96031 13 1.85006V5.50006C13.0012 5.89752 13.1596 6.27837 13.4407 6.55941C13.7217 6.84046 14.1025 6.99888 14.5 7.00006H18.095C18.0048 6.86461 17.9027 6.73744 17.79 6.62006ZM18.47 8.00006H14.5C13.837 8.00006 13.2011 7.73667 12.7322 7.26783C12.2634 6.79899 12 6.16311 12 5.50006V1.52006C11.9107 1.50595 11.8204 1.49926 11.73 1.50006H4C3.33696 1.50006 2.70107 1.76346 2.23223 2.2323C1.76339 2.70114 1.5 3.33702 1.5 4.00006V20.0001C1.5 20.6631 1.76339 21.299 2.23223 21.7678C2.70107 22.2367 3.33696 22.5001 4 22.5001H15.005L14.285 22.0201C13.12 21.2451 12.1648 20.1941 11.5044 18.9605C10.844 17.727 10.4989 16.3493 10.5 14.9501V14.0951C10.5002 13.7858 10.5721 13.4809 10.71 13.2041C10.848 12.9274 11.0482 12.6864 11.295 12.5001H5C4.86739 12.5001 4.74021 12.4474 4.64645 12.3536C4.55268 12.2599 4.5 12.1327 4.5 12.0001C4.5 11.8675 4.55268 11.7403 4.64645 11.6465C4.74021 11.5527 4.86739 11.5001 5 11.5001H13.87C14.578 11.1808 15.2615 10.8098 15.915 10.3901C16.2082 10.2038 16.5444 10.0963 16.8912 10.0779C17.2381 10.0595 17.5838 10.1309 17.895 10.2851L17.93 10.3001L18.08 10.3901C18.185 10.4601 18.325 10.5451 18.5 10.6501V8.37006C18.5002 8.24612 18.4901 8.12237 18.47 8.00006ZM10.5 18.0001C10.5 18.1327 10.4473 18.2598 10.3536 18.3536C10.2598 18.4474 10.1326 18.5001 10 18.5001H5C4.86739 18.5001 4.74021 18.4474 4.64645 18.3536C4.55268 18.2598 4.5 18.1327 4.5 18.0001C4.5 17.8675 4.55268 17.7403 4.64645 17.6465C4.74021 17.5527 4.86739 17.5001 5 17.5001H10C10.1326 17.5001 10.2598 17.5527 10.3536 17.6465C10.4473 17.7403 10.5 17.8675 10.5 18.0001ZM5 14.5001H9C9.13261 14.5001 9.25979 14.5527 9.35355 14.6465C9.44732 14.7403 9.5 14.8675 9.5 15.0001C9.5 15.1327 9.44732 15.2599 9.35355 15.3536C9.25979 15.4474 9.13261 15.5001 9 15.5001H5C4.86739 15.5001 4.74021 15.4474 4.64645 15.3536C4.55268 15.2599 4.5 15.1327 4.5 15.0001C4.5 14.8675 4.55268 14.7403 4.64645 14.6465C4.74021 14.5527 4.86739 14.5001 5 14.5001ZM5 5.50006H9C9.13261 5.50006 9.25979 5.55274 9.35355 5.64651C9.44732 5.74028 9.5 5.86746 9.5 6.00006C9.5 6.13267 9.44732 6.25985 9.35355 6.35362C9.25979 6.44739 9.13261 6.50006 9 6.50006H5C4.86739 6.50006 4.74021 6.44739 4.64645 6.35362C4.55268 6.25985 4.5 6.13267 4.5 6.00006C4.5 5.86746 4.55268 5.74028 4.64645 5.64651C4.74021 5.55274 4.86739 5.50006 5 5.50006ZM12 9.50006H5C4.86739 9.50006 4.74021 9.44739 4.64645 9.35362C4.55268 9.25985 4.5 9.13267 4.5 9.00006C4.5 8.86746 4.55268 8.74028 4.64645 8.64651C4.74021 8.55274 4.86739 8.50006 5 8.50006H12C12.1326 8.50006 12.2598 8.55274 12.3536 8.64651C12.4473 8.74028 12.5 8.86746 12.5 9.00006C12.5 9.13267 12.4473 9.25985 12.3536 9.35362C12.2598 9.44739 12.1326 9.50006 12 9.50006Z" fill="white"/>
</g>
</g>
</svg>
