<svg width="24" height="24" viewBox="0 0 24 24" fill="none" xmlns="http://www.w3.org/2000/svg">
<g id="Frame" clip-path="url(#clip0_11134_1602)">
<g id="Group">
<path id="Vector" d="M12 9.68582C14.2523 9.68582 16.0781 7.85998 16.0781 5.6077C16.0781 3.35541 14.2523 1.52957 12 1.52957C9.74771 1.52957 7.92188 3.35541 7.92188 5.6077C7.92188 7.85998 9.74771 9.68582 12 9.68582Z" fill="#40140F"/>
<path id="Vector_2" d="M20.25 9.68576C21.6739 9.68576 22.8281 8.5315 22.8281 7.10764C22.8281 5.68378 21.6739 4.52951 20.25 4.52951C18.8261 4.52951 17.6719 5.68378 17.6719 7.10764C17.6719 8.5315 18.8261 9.68576 20.25 9.68576Z" fill="#40140F"/>
<path id="Vector_3" d="M3.75 9.68576C5.17386 9.68576 6.32812 8.5315 6.32812 7.10764C6.32812 5.68378 5.17386 4.52951 3.75 4.52951C2.32614 4.52951 1.17188 5.68378 1.17188 7.10764C1.17188 8.5315 2.32614 9.68576 3.75 9.68576Z" fill="#40140F"/>
<path id="Vector_4" d="M6.29016 12.001C5.27531 11.1695 4.35623 11.2796 3.18281 11.2796C1.42781 11.2796 0 12.6989 0 14.4432V19.5624C0 20.3199 0.618281 20.9358 1.37859 20.9358C4.66106 20.9358 4.26562 20.9952 4.26562 20.7943C4.26562 17.1668 3.83597 14.5066 6.29016 12.001Z" fill="#40140F"/>
<path id="Vector_5" d="M13.1161 11.2983C11.0665 11.1273 9.28506 11.3002 7.74845 12.5686C5.17703 14.6283 5.67189 17.4015 5.67189 20.7942C5.67189 21.6918 6.4022 22.4358 7.31345 22.4358C17.2079 22.4358 17.6017 22.7549 18.1885 21.4556C18.3809 21.0162 18.3281 21.1558 18.3281 16.9523C18.3281 13.6136 15.4372 11.2983 13.1161 11.2983ZM20.8172 11.2795C19.6374 11.2795 18.7233 11.1706 17.7099 12.0009C20.1457 14.4879 19.7344 16.9666 19.7344 20.7942C19.7344 20.9964 19.4061 20.9358 22.5722 20.9358C23.3597 20.9358 24 20.2978 24 19.5136V14.4431C24 12.6989 22.5722 11.2795 20.8172 11.2795Z" fill="#40140F"/>
</g>
</g>
<defs>
<clipPath id="clip0_11134_1602">
<rect width="24" height="24" fill="white"/>
</clipPath>
</defs>
</svg>
