<svg width="22" height="22" viewBox="0 0 22 22" fill="none" xmlns="http://www.w3.org/2000/svg">
<path d="M0.611188 13.4447H3.05548C3.39293 13.4447 3.66667 13.7181 3.66667 14.0556V20.1668C3.66667 20.5043 3.39298 20.778 3.05548 20.778H0.611188C0.27374 20.778 0 20.5043 0 20.1668V14.0556C0 13.7182 0.273682 13.4447 0.611188 13.4447ZM6.72215 8.55564H9.16667C9.50411 8.55564 9.77785 8.82932 9.77785 9.16683V20.1668C9.77785 20.5043 9.50417 20.778 9.16667 20.778H6.72215C6.3847 20.778 6.11119 20.5043 6.11119 20.1668V9.16683C6.11119 8.82938 6.38464 8.55564 6.72215 8.55564ZM12.8333 11.0002H15.2779C15.6153 11.0002 15.8888 11.2738 15.8888 11.6114V20.1668C15.8888 20.5043 15.6154 20.778 15.2779 20.778H12.8333C12.4959 20.778 12.2221 20.5043 12.2221 20.1668V11.6114C12.2221 11.2739 12.4958 11.0002 12.8333 11.0002ZM18.9445 7.3335H21.3888C21.7263 7.3335 22 7.60718 22 7.94468V20.1668C22 20.5043 21.7263 20.778 21.3888 20.778H18.9445C18.6071 20.778 18.3333 20.5043 18.3333 20.1668V7.94468C18.3333 7.60724 18.607 7.3335 18.9445 7.3335Z" fill="black"/>
<path d="M20.1667 0C19.1547 0.00114583 18.3345 0.821333 18.3333 1.83333C18.3358 2.03294 18.3711 2.23082 18.4381 2.4188L15.3788 4.23729C15.1809 4.02737 14.9358 3.86758 14.6639 3.77114C14.392 3.6747 14.101 3.64437 13.815 3.68266C13.529 3.72095 13.2563 3.82676 13.0193 3.99135C12.7824 4.15594 12.588 4.37457 12.4522 4.62917L9.75391 3.29272C9.76708 3.21418 9.77493 3.13494 9.77785 3.05548C9.77855 2.69263 9.67155 2.33773 9.47042 2.03572C9.26928 1.73372 8.98305 1.49819 8.64797 1.35896C8.31289 1.21974 7.94403 1.18308 7.5881 1.25362C7.23217 1.32416 6.90517 1.49874 6.64853 1.75524C6.39181 2.01169 6.217 2.33857 6.14624 2.69446C6.07548 3.05035 6.11195 3.41924 6.25104 3.75438L2.75092 6.36654C2.4733 6.20113 2.15649 6.11296 1.83333 6.11119C0.820875 6.11119 0 6.93183 0 7.94452C0 8.95698 0.820875 9.77785 1.83333 9.77785C2.84579 9.77785 3.66667 8.95698 3.66667 7.94452C3.6651 7.72401 3.62346 7.50561 3.54378 7.29999L7.0789 4.66171C7.77041 5.04728 8.63294 4.93425 9.20156 4.38327L12.27 5.90305C12.4746 6.81416 13.3319 7.42552 14.26 7.32216C15.1881 7.21875 15.89 6.43391 15.8888 5.5C15.8888 5.45342 15.8785 5.40959 15.8752 5.36393L19.2026 3.38582C19.4911 3.56824 19.8253 3.66558 20.1667 3.66667C21.1791 3.66667 22 2.84579 22 1.83333C22 0.820875 21.1791 0 20.1667 0Z" fill="black"/>
</svg>
