<svg width="21" height="24" viewBox="0 0 21 24" fill="none" xmlns="http://www.w3.org/2000/svg">
<path d="M15.75 7.125C15.3364 7.125 15 6.78863 15 6.375H14.25C14.25 7.07175 14.73 7.65412 15.375 7.82175V8.25H16.125V7.82175C16.77 7.65412 17.25 7.07175 17.25 6.375C17.25 5.54775 16.5773 4.875 15.75 4.875C15.3364 4.875 15 4.53863 15 4.125C15 3.71137 15.3364 3.375 15.75 3.375C16.1636 3.375 16.5 3.71137 16.5 4.125H17.25C17.25 3.42825 16.77 2.84588 16.125 2.67825V2.25H15.375V2.67825C14.73 2.84588 14.25 3.42825 14.25 4.125C14.25 4.95225 14.9227 5.625 15.75 5.625C16.1636 5.625 16.5 5.96137 16.5 6.375C16.5 6.78863 16.1636 7.125 15.75 7.125Z" fill="black"/>
<path d="M2.25 23.625H15C16.056 23.625 16.875 22.4153 16.875 21.375V9.98887C19.0215 9.47887 20.625 7.55062 20.625 5.25C20.625 2.562 18.438 0.375 15.75 0.375C13.5855 0.375 11.748 1.794 11.1135 3.75H2.25C1.21613 3.75 0.375 4.59113 0.375 5.625V21.375C0.375 22.4153 1.194 23.625 2.25 23.625ZM15.75 1.125C18.0244 1.125 19.875 2.97563 19.875 5.25C19.875 7.52437 18.0244 9.375 15.75 9.375C13.4756 9.375 11.625 7.52437 11.625 5.25C11.625 2.97563 13.4756 1.125 15.75 1.125ZM14.625 9.98887V11.625C14.625 11.8316 14.4566 12 14.25 12H3C2.79338 12 2.625 11.8316 2.625 11.625V6.75C2.625 6.54338 2.79338 6.375 3 6.375H11.0111C11.2211 7.25233 11.6698 8.0544 12.3077 8.69228C12.9456 9.33016 13.7477 9.77894 14.625 9.98887ZM1.125 5.625C1.125 5.00475 1.62975 4.5 2.25 4.5H10.9387C10.9009 4.74525 10.875 4.99425 10.875 5.25C10.875 5.37675 10.8844 5.50087 10.8941 5.625H3C2.37975 5.625 1.875 6.12975 1.875 6.75V11.625C1.875 12.2452 2.37975 12.75 3 12.75H14.25C14.8702 12.75 15.375 12.2452 15.375 11.625V10.1059C15.4991 10.1156 15.6233 10.125 15.75 10.125C15.8767 10.125 16.0009 10.1156 16.125 10.1059V21.375C16.125 22.0301 15.5794 22.875 15 22.875H2.25C1.67062 22.875 1.125 22.0301 1.125 21.375V5.625Z" fill="black"/>
<path d="M8.25 21.75H9V18.375H14.25V17.625H9V13.875H8.25V17.625H3V18.375H8.25V21.75Z" fill="black"/>
<path d="M10.125 20.625H13.125V21.375H10.125V20.625ZM10.125 19.125H13.125V19.875H10.125V19.125ZM4.875 16.875H5.625V15.75H6.75V15H5.625V13.875H4.875V15H3.75V15.75H4.875V16.875ZM3.75 19.875H6.75V20.625H3.75V19.875ZM10.7441 16.7846L11.8125 15.8689L12.8809 16.7846L13.3691 16.2154L12.3889 15.375L13.3691 14.5346L12.8809 13.9654L11.8125 14.8811L10.7441 13.9654L10.2559 14.5346L11.2361 15.375L10.2559 16.2154L10.7441 16.7846Z" fill="black"/>
</svg>
