<svg width="36" height="44" viewBox="0 0 36 44" fill="none" xmlns="http://www.w3.org/2000/svg">
<path d="M36.0003 6.7298V42.4624C36.0003 43.3092 35.269 44 34.3726 44H4.366C3.46958 44 2.73828 43.3092 2.73828 42.4624V1.5376C2.73828 0.690808 3.46958 0 4.366 0H28.8643L36.0003 6.7298Z" fill="white"/>
<path d="M35.9986 6.7298V42.4624C35.9986 43.3092 35.2673 44 34.3709 44H32.0473C32.9437 44 33.675 43.3092 33.675 42.4624V6.7298L26.5508 0H28.8744L35.9986 6.7298Z" fill="#F5F5F5"/>
<path d="M35.9983 6.7298H30.49C29.5936 6.7298 28.8623 6.039 28.8623 5.1922V0L35.9983 6.7298Z" fill="#F5F5F5"/>
<path d="M29.1218 20.8358H9.80157C9.15285 20.8358 8.62207 20.3344 8.62207 19.7216C8.62207 19.1088 9.15285 18.6074 9.80157 18.6074H29.1218C29.7706 18.6074 30.3013 19.1088 30.3013 19.7216C30.3013 20.3456 29.7824 20.8358 29.1218 20.8358Z" fill="#F5F5F5"/>
<path d="M29.1218 26.5517H9.80157C9.15285 26.5517 8.62207 26.0503 8.62207 25.4374C8.62207 24.8246 9.15285 24.3232 9.80157 24.3232H29.1218C29.7706 24.3232 30.3013 24.8246 30.3013 25.4374C30.3013 26.0614 29.7824 26.5517 29.1218 26.5517Z" fill="#F5F5F5"/>
<path d="M29.1218 32.2675H9.80157C9.15285 32.2675 8.62207 31.7661 8.62207 31.1533C8.62207 30.5405 9.15285 30.0391 9.80157 30.0391H29.1218C29.7706 30.0391 30.3013 30.5405 30.3013 31.1533C30.3013 31.7772 29.7824 32.2675 29.1218 32.2675Z" fill="#F5F5F5"/>
<path d="M16.3361 15.0422H0V8.79153C0 8.32357 0.401026 7.93359 0.908212 7.93359H16.3361C16.8315 7.93359 17.2443 8.31242 17.2443 8.79153V14.1843C17.2443 14.6523 16.8433 15.0422 16.3361 15.0422Z" fill="#F6695E"/>
<path d="M17.2443 14.0729V14.1843C17.2443 14.6523 16.8433 15.0422 16.3361 15.0422H0V8.79153C0 8.32357 0.401026 7.93359 0.908212 7.93359H1.36822V10.162C1.36822 12.3236 3.22004 14.084 5.52008 14.084H17.2443V14.0729Z" fill="#DE3D31"/>
<path d="M0 15.042L2.73644 17.9835V15.042H0Z" fill="#F44336"/>
<path d="M4.42415 12.837V13.5836H1.95898V12.837H2.56053V9.90667H1.95898V9.16016H4.42415C5.00211 9.16016 5.43852 9.28272 5.75699 9.53899C6.07545 9.79525 6.22879 10.1407 6.22879 10.5641C6.22879 10.8092 6.16981 11.032 6.06366 11.2326C5.9575 11.4331 5.81596 11.5891 5.63904 11.6894C5.46211 11.8008 5.27339 11.8677 5.04929 11.9122C4.82518 11.9568 4.55389 11.968 4.22363 11.968H3.77542V12.8259H4.42415V12.837ZM3.77542 11.2326H3.95235C4.36518 11.2326 4.63646 11.1657 4.75441 11.0432C4.87236 10.9206 4.93134 10.7535 4.93134 10.5641C4.93134 10.4081 4.88415 10.2632 4.80159 10.1518C4.71902 10.0404 4.62466 9.97353 4.51851 9.9401C4.41235 9.91782 4.23543 9.89553 3.98773 9.89553H3.76362V11.2326H3.77542Z" fill="white"/>
<path d="M6.51172 13.5836V12.837H7.21942V9.90667H6.51172V9.16016H8.72919C9.20099 9.16016 9.56664 9.18244 9.86151 9.23815C10.1446 9.29386 10.4159 9.41642 10.6754 9.5947C10.9349 9.78411 11.1472 10.0292 11.3005 10.3412C11.4538 10.6532 11.5364 10.9986 11.5364 11.3774C11.5364 11.6894 11.4774 11.9791 11.3713 12.2576C11.2651 12.5362 11.1236 12.759 10.9584 12.9373C10.7933 13.1044 10.6046 13.2493 10.3687 13.3496C10.1446 13.4499 9.93228 13.5167 9.74356 13.5501C9.55484 13.5836 9.25997 13.5947 8.85893 13.5947H6.51172V13.5836ZM8.44611 12.837H8.74098C9.09483 12.837 9.37792 12.7925 9.59023 12.7033C9.80254 12.6142 9.96767 12.4582 10.0856 12.2465C10.2154 12.0237 10.2743 11.7451 10.2743 11.3886C10.2743 11.0543 10.2154 10.7646 10.0856 10.5306C9.95588 10.2966 9.79074 10.1295 9.56664 10.0404C9.35433 9.95124 9.07124 9.90667 8.74098 9.90667H8.44611V12.837Z" fill="white"/>
<path d="M12.0791 13.5836V12.837H12.7514V9.90667H12.0791V9.16016H16.2781V10.5306H15.3817V9.91782H13.9781V10.9429H14.9925V11.6894H13.9781V12.837H14.6976V13.5836H12.0791Z" fill="white"/>
<path d="M14.5421 17.1144H2.74707V15.042H16.3939V15.3763C16.3821 16.3345 15.5565 17.1144 14.5421 17.1144Z" fill="#F5F5F5"/>
</svg>
