<svg width="23" height="23" viewBox="0 0 23 23" fill="none" xmlns="http://www.w3.org/2000/svg">
<path d="M7.35111 19.2236C6.894 19.2236 6.5035 19.0617 6.17961 18.7379C5.85588 18.4141 5.69401 18.0236 5.69401 17.5664V5.93189H4.77734V4.55689H8.90234V3.74609H14.4023V4.55689H18.5273V5.93189H17.6107V17.5664C17.6107 18.0295 17.4503 18.4215 17.1294 18.7423C16.8086 19.0631 16.4166 19.2236 15.9536 19.2236H7.35111ZM16.2357 5.93189H7.06901V17.5664C7.06901 17.6488 7.09544 17.7164 7.1483 17.7693C7.20116 17.8221 7.26877 17.8486 7.35111 17.8486H15.9536C16.0242 17.8486 16.0888 17.8191 16.1474 17.7603C16.2063 17.7017 16.2357 17.637 16.2357 17.5664V5.93189ZM9.27268 16.0152H10.6474V7.76522H9.27268V16.0152ZM12.6572 16.0152H14.032V7.76522H12.6572V16.0152Z" fill="black"/>
</svg>
