<svg width="23" height="23" viewBox="0 0 23 23" fill="none" xmlns="http://www.w3.org/2000/svg">
<g clip-path="url(#clip0_173_2638)">
<path d="M22.5125 11.004C22.3159 10.7351 17.6331 4.4209 11.6522 4.4209C5.67135 4.4209 0.988269 10.7351 0.791945 11.0037C0.701229 11.128 0.652344 11.2779 0.652344 11.4317C0.652344 11.5856 0.701229 11.7355 0.791945 11.8598C0.988269 12.1286 5.67135 18.4428 11.6522 18.4428C17.6331 18.4428 22.3159 12.1286 22.5125 11.86C22.6033 11.7358 22.6523 11.5859 22.6523 11.432C22.6523 11.2781 22.6033 11.1282 22.5125 11.004ZM11.6522 16.9923C7.24667 16.9923 3.431 12.8014 2.30148 11.4314C3.42954 10.0601 7.23721 5.87144 11.6522 5.87144C16.0575 5.87144 19.8729 10.0616 21.0029 11.4324C19.8749 12.8036 16.0672 16.9923 11.6522 16.9923Z" fill="#575858"/>
<path d="M11.6522 7.08008C9.25274 7.08008 7.30054 9.03228 7.30054 11.4317C7.30054 13.8312 9.25274 15.7834 11.6522 15.7834C14.0517 15.7834 16.0039 13.8312 16.0039 11.4317C16.0039 9.03228 14.0517 7.08008 11.6522 7.08008ZM11.6522 14.3328C10.0525 14.3328 8.75112 13.0314 8.75112 11.4317C8.75112 9.83205 10.0525 8.53066 11.6522 8.53066C13.2519 8.53066 14.5533 9.83205 14.5533 11.4317C14.5533 13.0314 13.2519 14.3328 11.6522 14.3328Z" fill="#575858"/>
</g>
<defs>
<clipPath id="clip0_173_2638">
<rect width="22" height="22" fill="white" transform="translate(0.652344 0.432129)"/>
</clipPath>
</defs>
</svg>
