<svg width="20" height="21" viewBox="0 0 20 21" fill="none" xmlns="http://www.w3.org/2000/svg">
<path d="M17.5001 6.05477C17.3529 6.13095 17.1816 6.14561 17.0237 6.0955C16.8657 6.0454 16.7342 5.93465 16.6579 5.78758C16.0613 4.60906 15.1583 3.61297 14.0438 2.90399C13.9743 2.86018 13.9142 2.80312 13.8668 2.73606C13.8194 2.66901 13.7857 2.59328 13.7675 2.51319C13.7494 2.4331 13.7472 2.35022 13.7611 2.26928C13.775 2.18835 13.8047 2.11094 13.8485 2.04149C13.8923 1.97203 13.9494 1.91188 14.0164 1.86448C14.0835 1.81707 14.1592 1.78334 14.2393 1.7652C14.3194 1.74706 14.4023 1.74488 14.4832 1.75877C14.5641 1.77267 14.6415 1.80236 14.711 1.84617C16.0099 2.67784 17.0646 3.83958 17.7672 5.21258C17.8434 5.3597 17.8581 5.53106 17.808 5.68898C17.7579 5.8469 17.6471 5.97847 17.5001 6.05477ZM2.7899 6.12508C2.9044 6.12503 3.01669 6.09353 3.11451 6.03401C3.21233 5.97449 3.29192 5.88925 3.34459 5.78758C3.94115 4.60906 4.84413 3.61297 5.95865 2.90399C6.09892 2.81551 6.19831 2.67494 6.23494 2.51319C6.27156 2.35144 6.24244 2.18176 6.15396 2.04149C6.06549 1.90121 5.92491 1.80183 5.76316 1.7652C5.60141 1.72857 5.43174 1.7577 5.29146 1.84617C3.99256 2.67784 2.93785 3.83958 2.23521 5.21258C2.18587 5.30783 2.16187 5.41418 2.16552 5.52139C2.16918 5.6286 2.20037 5.73306 2.25609 5.82473C2.31181 5.91639 2.39019 5.99217 2.48368 6.04478C2.57717 6.09738 2.68263 6.12503 2.7899 6.12508ZM17.329 14.2454C17.4397 14.4353 17.4984 14.651 17.4991 14.8708C17.4999 15.0906 17.4427 15.3067 17.3333 15.4973C17.2238 15.688 17.0661 15.8464 16.8759 15.9566C16.6857 16.0668 16.4699 16.1249 16.2501 16.1251H13.0626C12.9191 16.8315 12.5359 17.4666 11.9777 17.9228C11.4196 18.379 10.7209 18.6282 10.0001 18.6282C9.27921 18.6282 8.58053 18.379 8.02239 17.9228C7.46426 17.4666 7.081 16.8315 6.93756 16.1251H3.75006C3.53038 16.1246 3.31471 16.0663 3.12475 15.956C2.93479 15.8457 2.77726 15.6872 2.66802 15.4967C2.55879 15.3061 2.50171 15.0901 2.50253 14.8704C2.50335 14.6507 2.56205 14.4352 2.67271 14.2454C3.37662 13.0305 3.75006 11.3032 3.75006 9.25008C3.75006 7.59248 4.40854 6.00276 5.58064 4.83066C6.75274 3.65856 8.34245 3.00008 10.0001 3.00008C11.6577 3.00008 13.2474 3.65856 14.4195 4.83066C15.5916 6.00276 16.2501 7.59248 16.2501 9.25008C16.2501 11.3024 16.6235 13.0298 17.329 14.2454ZM11.7672 16.1251H8.23287C8.36235 16.4902 8.60178 16.8063 8.91823 17.0299C9.23468 17.2534 9.61261 17.3734 10.0001 17.3734C10.3875 17.3734 10.7654 17.2534 11.0819 17.0299C11.3983 16.8063 11.6378 16.4902 11.7672 16.1251ZM16.2501 14.8751C15.4188 13.4477 15.0001 11.5555 15.0001 9.25008C15.0001 7.924 14.4733 6.65223 13.5356 5.71455C12.5979 4.77686 11.3261 4.25008 10.0001 4.25008C8.67397 4.25008 7.4022 4.77686 6.46452 5.71455C5.52684 6.65223 5.00006 7.924 5.00006 9.25008C5.00006 11.5563 4.57974 13.4485 3.75006 14.8751H16.2501Z" fill="black"/>
</svg>
