<svg width="22" height="22" viewBox="0 0 22 22" fill="none" xmlns="http://www.w3.org/2000/svg">
<path d="M3.81736 14.9864C3.6814 14.9864 3.54851 14.946 3.43548 14.8705C3.32245 14.7949 3.23435 14.6876 3.18233 14.562C3.13031 14.4364 3.11669 14.2981 3.14321 14.1648C3.16972 14.0315 3.23518 13.909 3.3313 13.8128L14.0749 3.06926C14.1383 3.0036 14.2141 2.95122 14.298 2.91519C14.3819 2.87916 14.4721 2.86019 14.5634 2.8594C14.6547 2.85861 14.7452 2.876 14.8297 2.91057C14.9142 2.94514 14.991 2.99619 15.0555 3.06074C15.1201 3.12529 15.1711 3.20205 15.2057 3.28654C15.2402 3.37103 15.2576 3.46156 15.2568 3.55285C15.256 3.64413 15.2371 3.73435 15.2011 3.81823C15.165 3.9021 15.1126 3.97797 15.047 4.04139L4.30342 14.7849C4.16936 14.919 3.99336 14.9864 3.81736 14.9864Z" fill="black"/>
<path d="M2.7558 19.9379C2.65321 19.938 2.55191 19.9151 2.45931 19.8709C2.36672 19.8268 2.28518 19.7624 2.22067 19.6827C2.15617 19.6029 2.11033 19.5097 2.08652 19.4099C2.06271 19.3101 2.06154 19.2063 2.08308 19.106L3.14527 14.155C3.16396 14.0665 3.19995 13.9825 3.25115 13.9079C3.30236 13.8333 3.36778 13.7696 3.44366 13.7204C3.51955 13.6711 3.60441 13.6373 3.69338 13.6209C3.78235 13.6045 3.87367 13.6059 3.96213 13.6249C4.05058 13.6438 4.13442 13.6801 4.20884 13.7315C4.28325 13.783 4.34679 13.8486 4.3958 13.9246C4.44481 14.0007 4.47833 14.0856 4.49444 14.1746C4.51054 14.2637 4.50893 14.355 4.48967 14.4434L3.42749 19.3944C3.39455 19.5481 3.30991 19.6859 3.18768 19.7848C3.06545 19.8837 2.91302 19.9378 2.7558 19.9379ZM7.70614 18.8757C7.57019 18.8757 7.4373 18.8353 7.32426 18.7598C7.21123 18.6842 7.12314 18.5769 7.07111 18.4513C7.01909 18.3257 7.00548 18.1874 7.03199 18.0541C7.05851 17.9208 7.12396 17.7983 7.22008 17.7021L17.9636 6.95891C18.0271 6.89325 18.1029 6.84087 18.1868 6.80484C18.2707 6.76881 18.3609 6.74984 18.4522 6.74905C18.5435 6.74826 18.634 6.76565 18.7185 6.80022C18.803 6.83479 18.8797 6.88584 18.9443 6.95039C19.0088 7.01494 19.0599 7.0917 19.0945 7.17619C19.129 7.26068 19.1464 7.35121 19.1456 7.4425C19.1448 7.53378 19.1259 7.624 19.0898 7.70787C19.0538 7.79175 19.0014 7.86761 18.9358 7.93103L8.19255 18.6743C8.12875 18.7382 8.05293 18.789 7.96946 18.8235C7.88598 18.8581 7.79649 18.8758 7.70614 18.8757Z" fill="black"/>
<path d="M2.75462 19.9376C2.58522 19.9369 2.42203 19.8737 2.29635 19.7601C2.17066 19.6465 2.09131 19.4905 2.07351 19.322C2.05571 19.1536 2.10071 18.9844 2.19988 18.8471C2.29905 18.7097 2.44542 18.6138 2.61094 18.5777L7.56197 17.5155C7.74 17.4779 7.92568 17.5124 8.07832 17.6115C8.23096 17.7105 8.3381 17.8661 8.37627 18.044C8.41443 18.2219 8.38051 18.4077 8.28193 18.5606C8.18336 18.7136 8.02817 18.8212 7.85037 18.8599L2.89934 19.9221C2.8518 19.9325 2.80328 19.9377 2.75462 19.9376ZM16.5053 10.0764C16.415 10.0766 16.3256 10.0589 16.2421 10.0243C16.1587 9.98974 16.083 9.93899 16.0192 9.87499L12.1304 5.98615C12.0647 5.92273 12.0124 5.84687 11.9763 5.76299C11.9403 5.67911 11.9213 5.5889 11.9205 5.49761C11.9198 5.40633 11.9371 5.3158 11.9717 5.23131C12.0063 5.14681 12.0573 5.07005 12.1219 5.0055C12.1864 4.94095 12.2632 4.8899 12.3477 4.85533C12.4322 4.82077 12.5227 4.80337 12.614 4.80416C12.7053 4.80496 12.7955 4.82392 12.8794 4.85995C12.9632 4.89599 13.0391 4.94836 13.1025 5.01402L16.9914 8.90287C17.0875 8.99902 17.1529 9.1215 17.1795 9.25485C17.206 9.38819 17.1924 9.5264 17.1403 9.65201C17.0883 9.77761 17.0002 9.88497 16.8872 9.96052C16.7742 10.0361 16.6413 10.0764 16.5053 10.0764ZM18.4499 8.13218C18.3139 8.13229 18.1808 8.09202 18.0677 8.01649C17.9545 7.94095 17.8663 7.83354 17.8142 7.70785C17.7621 7.58216 17.7485 7.44384 17.7751 7.31041C17.8017 7.17697 17.8672 7.05442 17.9635 6.95827C18.3461 6.57568 18.5568 6.05765 18.5568 5.50009C18.5568 4.94252 18.3461 4.42449 17.9635 4.0419C17.5806 3.65896 17.0625 3.44824 16.505 3.44824C15.9474 3.44824 15.4294 3.65896 15.0468 4.0419C14.9829 4.10575 14.9071 4.1564 14.8237 4.19096C14.7403 4.22552 14.6508 4.2433 14.5605 4.2433C14.4702 4.2433 14.3808 4.22552 14.2974 4.19096C14.214 4.1564 14.1382 4.10575 14.0743 4.0419C14.0105 3.97805 13.9598 3.90224 13.9252 3.81881C13.8907 3.73538 13.8729 3.64597 13.8729 3.55566C13.8729 3.46536 13.8907 3.37594 13.9252 3.29252C13.9598 3.20909 14.0105 3.13328 14.0743 3.06943C14.7164 2.42696 15.5796 2.07324 16.505 2.07324C17.43 2.07324 18.2935 2.42696 18.9356 3.06943C19.5781 3.71155 19.9318 4.57471 19.9318 5.50009C19.9318 6.42546 19.5781 7.28862 18.9356 7.93074C18.872 7.9947 18.7963 8.04542 18.7129 8.08C18.6295 8.11457 18.5402 8.1323 18.4499 8.13218Z" fill="black"/>
</svg>
