<svg width="428" height="428" viewBox="0 0 428 428" fill="none" xmlns="http://www.w3.org/2000/svg">
<path d="M227.141 5.18921C223.389 2.25514 218.763 0.661133 214 0.661133C209.237 0.661133 204.611 2.25514 200.859 5.18921L165.445 32.8799L120.987 26.6079C116.276 25.9462 111.479 26.878 107.359 29.2552C103.238 31.6324 100.031 35.3186 98.2453 39.7279L81.4133 81.3919L39.7493 98.2239C35.34 100.009 31.6538 103.217 29.2767 107.337C26.8995 111.458 25.9677 116.254 26.6293 120.965L32.88 165.467L5.21064 200.88C2.28703 204.628 0.699219 209.246 0.699219 214C0.699219 218.754 2.28703 223.371 5.21064 227.12L32.88 262.533L26.6293 307.035C25.9677 311.745 26.8995 316.542 29.2767 320.663C31.6538 324.783 35.34 327.991 39.7493 329.776L81.4133 346.608L98.2453 388.272C100.027 392.685 103.233 396.376 107.354 398.757C111.475 401.138 116.273 402.073 120.987 401.413L165.488 395.141L200.901 422.811C204.65 425.734 209.268 427.322 214.021 427.322C218.775 427.322 223.393 425.734 227.141 422.811L262.555 395.141L307.056 401.413C311.769 402.073 316.568 401.138 320.689 398.757C324.81 396.376 328.016 392.685 329.797 388.272L346.629 346.608L388.293 329.776C392.707 327.994 396.397 324.788 398.779 320.667C401.16 316.547 402.095 311.748 401.435 307.035L395.163 262.533L422.832 227.12C425.756 223.371 427.343 218.754 427.343 214C427.343 209.246 425.756 204.628 422.832 200.88L395.163 165.467L401.435 120.965C402.095 116.252 401.16 111.453 398.779 107.332C396.397 103.212 392.707 100.005 388.293 98.2239L346.629 81.3919L329.797 39.7279C328.012 35.3186 324.804 31.6324 320.684 29.2552C316.564 26.878 311.767 25.9462 307.056 26.6079L262.555 32.8586L227.141 5.18921Z" fill="#FA1228"/>
<path fill-rule="evenodd" clip-rule="evenodd" d="M183.834 153.669C179.811 149.783 174.422 147.633 168.829 147.681C163.235 147.73 157.884 149.974 153.929 153.929C149.974 157.884 147.73 163.235 147.681 168.829C147.633 174.422 149.783 179.811 153.669 183.835L183.834 214L153.669 244.165C151.632 246.133 150.006 248.487 148.888 251.09C147.77 253.693 147.182 256.492 147.157 259.325C147.132 262.157 147.672 264.966 148.745 267.588C149.818 270.21 151.402 272.592 153.405 274.595C155.408 276.598 157.79 278.182 160.411 279.255C163.033 280.327 165.842 280.867 168.675 280.843C171.508 280.818 174.307 280.229 176.91 279.111C179.512 277.993 181.866 276.368 183.834 274.331L214 244.165L244.165 274.331C246.133 276.368 248.487 277.993 251.09 279.111C253.693 280.229 256.492 280.818 259.324 280.843C262.157 280.867 264.966 280.327 267.588 279.255C270.21 278.182 272.592 276.598 274.595 274.595C276.598 272.592 278.182 270.21 279.255 267.588C280.327 264.966 280.867 262.157 280.842 259.325C280.818 256.492 280.229 253.693 279.111 251.09C277.993 248.487 276.368 246.133 274.33 244.165L244.165 214L274.33 183.835C278.216 179.811 280.367 174.422 280.318 168.829C280.27 163.235 278.026 157.884 274.071 153.929C270.115 149.974 264.764 147.73 259.171 147.681C253.577 147.633 248.189 149.783 244.165 153.669L214 183.835L183.834 153.669Z" fill="#EBEBED"/>
</svg>
