<svg width="23" height="23" viewBox="0 0 23 23" fill="none" xmlns="http://www.w3.org/2000/svg">
<path fill-rule="evenodd" clip-rule="evenodd" d="M5.81868 5.5985C2.59687 8.82033 2.59687 14.0439 5.81868 17.2658C9.04058 20.4876 14.2641 20.4876 17.486 17.2658C20.7078 14.0439 20.7078 8.82033 17.486 5.5985C14.2641 2.37667 9.04058 2.37667 5.81868 5.5985ZM6.51287 7.58899C4.62857 10.1023 4.82932 13.6836 7.11512 15.9694C9.40083 18.2552 12.9822 18.4559 15.4955 16.5716L12.9487 14.0248C12.5907 13.6669 12.5907 13.0864 12.9487 12.7285C13.3067 12.3705 13.8871 12.3705 14.2451 12.7285L16.7918 15.2753C18.6761 12.7619 18.4754 9.18065 16.1896 6.89486C13.9038 4.60907 10.3225 4.40833 7.80922 6.29263L10.356 8.8394C10.714 9.19739 10.714 9.77782 10.356 10.1358C9.99804 10.4937 9.4176 10.4937 9.05965 10.1358L6.51287 7.58899Z" fill="#575858"/>
<path fill-rule="evenodd" clip-rule="evenodd" d="M5.81868 5.5985C2.59687 8.82033 2.59687 14.0439 5.81868 17.2658C9.04058 20.4876 14.2641 20.4876 17.486 17.2658C20.7078 14.0439 20.7078 8.82033 17.486 5.5985C14.2641 2.37667 9.04058 2.37667 5.81868 5.5985ZM6.51287 7.58899C4.62857 10.1023 4.82932 13.6836 7.11512 15.9694C9.40083 18.2552 12.9822 18.4559 15.4955 16.5716L12.9487 14.0248C12.5907 13.6669 12.5907 13.0864 12.9487 12.7285C13.3067 12.3705 13.8871 12.3705 14.2451 12.7285L16.7918 15.2753C18.6761 12.7619 18.4754 9.18065 16.1896 6.89486C13.9038 4.60907 10.3225 4.40833 7.80922 6.29263L10.356 8.8394C10.714 9.19739 10.714 9.77782 10.356 10.1358C9.99804 10.4937 9.4176 10.4937 9.05965 10.1358L6.51287 7.58899Z" fill="black" fill-opacity="0.2"/>
</svg>
