<svg width="24" height="24" viewBox="0 0 24 24" fill="none" xmlns="http://www.w3.org/2000/svg">
<path d="M19.4067 6.97266C19.6655 6.97266 19.8754 6.7628 19.8754 6.50391V1.40625C19.8754 0.630844 19.2446 0 18.4692 0H1.40669C0.631281 0 0.000437498 0.630844 0.000437498 1.40625V22.5938C0.000437498 23.3692 0.631281 24 1.40669 24H18.4692C19.2446 24 19.8754 23.3692 19.8754 22.5938V19.1404C19.8754 18.8815 19.6655 18.6716 19.4067 18.6716C19.1478 18.6716 18.9379 18.8815 18.9379 19.1404V22.5938C18.9379 22.8522 18.7277 23.0625 18.4692 23.0625H1.40669C1.14822 23.0625 0.937937 22.8522 0.937937 22.5938V1.40625C0.937937 1.14778 1.14822 0.9375 1.40669 0.9375H18.4692C18.7277 0.9375 18.9379 1.14778 18.9379 1.40625V6.50391C18.9379 6.7628 19.1478 6.97266 19.4067 6.97266Z" fill="black"/>
<path d="M9.93783 2.53125C7.55991 2.53125 5.62533 4.46583 5.62533 6.84375C5.62533 8.07736 6.14611 9.19148 6.97917 9.97823C6.99478 9.99492 7.01137 10.0107 7.02952 10.0251C7.79691 10.7273 8.81817 11.1562 9.93778 11.1562C11.0574 11.1562 12.0787 10.7272 12.846 10.0251C12.864 10.0107 12.8808 9.99507 12.8964 9.97823C13.7295 9.19148 14.2503 8.07736 14.2503 6.84375C14.2503 4.46583 12.3157 2.53125 9.93783 2.53125ZM9.93783 10.2188C9.17241 10.2188 8.466 9.96225 7.89919 9.53119C8.31117 8.80064 9.07997 8.34375 9.93783 8.34375C10.7957 8.34375 11.5645 8.80064 11.9765 9.53119C11.4096 9.96225 10.7032 10.2188 9.93783 10.2188ZM9.18783 6.65625V6.35156C9.18783 5.93803 9.5243 5.60156 9.93783 5.60156C10.3514 5.60156 10.6878 5.93803 10.6878 6.35156V6.65625C10.6878 7.06978 10.3514 7.40625 9.93783 7.40625C9.5243 7.40625 9.18783 7.06978 9.18783 6.65625ZM12.6538 8.84452C12.3117 8.33623 11.8329 7.93493 11.2727 7.68684C11.4935 7.40152 11.6253 7.04409 11.6253 6.65625V6.35156C11.6253 5.42105 10.8683 4.66406 9.93783 4.66406C9.00731 4.66406 8.25033 5.42105 8.25033 6.35156V6.65625C8.25033 7.04409 8.38219 7.40152 8.60297 7.68684C8.04274 7.93493 7.564 8.33623 7.22189 8.84452C6.80803 8.28422 6.56283 7.5922 6.56283 6.84375C6.56283 4.98277 8.07684 3.46875 9.93783 3.46875C11.7988 3.46875 13.3128 4.98277 13.3128 6.84375C13.3128 7.5922 13.0676 8.28422 12.6538 8.84452ZM12.4691 20.5312H9.93783C9.67898 20.5312 9.46908 20.7411 9.46908 21C9.46908 21.2589 9.67898 21.4688 9.93783 21.4688H12.4691C12.7279 21.4688 12.9378 21.2589 12.9378 21C12.9378 20.7411 12.7279 20.5312 12.4691 20.5312ZM12.4691 17.9062H5.81283C5.55398 17.9062 5.34408 18.1161 5.34408 18.375C5.34408 18.6339 5.55398 18.8438 5.81283 18.8438H12.4691C12.7279 18.8438 12.9378 18.6339 12.9378 18.375C12.9378 18.1161 12.7279 17.9062 12.4691 17.9062ZM12.4691 15.2812H5.81283C5.55398 15.2812 5.34408 15.4911 5.34408 15.75C5.34408 16.0089 5.55398 16.2188 5.81283 16.2188H12.4691C12.7279 16.2188 12.9378 16.0089 12.9378 15.75C12.9378 15.4911 12.7279 15.2812 12.4691 15.2812ZM4.14216 12.7936C4.05394 12.7059 3.93471 12.6566 3.81033 12.6562C3.687 12.6562 3.56606 12.7064 3.47892 12.7936C3.39173 12.8808 3.34158 13.0017 3.34158 13.125C3.34158 13.2483 3.39169 13.3692 3.47892 13.4564C3.56707 13.5439 3.68611 13.5933 3.81033 13.5938C3.93408 13.5938 4.05455 13.5436 4.14216 13.4564C4.22934 13.3692 4.27955 13.2483 4.27955 13.125C4.27955 13.0017 4.22939 12.8808 4.14216 12.7936ZM4.14216 15.4186C4.05389 15.331 3.93469 15.2816 3.81033 15.2812C3.687 15.2812 3.56658 15.3314 3.47892 15.4186C3.39173 15.5058 3.34158 15.6267 3.34158 15.75C3.34158 15.8733 3.39169 15.9942 3.47892 16.0814C3.56707 16.1689 3.68611 16.2183 3.81033 16.2188C3.93408 16.2188 4.05455 16.1686 4.14216 16.0814C4.22934 15.9942 4.27955 15.8733 4.27955 15.75C4.27955 15.6267 4.22939 15.5058 4.14216 15.4186ZM4.14216 18.0436C4.05389 17.956 3.93469 17.9066 3.81033 17.9062C3.687 17.9062 3.56658 17.9564 3.47892 18.0436C3.39173 18.1308 3.34158 18.2517 3.34158 18.375C3.34158 18.4983 3.39169 18.6192 3.47892 18.7064C3.56702 18.794 3.68609 18.8434 3.81033 18.8438C3.93408 18.8438 4.05502 18.7936 4.14216 18.7064C4.22934 18.6192 4.27955 18.4983 4.27955 18.375C4.27955 18.2517 4.22939 18.1308 4.14216 18.0436ZM12.4691 12.6562H5.81283C5.55398 12.6562 5.34408 12.8661 5.34408 13.125C5.34408 13.3839 5.55398 13.5938 5.81283 13.5938H12.4691C12.7279 13.5938 12.9378 13.3839 12.9378 13.125C12.9378 12.8661 12.7279 12.6562 12.4691 12.6562ZM23.0157 6.10875C22.5603 5.84583 22.0298 5.77598 21.5218 5.91206C21.0138 6.04819 20.5892 6.37397 20.3264 6.82936L14.4275 17.0464C14.3952 17.1024 14.3748 17.1645 14.3676 17.2288L13.9524 20.948C13.9451 21.0135 13.9517 21.0799 13.9718 21.1427C13.9919 21.2055 14.025 21.2633 14.0689 21.3125C14.1129 21.3616 14.1667 21.4009 14.2269 21.4279C14.2871 21.4548 14.3523 21.4688 14.4182 21.4688C14.5182 21.4688 14.6157 21.4368 14.6962 21.3775L17.7095 19.1582C17.7616 19.1199 17.8052 19.0712 17.8375 19.0152L23.7363 8.79816C24.2791 7.85803 23.9558 6.65156 23.0157 6.10875ZM15.003 19.9872L15.2198 18.0451L16.5765 18.8284L15.003 19.9872ZM17.26 18.1404L15.4738 17.1092L20.2075 8.91028L21.9937 9.94153L17.26 18.1404ZM22.9244 8.32936L22.4624 9.12966L20.6762 8.09841L21.1382 7.29811C21.2057 7.1806 21.2957 7.07763 21.4032 6.99515C21.5107 6.91268 21.6334 6.85235 21.7644 6.81764C21.8952 6.7822 22.0317 6.77306 22.166 6.79075C22.3003 6.80843 22.4298 6.8526 22.5469 6.92067C22.6644 6.98809 22.7674 7.07814 22.8499 7.18562C22.9323 7.2931 22.9927 7.41587 23.0274 7.54683C23.0628 7.67759 23.072 7.81409 23.0543 7.94841C23.0366 8.08273 22.9925 8.21221 22.9244 8.32936Z" fill="black"/>
</svg>
