<svg width="28" height="27" viewBox="0 0 28 27" fill="none" xmlns="http://www.w3.org/2000/svg">
<path fill-rule="evenodd" clip-rule="evenodd" d="M13.927 0.234375H14.073C16.8762 0.234375 19.0803 0.234375 20.7994 0.464775C22.5619 0.702855 23.9597 1.19822 25.0579 2.29646C26.1562 3.3947 26.6515 4.79246 26.8883 6.55502C27.12 8.27534 27.12 10.4769 27.12 13.2814V13.4273C27.12 16.2318 27.12 18.4347 26.8896 20.1537C26.6515 21.9163 26.1562 23.3141 25.0592 24.4123C23.9622 25.5105 22.5619 26.0059 20.7994 26.2427C19.0803 26.4744 16.8774 26.4744 14.073 26.4744H13.927C11.1238 26.4744 8.91968 26.4744 7.20064 26.244C5.43808 26.0059 4.04032 25.5105 2.94208 24.4136C1.84384 23.3141 1.34848 21.9163 1.11168 20.1537C0.88 18.4347 0.88 16.2318 0.88 13.4273V13.2814C0.88 10.4782 0.88 8.27534 1.1104 6.55502C1.34848 4.79246 1.84384 3.3947 2.9408 2.29646C4.0416 1.19822 5.43808 0.702855 7.20064 0.466055C8.91968 0.235655 11.1226 0.235655 13.927 0.235655V0.234375ZM7.45664 2.36813C5.90784 2.57677 4.9824 2.97229 4.30016 3.65453C3.61792 4.33677 3.2224 5.26221 3.01376 6.81101C2.80256 8.38797 2.8 10.4616 2.8 13.3544C2.8 16.2472 2.80256 18.3208 3.01376 19.8977C3.2224 21.4465 3.61792 22.3733 4.30016 23.0555C4.9824 23.7377 5.90784 24.132 7.45664 24.3406C9.0336 24.5531 11.1072 24.5544 14 24.5544C16.8928 24.5544 18.9664 24.5531 20.5434 24.3406C22.0922 24.132 23.0176 23.7377 23.6998 23.0555C24.3821 22.3733 24.7776 21.4478 24.9862 19.8977C25.1974 18.3208 25.2 16.2485 25.2 13.3544C25.2 10.4603 25.1974 8.38797 24.9862 6.81101C24.7776 5.26221 24.3834 4.33677 23.6998 3.65453C23.0176 2.97229 22.0922 2.57677 20.5434 2.36813C18.9664 2.15821 16.8928 2.15437 14 2.15437C11.1072 2.15437 9.0336 2.15693 7.45664 2.36813Z" fill="black"/>
<path fill-rule="evenodd" clip-rule="evenodd" d="M13.9898 7.91414C12.7482 7.91414 11.7446 8.91894 11.7446 10.1541C11.7446 11.3906 12.7482 12.3941 13.9898 12.3941C15.2301 12.3941 16.2336 11.3906 16.2336 10.1541C16.2336 8.91894 15.2301 7.91414 13.9898 7.91414ZM9.82464 10.1541C9.82464 7.85526 11.6909 5.99414 13.9898 5.99414C16.2886 5.99414 18.1536 7.85526 18.1536 10.1541C18.1536 12.453 16.2874 14.3141 13.9898 14.3141C11.6922 14.3141 9.82464 12.453 9.82464 10.1541ZM19.0534 20.4044C16.4346 17.5628 11.559 17.669 8.93376 20.4172C8.75612 20.5932 8.51679 20.693 8.26669 20.6953C8.01659 20.6976 7.77548 20.6022 7.59467 20.4294C7.41386 20.2566 7.30762 20.02 7.29858 19.7701C7.28953 19.5201 7.37839 19.2765 7.54624 19.0911C10.8909 15.5877 17.0515 15.3996 20.4666 19.1039C20.6323 19.2922 20.7178 19.5379 20.7047 19.7884C20.6916 20.039 20.581 20.2744 20.3964 20.4444C20.2119 20.6143 19.9682 20.7053 19.7174 20.6979C19.4667 20.6904 19.2288 20.585 19.0547 20.4044H19.0534Z" fill="black"/>
</svg>
