<svg width="28" height="28" viewBox="0 0 28 28" fill="none" xmlns="http://www.w3.org/2000/svg">
<path d="M24.7076 8.1777C24.6677 8.16441 24.6256 8.15913 24.5837 8.16215C24.5417 8.16517 24.5008 8.17644 24.4632 8.1953C24.4257 8.21417 24.3922 8.24027 24.3647 8.2721C24.3372 8.30393 24.3163 8.34087 24.3031 8.3808C23.2604 11.5415 22.4698 10.1711 21.3557 11.9093L20.2353 13.9804C20.1378 14.1661 19.9832 14.3157 19.7944 14.407C19.6055 14.4983 19.3923 14.5266 19.1861 14.4877C18.6131 14.3853 18.1941 13.6996 18.5171 13.0912L19.8679 10.573C20.3471 9.58826 19.9473 8.37781 18.9779 7.87562C17.9629 7.34229 16.7345 7.78346 16.2387 8.71402L13.8554 12.6539C13.5669 13.078 12.9453 13.264 12.4213 12.8501C12.0429 12.5638 11.9648 11.9895 12.2473 11.5701C12.275 11.5287 15.0675 7.38965 15.4899 6.8384C15.5155 6.80508 15.5342 6.76705 15.545 6.72648C15.5558 6.68592 15.5586 6.64362 15.553 6.602C15.5475 6.56038 15.5338 6.52027 15.5127 6.48396C15.4916 6.44765 15.4636 6.41585 15.4302 6.3904C15.3969 6.36482 15.3589 6.34607 15.3183 6.33521C15.2778 6.32435 15.2355 6.32159 15.1939 6.3271C15.1523 6.33261 15.1121 6.34627 15.0758 6.36731C15.0395 6.38835 15.0077 6.41635 14.9822 6.4497C14.8478 6.62464 14.4941 7.13237 14.067 7.75402C9.89291 9.44234 10.0384 9.50037 9.65226 9.46922C9.48448 9.45519 9.32368 9.39575 9.18711 9.29729C9.05054 9.19882 8.94334 9.06504 8.87701 8.91029C8.78552 8.68517 8.78664 8.43302 8.88013 8.20872C8.97362 7.98443 9.15191 7.80613 9.37621 7.71264L14.2001 5.71797C14.2786 5.68561 14.341 5.62339 14.3736 5.54502C14.4062 5.46664 14.4063 5.37852 14.374 5.30005C14.3416 5.22157 14.2794 5.15917 14.201 5.12656C14.1226 5.09395 14.0345 5.09382 13.9561 5.12618L11.0624 6.32298L9.8097 6.29056C9.30538 6.2769 8.90346 5.8545 8.912 5.37109L8.9184 5.30154C8.9568 4.81813 9.38133 4.44095 9.85194 4.46186C12.2942 4.52245 15.1665 4.59157 15.1196 4.59029H15.1277C15.2125 4.59131 15.2943 4.55857 15.3551 4.49928C15.4158 4.43999 15.4505 4.359 15.4515 4.27413C15.4525 4.18926 15.4198 4.10746 15.3605 4.04673C15.3012 3.986 15.2202 3.95131 15.1354 3.95029L11.7813 3.86837C11.6725 3.26506 12.1935 2.77269 12.72 2.80469C12.883 2.84181 15.8419 3.67679 17.8306 4.23701C19.0953 4.43455 21.104 3.37855 22.2581 2.76501C22.2968 2.74621 22.3312 2.71982 22.3595 2.68741C22.3877 2.655 22.4091 2.61724 22.4224 2.57638C22.4357 2.53552 22.4407 2.49239 22.437 2.44958C22.4332 2.40676 22.4209 2.36514 22.4008 2.32718C22.3806 2.28922 22.353 2.25571 22.3197 2.22865C22.2863 2.20159 22.2478 2.18153 22.2065 2.16967C22.1652 2.15781 22.1219 2.15439 22.0792 2.15962C22.0366 2.16485 21.9954 2.17862 21.9582 2.2001C21.0362 2.68991 18.9865 3.76511 17.9659 3.61279C12.9214 2.18474 12.8523 2.17706 12.8096 2.17279C11.8876 2.09002 11.0445 2.85973 11.1354 3.85301L9.86816 3.82229C9.05621 3.79413 8.34624 4.42815 8.28053 5.24863L8.27328 5.33823C8.25749 6.14037 8.85994 6.81194 9.64074 6.91136L9.13173 7.1217C8.75059 7.28074 8.44783 7.5841 8.28956 7.96556C8.13128 8.34702 8.13034 8.7756 8.28693 9.15775C8.39878 9.42085 8.58039 9.64839 8.81215 9.81577C9.04391 9.98316 9.317 10.084 9.60192 10.1075C10.2159 10.1523 10.227 9.99189 13.4069 8.71957C12.8415 9.54964 12.2779 10.3809 11.7161 11.2134C11.1614 12.0373 11.4242 13.3037 12.6261 13.654C12.2341 14.0194 11.9212 14.4614 11.7067 14.9526C11.4922 15.4438 11.3806 15.9737 11.379 16.5096C11.379 18.666 13.1339 20.4205 15.2898 20.4205C18.0704 20.4205 19.9213 17.6079 18.9348 15.0816C19.6913 15.2966 20.4486 14.9374 20.7989 14.2846L21.9066 12.2349C22.2419 11.7131 22.547 11.5578 22.9007 11.3781C23.5433 11.0517 24.2076 10.7138 24.9107 8.58218C24.9373 8.50167 24.9308 8.41389 24.8928 8.33814C24.8547 8.26238 24.7881 8.2044 24.7076 8.1777ZM16.7947 9.03104C17.142 8.38208 17.9834 8.07616 18.6822 8.44309C19.347 8.78784 19.6209 9.6177 19.2979 10.282C17.4355 13.744 18.0683 12.5566 17.9369 12.813C17.8328 13.0227 17.7771 13.2531 17.7739 13.4871C17.336 13.1266 16.8244 12.8664 16.2752 12.7248C15.726 12.5832 15.1524 12.5637 14.5948 12.6675L16.7947 9.03104ZM18.5611 16.5092C18.5611 18.3127 17.0938 19.78 15.2898 19.78C13.4859 19.78 12.019 18.3127 12.019 16.5092C12.019 14.6298 13.5678 13.238 15.2898 13.238C17.0366 13.238 18.5026 14.6123 18.5606 16.3893L18.5611 16.5092ZM25.3826 0.483621C25.3306 0.356174 25.2301 0.254583 25.1032 0.201148C24.9763 0.147712 24.8335 0.146799 24.7059 0.198607L23.047 0.874448C22.9837 0.900192 22.9261 0.938201 22.8776 0.986286C22.829 1.03437 22.7904 1.09158 22.7641 1.15463C22.7377 1.21768 22.7241 1.28532 22.7239 1.35366C22.7238 1.42201 22.7372 1.4897 22.7633 1.55285C22.8401 1.74911 24.2144 5.11381 25.3143 7.81077C25.4253 8.08042 25.7325 8.20117 25.9906 8.09493L27.6503 7.41866C27.9149 7.31114 28.0429 7.00778 27.9349 6.74197L25.3826 0.483621ZM8.92565 18.486C8.96405 18.6289 9.09333 18.7232 9.23498 18.7232C9.31221 18.7232 9.26698 18.7219 10.6596 18.3546C10.7002 18.3437 10.7383 18.325 10.7717 18.2994C10.8051 18.2739 10.8331 18.242 10.8542 18.2056C10.8752 18.1692 10.8889 18.129 10.8944 18.0873C10.9 18.0456 10.8972 18.0033 10.8864 17.9627C10.8756 17.922 10.8568 17.884 10.8313 17.8506C10.8057 17.8172 10.7738 17.7892 10.7374 17.7681C10.701 17.7471 10.6608 17.7334 10.6192 17.7278C10.5775 17.7223 10.5351 17.725 10.4945 17.7359L9.15264 18.0943C9.11201 18.1051 9.07391 18.1238 9.04051 18.1493C9.00711 18.1749 8.97907 18.2067 8.95799 18.2431C8.93691 18.2795 8.9232 18.3196 8.91765 18.3613C8.9121 18.403 8.91482 18.4453 8.92565 18.486Z" fill="black"/>
<path d="M9.15265 15.0149C10.541 15.3814 10.4992 15.3836 10.5773 15.3836C10.6543 15.3826 10.7284 15.3538 10.786 15.3026C10.8436 15.2514 10.8808 15.1812 10.8908 15.1048C10.9008 15.0284 10.8829 14.9509 10.8405 14.8866C10.798 14.8223 10.7338 14.7755 10.6596 14.7547L9.31734 14.3963C9.27672 14.3855 9.23436 14.3828 9.19269 14.3883C9.15103 14.3939 9.11086 14.4076 9.07449 14.4286C9.03812 14.4497 9.00626 14.4778 8.98072 14.5111C8.95518 14.5445 8.93647 14.5826 8.92566 14.6233C8.91485 14.6639 8.91214 14.7062 8.91769 14.7479C8.92325 14.7896 8.93696 14.8297 8.95803 14.8661C8.97911 14.9025 9.00715 14.9343 9.04054 14.9599C9.07393 14.9854 9.11202 15.0041 9.15265 15.0149ZM20.2217 17.7362C20.1409 17.7182 20.0563 17.732 19.9856 17.7749C19.9149 17.8178 19.8634 17.8864 19.8421 17.9663C19.8208 18.0462 19.8312 18.1313 19.8711 18.2037C19.9111 18.2762 19.9775 18.3303 20.0565 18.3549L21.3984 18.7124C21.439 18.7233 21.4814 18.726 21.5231 18.7205C21.5647 18.715 21.6049 18.7013 21.6413 18.6802C21.6777 18.6592 21.7096 18.6311 21.7352 18.5977C21.7607 18.5644 21.7795 18.5263 21.7903 18.4857C21.8011 18.445 21.8039 18.4027 21.7983 18.361C21.7928 18.3193 21.7791 18.2791 21.7581 18.2427C21.737 18.2064 21.709 18.1745 21.6756 18.1489C21.6422 18.1233 21.6041 18.1046 21.5635 18.0938L20.2217 17.7362ZM0.346672 27.538H2.44246C2.52733 27.538 2.60872 27.5043 2.66873 27.4443C2.72874 27.3843 2.76246 27.3029 2.76246 27.218V26.8127L3.59873 26.7406C8.23915 26.4121 10.6447 29.3202 15.1149 26.8067L21.3203 23.5551C22.0969 23.1071 22.4557 22.1522 22.0277 21.3603C21.8383 20.8667 21.1949 20.3909 20.4947 20.4255C20.4294 20.4255 20.3313 20.4255 15.6521 21.8732C15.5739 21.9007 15.5095 21.9574 15.4722 22.0314C15.435 22.1053 15.4279 22.1909 15.4523 22.27C15.4767 22.3491 15.5309 22.4157 15.6034 22.4558C15.6759 22.4959 15.761 22.5064 15.8411 22.485C18.4378 21.6812 20.3718 21.0958 20.5246 21.0651C20.9103 21.0429 21.3429 21.2878 21.5017 21.7512C21.5187 21.7913 21.5209 21.8066 21.5209 21.8092C21.5704 22.3702 21.4897 22.715 21.0123 22.9945L14.8098 26.244C10.5858 28.6192 8.37057 25.7674 3.54881 26.1032L2.76246 26.1706V19.6997C2.76246 19.6149 2.72874 19.5335 2.66873 19.4735C2.60872 19.4135 2.52733 19.3797 2.44246 19.3797H0.346672C0.261803 19.3797 0.18041 19.4135 0.120398 19.4735C0.0603865 19.5335 0.0266724 19.6149 0.0266724 19.6997V27.2176C0.0266724 27.3947 0.170032 27.5376 0.346672 27.5376V27.538Z" fill="black"/>
<path d="M13.5209 23.3179C13.3954 23.4089 13.2453 23.4595 13.0904 23.463L8.35309 23.722C8.26833 23.7265 8.18884 23.7645 8.13211 23.8276C8.07538 23.8908 8.04605 23.9738 8.05058 24.0586C8.05511 24.1434 8.09312 24.2228 8.15625 24.2796C8.21938 24.3363 8.30246 24.3656 8.38722 24.3611L13.1207 24.1026C13.4579 24.087 13.7798 23.9573 14.0337 23.7347C14.2875 23.5122 14.4581 23.2099 14.5176 22.8776L14.544 22.5439C14.5099 21.6663 13.773 21.0946 12.9782 21.1385L9.8605 21.3318C9.65997 21.348 9.45474 21.2801 9.28493 21.1509C8.13293 20.2741 7.02615 19.7258 5.88909 19.4715C5.21709 19.3529 4.49815 19.4212 3.62263 19.6891C3.54433 19.7163 3.47962 19.7727 3.44213 19.8467C3.40463 19.9206 3.39727 20.0061 3.4216 20.0854C3.44592 20.1646 3.50004 20.2313 3.57255 20.2714C3.64506 20.3116 3.73032 20.322 3.81037 20.3005C4.58434 20.0637 5.20941 20.001 5.76279 20.0987C6.79447 20.33 7.82018 20.8403 8.89751 21.6603C9.18978 21.8822 9.54562 21.9897 9.90018 21.9709L13.0183 21.7772C13.4705 21.7572 13.8703 22.072 13.9057 22.5286C13.8831 22.6096 13.9603 23.032 13.5209 23.3179ZM16.3113 18.0383H14.8691C15.0471 17.7141 15.1503 17.3301 15.2105 16.929H15.7054C15.7903 16.929 15.8717 16.8953 15.9317 16.8353C15.9917 16.7753 16.0254 16.6939 16.0254 16.609C16.0254 16.5241 15.9917 16.4427 15.9317 16.3827C15.8717 16.3227 15.7903 16.289 15.7054 16.289H15.2736C15.2886 15.9818 15.2881 15.6767 15.2796 15.3913C15.2685 15.0431 15.6854 14.8345 15.9546 15.1024C15.9841 15.133 16.0195 15.1573 16.0586 15.174C16.0976 15.1907 16.1396 15.1995 16.1821 15.1998C16.2246 15.2001 16.2667 15.1919 16.306 15.1758C16.3453 15.1596 16.381 15.1358 16.411 15.1058C16.441 15.0757 16.4647 15.0399 16.4808 15.0006C16.4968 14.9612 16.5048 14.9191 16.5044 14.8766C16.504 14.8341 16.4951 14.7921 16.4783 14.7531C16.4614 14.7141 16.437 14.6788 16.4064 14.6493C15.7357 13.9795 14.6114 14.4637 14.6396 15.4105C14.6492 15.7035 14.6466 15.9967 14.6319 16.2894H14.2688C14.1839 16.2894 14.1026 16.3231 14.0425 16.3832C13.9825 16.4432 13.9488 16.5246 13.9488 16.6094C13.9488 16.6943 13.9825 16.7757 14.0425 16.8357C14.1026 16.8957 14.1839 16.9294 14.2688 16.9294H14.5615C14.4911 17.3339 14.3695 17.7051 14.1519 17.9573C13.9087 18.2389 14.1114 18.6783 14.4843 18.6783H16.3113C16.3961 18.6783 16.4775 18.6446 16.5375 18.5846C16.5976 18.5246 16.6313 18.4432 16.6313 18.3583C16.6313 18.2735 16.5976 18.1921 16.5375 18.1321C16.4775 18.0721 16.3961 18.0383 16.3113 18.0383Z" fill="black"/>
</svg>
