<svg width="20" height="20" viewBox="0 0 20 20" fill="none" xmlns="http://www.w3.org/2000/svg">
<g clip-path="url(#clip0_673_1279)">
<path d="M1.45801 8.83301H7.70801C8.23616 8.83301 8.66699 9.26384 8.66699 9.79199V18.542C8.66684 19.0698 8.23611 19.5 7.70801 19.5H1.45801C0.930225 19.4999 0.500148 19.0698 0.5 18.542V9.79199C0.5 9.26389 0.930169 8.83316 1.45801 8.83301ZM12.292 13.833H18.542C19.0698 13.8332 19.5 14.2639 19.5 14.792V18.542C19.4999 19.0698 19.0698 19.4999 18.542 19.5H12.292C11.7639 19.5 11.3332 19.0698 11.333 18.542V14.792C11.333 14.2638 11.7638 13.833 12.292 13.833ZM1.45801 9.08301C1.31734 9.08314 1.18077 9.12526 1.06543 9.20215L0.957031 9.29102C0.824418 9.42382 0.750035 9.60431 0.75 9.79199V18.542L0.763672 18.6807C0.790921 18.8168 0.857445 18.9434 0.957031 19.043C1.05662 19.1426 1.18325 19.2091 1.31934 19.2363L1.45801 19.25H7.70801C7.89571 19.25 8.07619 19.1756 8.20898 19.043C8.3418 18.9103 8.41682 18.7298 8.41699 18.542V9.79199C8.41694 9.65111 8.3749 9.51394 8.29785 9.39844L8.20898 9.29102L8.10156 9.20215C7.98606 9.1251 7.8489 9.08306 7.70801 9.08301H1.45801ZM12.292 14.083C12.1511 14.0831 12.0139 14.1251 11.8984 14.2021L11.791 14.291C11.6582 14.4238 11.5831 14.6042 11.583 14.792V18.542L11.5967 18.6807C11.6239 18.8169 11.6913 18.9433 11.791 19.043C11.8907 19.1425 12.0171 19.2092 12.1533 19.2363L12.292 19.25H18.542C18.7297 19.2499 18.9102 19.1757 19.043 19.043C19.1757 18.9102 19.2499 18.7297 19.25 18.542V14.792L19.2363 14.6533C19.2182 14.5623 19.1824 14.4756 19.1309 14.3984L19.043 14.291L18.9346 14.2021C18.8192 14.1253 18.6827 14.0831 18.542 14.083H12.292ZM12.292 0.5H18.542C19.0698 0.500148 19.4999 0.930225 19.5 1.45801V10.208C19.5 10.7361 19.0698 11.1668 18.542 11.167H12.292C11.7638 11.167 11.333 10.7362 11.333 10.208V1.45801C11.3332 0.930169 11.7639 0.5 12.292 0.5ZM12.292 0.75C12.151 0.750026 12.014 0.792021 11.8984 0.869141L11.791 0.957031C11.6582 1.08975 11.5832 1.27025 11.583 1.45801V10.208C11.5831 10.3958 11.6582 10.5762 11.791 10.709C11.9238 10.8418 12.1042 10.9169 12.292 10.917H18.542C18.7298 10.9168 18.9102 10.8418 19.043 10.709C19.1756 10.5762 19.25 10.3957 19.25 10.208V1.45801L19.2363 1.31934C19.2182 1.22863 19.1822 1.1424 19.1309 1.06543L19.043 0.957031L18.9346 0.869141C18.8192 0.792185 18.6827 0.750105 18.542 0.75H12.292ZM1.45801 0.5H7.70801C8.23611 0.5 8.66684 0.930169 8.66699 1.45801V5.20801C8.66699 5.73616 8.23616 6.16699 7.70801 6.16699H1.45801C0.930169 6.16684 0.5 5.73611 0.5 5.20801V1.45801C0.500149 0.930226 0.930226 0.500149 1.45801 0.5ZM1.45801 0.75C1.2703 0.750141 1.08976 0.824303 0.957031 0.957031C0.824303 1.08976 0.750141 1.2703 0.75 1.45801V5.20801C0.750035 5.39569 0.824415 5.57618 0.957031 5.70898C1.05665 5.80868 1.18314 5.87605 1.31934 5.90332L1.45801 5.91699H7.70801C7.89583 5.91692 8.07618 5.84179 8.20898 5.70898C8.34179 5.57618 8.41692 5.39583 8.41699 5.20801V1.45801L8.40332 1.31934C8.37605 1.18314 8.30868 1.05665 8.20898 0.957031C8.07618 0.824415 7.89569 0.750035 7.70801 0.75H1.45801Z" fill="black" stroke="black"/>
</g>
<defs>
<clipPath id="clip0_673_1279">
<rect width="20" height="20" fill="white"/>
</clipPath>
</defs>
</svg>
