<svg width="24" height="24" viewBox="0 0 24 24" fill="none" xmlns="http://www.w3.org/2000/svg">
<path d="M21.853 17.3869C21.3076 16.7791 20.5568 16.3945 19.7449 16.3069C19.1131 16.2378 18.5267 15.9457 18.0908 15.4832C18.5079 15.101 18.8186 14.6171 18.9924 14.0788C19.1935 13.9523 19.5697 13.6572 19.6378 13.2194C19.6865 12.8756 19.6119 12.5318 19.44 12.308C19.3686 12.214 19.2843 12.1459 19.1935 12.1004C19.3135 11.974 19.3881 11.828 19.4076 11.6529C19.4141 11.6269 19.4205 11.5977 19.4205 11.5686V11.2475H19.5211C19.7254 11.2475 19.9135 11.1567 20.0432 10.9977C20.1665 10.8453 20.2184 10.6475 20.1795 10.4594C19.8778 8.93504 18.1589 7.78369 16.1838 7.78369C14.2054 7.78369 12.4897 8.93504 12.1914 10.4561C12.1524 10.6475 12.2011 10.8453 12.3243 10.9977C12.4541 11.1567 12.6422 11.2475 12.8465 11.2475H12.947V11.5653C12.947 11.5718 12.9503 11.575 12.9503 11.5815C12.9503 11.6042 12.9535 11.6237 12.96 11.6464C12.9795 11.8248 13.0476 11.9772 13.1643 12.1037C13.0768 12.1523 12.9957 12.2172 12.9308 12.3048C12.7589 12.5318 12.6843 12.8723 12.733 13.2226C12.8011 13.6572 13.1773 13.9523 13.3751 14.0788C13.5568 14.6334 13.8746 15.1167 14.2768 15.4832C14.0984 15.6745 13.8908 15.8399 13.6605 15.9696C13.3427 16.1513 12.9924 16.2648 12.6195 16.3069C10.933 16.4886 9.66162 17.9026 9.66162 19.5988V22.3783C9.66162 22.5567 9.80757 22.7026 9.98595 22.7026H22.3784C22.5568 22.7026 22.7027 22.5567 22.7027 22.3783V19.5988C22.7027 18.7848 22.4011 17.9967 21.853 17.3869ZM15.7946 18.7556L16.0768 18.454L16.1838 18.3404L16.2097 18.3664L16.573 18.7556L16.4757 18.934H15.8919L15.7946 18.7556ZM17.0043 18.2691L16.7805 18.0291L16.6573 17.8961L18.3438 16.5048C18.5351 16.6183 18.7362 16.7123 18.947 16.7837L17.0043 18.2691ZM13.5957 10.6313C13.7254 10.5372 14.2151 10.3394 15.4086 10.2777C17.0335 10.1934 18.4832 10.4204 18.7719 10.628V11.1145C17.9124 10.8453 17.0497 10.7091 16.1838 10.7091C15.3211 10.7091 14.4551 10.8453 13.5957 11.1145V10.9232V10.6313ZM13.7449 11.7534C15.36 11.2377 16.9881 11.2345 18.6032 11.7502C18.2659 11.9577 17.4162 12.1945 16.1189 12.1945C14.8476 12.1913 14.0562 11.9642 13.7449 11.7534ZM12.827 10.5859C13.0638 9.37937 14.5362 8.43234 16.1838 8.43234C17.8314 8.43234 19.3038 9.37612 19.5211 10.5988H19.4205V10.521C19.4205 10.4853 19.4141 10.4529 19.4043 10.4204C19.3492 10.2518 19.1805 9.73612 16.8065 9.62585C16.2357 9.59991 13.3622 9.5091 12.9762 10.3945C12.9568 10.4367 12.9503 10.4788 12.9503 10.5242V10.5891L12.827 10.5859ZM13.9557 13.7675C13.9265 13.6669 13.8519 13.5923 13.7578 13.5534C13.6281 13.4788 13.3978 13.2972 13.3719 13.1286C13.3395 12.8886 13.4108 12.7264 13.4627 12.681C13.547 12.7102 13.6411 12.7037 13.7222 12.6583C13.7805 12.6259 13.8195 12.5772 13.8486 12.5188C14.6205 12.801 15.6746 12.8367 16.1222 12.8367C16.4659 12.8367 17.6595 12.814 18.5092 12.5026C18.5384 12.5675 18.5805 12.6226 18.6422 12.6583C18.7232 12.7037 18.8205 12.7102 18.9049 12.6777C18.9503 12.7167 19.0249 12.8788 18.9924 13.1221C18.9665 13.2907 18.7492 13.4659 18.6162 13.5437C18.5157 13.5794 18.4378 13.6604 18.4086 13.7642C18.1038 14.841 17.1892 15.5902 16.1805 15.5902C15.1719 15.5902 14.2605 14.8442 13.9557 13.7675ZM16.1838 16.2421C16.6735 16.2421 17.1438 16.1059 17.5622 15.8659C17.64 15.9502 17.7178 16.0313 17.8054 16.1091L16.1838 17.4453L14.5622 16.1091C14.6465 16.0313 14.7276 15.9502 14.8022 15.8659C15.2205 16.1059 15.6941 16.2421 16.1838 16.2421ZM13.9816 16.534C13.9946 16.5275 14.0076 16.5145 14.0238 16.508L15.7103 17.8994L15.7005 17.9091L15.36 18.2723L13.4173 16.7902C13.6119 16.7188 13.8032 16.6345 13.9816 16.534ZM10.3103 19.5988C10.3103 18.2691 11.2832 17.1567 12.587 16.9653L15.1459 18.9177L15.36 19.3069L14.8054 22.054H10.3103V19.5988ZM15.467 22.054L15.9665 19.5826H16.4011L16.8973 22.054H15.467ZM22.0541 22.054H17.5589L17.0043 19.3102L17.2184 18.921L19.7741 16.9686C20.3903 17.0594 20.9546 17.3577 21.3697 17.8215C21.8104 18.3099 22.0542 18.9443 22.0541 19.6021V22.054Z" fill="black"/>
<path d="M11.5622 12.7103V2.62709C11.5622 1.89412 10.9654 1.29736 10.2324 1.29736H2.62703C1.89405 1.29736 1.2973 1.89412 1.2973 2.62709V12.7136C1.2973 13.4466 1.89405 14.0433 2.62703 14.0433H10.2357C10.5878 14.0408 10.9248 13.8994 11.1732 13.6498C11.4216 13.4001 11.5614 13.0625 11.5622 12.7103ZM1.94595 12.7103V2.62709C1.94595 2.25088 2.25081 1.94601 2.62703 1.94601H10.2357C10.6119 1.94601 10.9168 2.25088 10.9168 2.62709V12.7136C10.9168 12.8942 10.845 13.0674 10.7173 13.1952C10.5895 13.3229 10.4163 13.3947 10.2357 13.3947H2.62703C2.25081 13.3914 1.94595 13.0866 1.94595 12.7103Z" fill="black"/>
<path d="M9.61622 10.0673H7.1027C6.92432 10.0673 6.77838 10.2133 6.77838 10.3916C6.77838 10.57 6.92432 10.716 7.1027 10.716H9.61622C9.79459 10.716 9.94054 10.57 9.94054 10.3916C9.94054 10.2133 9.79459 10.0673 9.61622 10.0673ZM9.61622 11.2381H7.1027C6.92432 11.2381 6.77838 11.3841 6.77838 11.5625C6.77838 11.7408 6.92432 11.8868 7.1027 11.8868H9.61622C9.79459 11.8868 9.94054 11.7408 9.94054 11.5625C9.94054 11.3841 9.79459 11.2381 9.61622 11.2381ZM5.50703 9.61002L4.04757 11.0824L3.46703 10.5181C3.43679 10.4881 3.40088 10.4645 3.36138 10.4485C3.32188 10.4326 3.2796 10.4247 3.23702 10.4253C3.19443 10.4259 3.15239 10.435 3.11336 10.452C3.07433 10.4691 3.0391 10.4938 3.00973 10.5246C2.88324 10.6543 2.88649 10.8587 3.01622 10.9819L3.82703 11.7733C3.88865 11.8349 3.97297 11.8641 4.05405 11.8641C4.13838 11.8641 4.2227 11.8316 4.28432 11.7668L5.96757 10.0673C5.99778 10.0373 6.02169 10.0015 6.03791 9.96217C6.05413 9.92279 6.06233 9.88057 6.06203 9.83798C6.06173 9.7954 6.05293 9.7533 6.03615 9.71415C6.01938 9.67501 5.99496 9.63961 5.96432 9.61002C5.93432 9.57995 5.89868 9.5561 5.85945 9.53982C5.82021 9.52355 5.77815 9.51517 5.73568 9.51517C5.6932 9.51517 5.65114 9.52355 5.61191 9.53982C5.57267 9.5561 5.53703 9.57995 5.50703 9.61002ZM5.50703 6.58083L4.04757 8.05326L3.46703 7.48894C3.4366 7.45929 3.40062 7.43594 3.36115 7.42022C3.32169 7.4045 3.27951 7.39672 3.23703 7.39732C3.19455 7.39792 3.15261 7.4069 3.11361 7.42373C3.07461 7.44056 3.0393 7.46493 3.00973 7.49542C2.88324 7.62515 2.88649 7.82948 3.01622 7.95272L3.82703 8.74083C3.88865 8.80245 3.97297 8.83164 4.05405 8.83164C4.13838 8.83164 4.2227 8.79921 4.28432 8.73434L5.96757 7.03488C5.99778 7.00486 6.02169 6.96912 6.03791 6.92974C6.05413 6.89036 6.06233 6.84814 6.06203 6.80555C6.06173 6.76296 6.05293 6.72087 6.03615 6.68172C6.01938 6.64258 5.99496 6.60717 5.96432 6.57759C5.9343 6.54738 5.89856 6.52346 5.85918 6.50724C5.8198 6.49102 5.77758 6.48282 5.73499 6.48312C5.69241 6.48343 5.65031 6.49222 5.61116 6.509C5.57202 6.52578 5.53661 6.5502 5.50703 6.58083ZM3.82703 5.7084C3.88865 5.77002 3.97297 5.79921 4.05405 5.79921C4.13838 5.79921 4.2227 5.76677 4.28432 5.70191L5.96757 4.00245C5.99778 3.97243 6.02169 3.93668 6.03791 3.89731C6.05413 3.85793 6.06233 3.81571 6.06203 3.77312C6.06173 3.73053 6.05293 3.68843 6.03615 3.64929C6.01938 3.61014 5.99496 3.57474 5.96432 3.54515C5.9343 3.51494 5.89856 3.49103 5.85918 3.47481C5.8198 3.45859 5.77758 3.45039 5.73499 3.45069C5.69241 3.45099 5.65031 3.45979 5.61116 3.47657C5.57202 3.49334 5.53661 3.51776 5.50703 3.5484L4.04757 5.02083L3.46703 4.4565C3.4366 4.42686 3.40062 4.40351 3.36115 4.38779C3.32169 4.37207 3.27951 4.36428 3.23703 4.36489C3.19455 4.36549 3.15261 4.37446 3.11361 4.3913C3.07461 4.40813 3.0393 4.43249 3.00973 4.46299C2.88324 4.59272 2.88649 4.79704 3.01622 4.92029L3.82703 5.7084ZM9.61622 6.8338H7.1027C6.92432 6.8338 6.77838 6.97975 6.77838 7.15813C6.77838 7.3365 6.92432 7.48245 7.1027 7.48245H9.61622C9.79459 7.48245 9.94054 7.3365 9.94054 7.15813C9.94054 6.97975 9.79459 6.8338 9.61622 6.8338ZM9.61622 8.00461H7.1027C6.92432 8.00461 6.77838 8.15056 6.77838 8.32894C6.77838 8.50731 6.92432 8.65326 7.1027 8.65326H9.61622C9.79459 8.65326 9.94054 8.50731 9.94054 8.32894C9.94054 8.15056 9.79459 8.00461 9.61622 8.00461ZM9.61622 3.60353H7.1027C6.92432 3.60353 6.77838 3.74948 6.77838 3.92786C6.77838 4.10623 6.92432 4.25218 7.1027 4.25218H9.61622C9.79459 4.25218 9.94054 4.10623 9.94054 3.92786C9.94054 3.74948 9.79459 3.60353 9.61622 3.60353ZM9.61622 4.7711H7.1027C6.92432 4.7711 6.77838 4.91704 6.77838 5.09542C6.77838 5.2738 6.92432 5.41975 7.1027 5.41975H9.61622C9.79459 5.41975 9.94054 5.2738 9.94054 5.09542C9.94054 4.91704 9.79459 4.7711 9.61622 4.7711Z" fill="black"/>
</svg>
