<svg width="32" height="32" viewBox="0 0 32 32" fill="none" xmlns="http://www.w3.org/2000/svg">
<g clip-path="url(#clip0_165_2155)">
<path d="M25.8754 9.29688C26.2206 9.29688 26.5004 9.01706 26.5004 8.67188V1.875C26.5004 0.841125 25.6593 0 24.6254 0H1.87543C0.841552 0 0.000427246 0.841125 0.000427246 1.875V30.125C0.000427246 31.1589 0.841552 32 1.87543 32H24.6254C25.6593 32 26.5004 31.1589 26.5004 30.125V25.5205C26.5004 25.1753 26.2206 24.8955 25.8754 24.8955C25.5303 24.8955 25.2504 25.1753 25.2504 25.5205V30.125C25.2504 30.4696 24.9701 30.75 24.6254 30.75H1.87543C1.5308 30.75 1.25043 30.4696 1.25043 30.125V1.875C1.25043 1.53038 1.5308 1.25 1.87543 1.25H24.6254C24.9701 1.25 25.2504 1.53038 25.2504 1.875V8.67188C25.2504 9.01706 25.5303 9.29688 25.8754 9.29688Z" fill="black"/>
<path d="M13.2504 3.375C10.0799 3.375 7.50044 5.95444 7.50044 9.125C7.50044 10.7698 8.19482 12.2553 9.30557 13.3043C9.32638 13.3266 9.34851 13.3476 9.37269 13.3668C10.3959 14.303 11.7576 14.8749 13.2504 14.8749C14.7432 14.8749 16.1049 14.3029 17.1281 13.3668C17.1519 13.3477 17.1744 13.3268 17.1952 13.3043C18.3061 12.2553 19.0004 10.7698 19.0004 9.125C19.0004 5.95444 16.421 3.375 13.2504 3.375ZM13.2504 13.625C12.2299 13.625 11.288 13.283 10.5323 12.7083C11.0816 11.7342 12.1066 11.125 13.2504 11.125C14.3943 11.125 15.4193 11.7342 15.9686 12.7083C15.2128 13.283 14.271 13.625 13.2504 13.625ZM12.2504 8.875V8.46875C12.2504 7.91738 12.6991 7.46875 13.2504 7.46875C13.8018 7.46875 14.2504 7.91738 14.2504 8.46875V8.875C14.2504 9.42637 13.8018 9.875 13.2504 9.875C12.6991 9.875 12.2504 9.42637 12.2504 8.875ZM16.8717 11.7927C16.4155 11.115 15.7772 10.5799 15.0303 10.2491C15.3246 9.86869 15.5004 9.39213 15.5004 8.875V8.46875C15.5004 7.22806 14.4911 6.21875 13.2504 6.21875C12.0098 6.21875 11.0004 7.22806 11.0004 8.46875V8.875C11.0004 9.39213 11.1763 9.86869 11.4706 10.2491C10.7237 10.5799 10.0853 11.115 9.62919 11.7927C9.07738 11.0456 8.75044 10.1229 8.75044 9.125C8.75044 6.64369 10.7691 4.625 13.2504 4.625C15.7318 4.625 17.7504 6.64369 17.7504 9.125C17.7504 10.1229 17.4235 11.0456 16.8717 11.7927ZM16.6254 27.375H13.2504C12.9053 27.375 12.6254 27.6548 12.6254 28C12.6254 28.3452 12.9053 28.625 13.2504 28.625H16.6254C16.9706 28.625 17.2504 28.3452 17.2504 28C17.2504 27.6548 16.9706 27.375 16.6254 27.375ZM16.6254 23.875H7.75044C7.40532 23.875 7.12544 24.1548 7.12544 24.5C7.12544 24.8452 7.40532 25.125 7.75044 25.125H16.6254C16.9706 25.125 17.2504 24.8452 17.2504 24.5C17.2504 24.1548 16.9706 23.875 16.6254 23.875ZM16.6254 20.375H7.75044C7.40532 20.375 7.12544 20.6548 7.12544 21C7.12544 21.3452 7.40532 21.625 7.75044 21.625H16.6254C16.9706 21.625 17.2504 21.3452 17.2504 21C17.2504 20.6548 16.9706 20.375 16.6254 20.375ZM5.52288 17.0581C5.40526 16.9412 5.24628 16.8754 5.08044 16.875C4.91601 16.875 4.75476 16.9419 4.63857 17.0581C4.52232 17.1744 4.45544 17.3356 4.45544 17.5C4.45544 17.6644 4.52226 17.8256 4.63857 17.9419C4.75611 18.0586 4.91482 18.1243 5.08044 18.125C5.24544 18.125 5.40607 18.0581 5.52288 17.9419C5.63913 17.8256 5.70607 17.6644 5.70607 17.5C5.70607 17.3356 5.63919 17.1744 5.52288 17.0581ZM5.52288 20.5581C5.40519 20.4413 5.24626 20.3755 5.08044 20.375C4.91601 20.375 4.75544 20.4419 4.63857 20.5581C4.52232 20.6744 4.45544 20.8356 4.45544 21C4.45544 21.1644 4.52226 21.3256 4.63857 21.4419C4.75611 21.5586 4.91482 21.6243 5.08044 21.625C5.24544 21.625 5.40607 21.5581 5.52288 21.4419C5.63913 21.3256 5.70607 21.1644 5.70607 21C5.70607 20.8356 5.63919 20.6744 5.52288 20.5581ZM5.52288 24.0581C5.40519 23.9413 5.24626 23.8755 5.08044 23.875C4.91601 23.875 4.75544 23.9419 4.63857 24.0581C4.52232 24.1744 4.45544 24.3356 4.45544 24.5C4.45544 24.6644 4.52226 24.8256 4.63857 24.9419C4.75603 25.0587 4.9148 25.1245 5.08044 25.125C5.24544 25.125 5.40669 25.0581 5.52288 24.9419C5.63913 24.8256 5.70607 24.6644 5.70607 24.5C5.70607 24.3356 5.63919 24.1744 5.52288 24.0581ZM16.6254 16.875H7.75044C7.40532 16.875 7.12544 17.1548 7.12544 17.5C7.12544 17.8452 7.40532 18.125 7.75044 18.125H16.6254C16.9706 18.125 17.2504 17.8452 17.2504 17.5C17.2504 17.1548 16.9706 16.875 16.6254 16.875ZM30.6876 8.145C30.0804 7.79444 29.3731 7.70131 28.6957 7.88275C28.0184 8.06425 27.4523 8.49862 27.1018 9.10581L19.2367 22.7285C19.1936 22.8032 19.1664 22.886 19.1568 22.9717L18.6032 27.9307C18.5935 28.0181 18.6023 28.1065 18.6291 28.1902C18.6558 28.274 18.7 28.3511 18.7586 28.4166C18.8172 28.4822 18.889 28.5346 18.9692 28.5705C19.0494 28.6064 19.1363 28.625 19.2243 28.6251C19.3577 28.6251 19.4876 28.5825 19.5949 28.5033L23.6127 25.5443C23.6821 25.4932 23.7402 25.4283 23.7833 25.3536L31.6484 11.7309C32.3721 10.4774 31.9411 8.86875 30.6876 8.145ZM20.0039 26.6496L20.2931 24.0601L22.1019 25.1045L20.0039 26.6496ZM23.0133 24.1873L20.6318 22.8123L26.9433 11.8804L29.3249 13.2554L23.0133 24.1873ZM30.5659 11.1058L29.9498 12.1729L27.5683 10.7979L28.1843 9.73081C28.2742 9.57413 28.3943 9.43684 28.5376 9.32687C28.6809 9.21691 28.8446 9.13646 29.0192 9.09019C29.1936 9.04294 29.3755 9.03075 29.5546 9.05433C29.7337 9.07791 29.9064 9.13679 30.0626 9.22756C30.2192 9.31745 30.3565 9.43752 30.4665 9.58083C30.5765 9.72414 30.6569 9.88783 30.7032 10.0624C30.7504 10.2368 30.7626 10.4188 30.739 10.5979C30.7155 10.777 30.6566 10.9496 30.5659 11.1058Z" fill="black"/>
</g>
<defs>
<clipPath id="clip0_165_2155">
<rect width="32" height="32" fill="white"/>
</clipPath>
</defs>
</svg>
