<svg width="32" height="32" viewBox="0 0 32 32" fill="none" xmlns="http://www.w3.org/2000/svg">
<path d="M16 10C15.3078 10 14.6311 9.79473 14.0555 9.41015C13.4799 9.02556 13.0313 8.47894 12.7664 7.83939C12.5015 7.19985 12.4322 6.49612 12.5673 5.81719C12.7023 5.13825 13.0356 4.51461 13.5251 4.02513C14.0146 3.53564 14.6383 3.2023 15.3172 3.06725C15.9961 2.9322 16.6999 3.00152 17.3394 3.26642C17.9789 3.53133 18.5256 3.97993 18.9101 4.55551C19.2947 5.13108 19.5 5.80777 19.5 6.5C19.4989 7.42793 19.1299 8.31756 18.4737 8.97371C17.8176 9.62985 16.9279 9.99894 16 10ZM16 4C15.5055 4 15.0222 4.14662 14.6111 4.42133C14.2 4.69603 13.8795 5.08648 13.6903 5.54329C13.5011 6.00011 13.4516 6.50277 13.548 6.98773C13.6445 7.47268 13.8826 7.91814 14.2322 8.26777C14.5819 8.6174 15.0273 8.8555 15.5123 8.95196C15.9972 9.04843 16.4999 8.99892 16.9567 8.8097C17.4135 8.62048 17.804 8.30005 18.0787 7.88893C18.3534 7.4778 18.5 6.99445 18.5 6.5C18.4992 5.8372 18.2356 5.20178 17.7669 4.73311C17.2982 4.26444 16.6628 4.0008 16 4Z" fill="black"/>
<path d="M20 15.5H19V13C19.0007 12.8688 19.0529 12.7431 19.1455 12.65L25.823 5.92851C25.9361 5.81461 25.9996 5.66057 25.9996 5.50001C25.9996 5.33946 25.9361 5.18542 25.823 5.07151C25.7166 4.96536 25.5742 4.90302 25.424 4.89681C25.2738 4.89061 25.1268 4.941 25.012 5.03801L21.589 7.94651C20.0285 9.27219 18.0476 10 16 10C13.9524 10 11.9715 9.27219 10.411 7.94651L6.98798 5.03801C6.86904 4.93606 6.71507 4.88445 6.55871 4.89411C6.40235 4.90378 6.25591 4.97396 6.15043 5.08978C6.04495 5.2056 5.98872 5.35795 5.99368 5.51453C5.99864 5.67111 6.06438 5.8196 6.17698 5.92851L12.8545 12.65C12.947 12.7431 12.9993 12.8688 13 13V15.5H12V13.2065L5.46798 6.63401C5.1754 6.34171 5.00711 5.94764 4.99829 5.53416C4.98947 5.12068 5.1408 4.71979 5.42065 4.41528C5.7005 4.11077 6.08721 3.9262 6.49997 3.90016C6.91272 3.87411 7.31957 4.0086 7.63548 4.27551L11.0585 7.18451C12.4382 8.35659 14.1896 9.00009 16 9.00009C17.8103 9.00009 19.5618 8.35659 20.9415 7.18451L24.3645 4.27551C24.6804 4.0086 25.0872 3.87411 25.5 3.90016C25.9127 3.9262 26.2995 4.11077 26.5793 4.41528C26.8592 4.71979 27.0105 5.12068 27.0017 5.53416C26.9929 5.94764 26.8246 6.34171 26.532 6.63401L20 13.2065V15.5ZM16 29C11.911 29 10.7635 27.971 10.6465 27.8535C10.5527 27.7598 10.5 27.6326 10.5 27.5V25.5C10.501 24.5721 10.8701 23.6825 11.5263 23.0263C12.1824 22.3702 13.072 22.0011 14 22H18C18.9279 22.0011 19.8175 22.3702 20.4737 23.0263C21.1298 23.6825 21.4989 24.5721 21.5 25.5V27.5C21.5 27.6326 21.4473 27.7598 21.3535 27.8535C21.2365 27.971 20.089 29 16 29ZM11.5 27.2425C11.8885 27.4655 13.119 28 16 28C18.868 28 20.1 27.47 20.5 27.24V25.5C20.4992 24.8372 20.2355 24.2018 19.7669 23.7331C19.2982 23.2645 18.6628 23.0008 18 23H14C13.3372 23.0008 12.7018 23.2645 12.2331 23.7331C11.7644 24.2018 11.5008 24.8372 11.5 25.5V27.2425Z" fill="black"/>
<path d="M16 23C15.3078 23 14.6311 22.7947 14.0555 22.4101C13.4799 22.0256 13.0313 21.4789 12.7664 20.8394C12.5015 20.1999 12.4322 19.4961 12.5673 18.8172C12.7023 18.1383 13.0356 17.5146 13.5251 17.0251C14.0146 16.5356 14.6383 16.2023 15.3172 16.0673C15.9961 15.9322 16.6999 16.0015 17.3394 16.2664C17.9789 16.5313 18.5256 16.9799 18.9101 17.5555C19.2947 18.1311 19.5 18.8078 19.5 19.5C19.4989 20.4279 19.1299 21.3176 18.4737 21.9737C17.8176 22.6299 16.9279 22.9989 16 23ZM16 17C15.5055 17 15.0222 17.1466 14.6111 17.4213C14.2 17.696 13.8795 18.0865 13.6903 18.5433C13.5011 19.0001 13.4516 19.5028 13.548 19.9877C13.6445 20.4727 13.8826 20.9181 14.2322 21.2678C14.5819 21.6174 15.0273 21.8555 15.5123 21.952C15.9972 22.0484 16.4999 21.9989 16.9567 21.8097C17.4135 21.6205 17.804 21.3001 18.0787 20.8889C18.3534 20.4778 18.5 19.9945 18.5 19.5C18.4992 18.8372 18.2356 18.2018 17.7669 17.7331C17.2982 17.2644 16.6628 17.0008 16 17ZM25.5 27.5C24.463 27.512 23.4272 27.4272 22.406 27.2465L22.594 26.2645C23.5533 26.4328 24.5261 26.5117 25.5 26.5C28.368 26.5 29.6 25.97 30 25.74V24C29.9992 23.3372 29.7356 22.7018 29.2669 22.2331C28.7982 21.7644 28.1628 21.5008 27.5 21.5H23.5C23.0874 21.4997 22.6811 21.6017 22.3175 21.7968C21.9539 21.9919 21.6444 22.274 21.4165 22.618L20.5835 22.0645C20.9025 21.583 21.3358 21.1881 21.8448 20.9151C22.3537 20.6421 22.9224 20.4995 23.5 20.5H27.5C28.4279 20.5011 29.3176 20.8701 29.9737 21.5263C30.6299 22.1824 30.9989 23.0721 31 24V26C31 26.1326 30.9473 26.2598 30.8535 26.3535C30.7365 26.471 29.589 27.5 25.5 27.5Z" fill="black"/>
<path d="M25.5 21.5C24.8078 21.5 24.1311 21.2947 23.5555 20.9101C22.9799 20.5256 22.5313 19.9789 22.2664 19.3394C22.0015 18.6999 21.9322 17.9961 22.0673 17.3172C22.2023 16.6383 22.5356 16.0146 23.0251 15.5251C23.5146 15.0356 24.1383 14.7023 24.8172 14.5673C25.4961 14.4322 26.1999 14.5015 26.8394 14.7664C27.4789 15.0313 28.0256 15.4799 28.4101 16.0555C28.7947 16.6311 29 17.3078 29 18C28.9989 18.9279 28.6299 19.8176 27.9737 20.4737C27.3176 21.1299 26.4279 21.4989 25.5 21.5ZM25.5 15.5C25.0055 15.5 24.5222 15.6466 24.1111 15.9213C23.7 16.196 23.3795 16.5865 23.1903 17.0433C23.0011 17.5001 22.9516 18.0028 23.048 18.4877C23.1445 18.9727 23.3826 19.4181 23.7322 19.7678C24.0819 20.1174 24.5273 20.3555 25.0123 20.452C25.4972 20.5484 25.9999 20.4989 26.4567 20.3097C26.9135 20.1205 27.304 19.8001 27.5787 19.3889C27.8534 18.9778 28 18.4945 28 18C27.9992 17.3372 27.7356 16.7018 27.2669 16.2331C26.7982 15.7644 26.1628 15.5008 25.5 15.5ZM6.5 27.5C2.411 27.5 1.2635 26.471 1.1465 26.3535C1.05273 26.2598 1.00003 26.1326 1 26V24C1.00106 23.0721 1.37015 22.1824 2.0263 21.5263C2.68244 20.8701 3.57207 20.5011 4.5 20.5H8.5C9.07756 20.4995 9.64625 20.6421 10.1552 20.9151C10.6642 21.1881 11.0975 21.583 11.4165 22.0645L10.5835 22.618C10.3556 22.274 10.0461 21.9919 9.68247 21.7968C9.31889 21.6017 8.91262 21.4997 8.5 21.5H4.5C3.8372 21.5008 3.20178 21.7644 2.73311 22.2331C2.26444 22.7018 2.00079 23.3372 2 24V25.7425C2.3885 25.9655 3.619 26.5 6.5 26.5C7.47387 26.5117 8.44672 26.4328 9.406 26.2645L9.594 27.2465C8.57281 27.4272 7.53698 27.512 6.5 27.5Z" fill="black"/>
<path d="M6.5 21.5C5.80777 21.5 5.13108 21.2947 4.55551 20.9101C3.97993 20.5256 3.53133 19.9789 3.26642 19.3394C3.00152 18.6999 2.9322 17.9961 3.06725 17.3172C3.2023 16.6383 3.53564 16.0146 4.02513 15.5251C4.51461 15.0356 5.13825 14.7023 5.81719 14.5673C6.49612 14.4322 7.19985 14.5015 7.83939 14.7664C8.47894 15.0313 9.02556 15.4799 9.41015 16.0555C9.79473 16.6311 10 17.3078 10 18C9.99894 18.9279 9.62985 19.8176 8.97371 20.4737C8.31756 21.1299 7.42793 21.4989 6.5 21.5ZM6.5 15.5C6.00555 15.5 5.5222 15.6466 5.11108 15.9213C4.69995 16.196 4.37952 16.5865 4.1903 17.0433C4.00108 17.5001 3.95158 18.0028 4.04804 18.4877C4.1445 18.9727 4.3826 19.4181 4.73223 19.7678C5.08187 20.1174 5.52732 20.3555 6.01228 20.452C6.49723 20.5484 6.99989 20.4989 7.45671 20.3097C7.91353 20.1205 8.30397 19.8001 8.57868 19.3889C8.85338 18.9778 9 18.4945 9 18C8.99921 17.3372 8.73556 16.7018 8.26689 16.2331C7.79822 15.7644 7.1628 15.5008 6.5 15.5Z" fill="black"/>
</svg>
