<svg width="25" height="30" viewBox="0 0 25 30" fill="none" xmlns="http://www.w3.org/2000/svg">
<path fill-rule="evenodd" clip-rule="evenodd" d="M14.3806 18.3013V14.8645C14.3806 14.6276 14.1885 14.4352 13.9516 14.4352C13.7146 14.4352 13.5223 14.6276 13.5223 14.8645V18.489C13.5223 18.608 13.5718 18.7227 13.66 18.804L16.9681 21.8665C17.1418 22.0276 17.4138 22.0171 17.575 21.843C17.6522 21.7594 17.6931 21.6485 17.6886 21.5348C17.6842 21.421 17.6347 21.3137 17.5511 21.2364L14.3806 18.3013ZM20.2693 18.9184C20.0577 22.0683 17.5312 24.5952 14.3805 24.8071V23.9423C14.3805 23.7053 14.1884 23.513 13.9515 23.513C13.7146 23.513 13.5222 23.7053 13.5222 23.9423V24.8071C10.3715 24.5951 7.84539 22.0683 7.63342 18.9184H8.49825C8.61207 18.9184 8.72123 18.8732 8.80171 18.7927C8.88219 18.7122 8.9274 18.6031 8.9274 18.4892C8.9274 18.3754 8.88219 18.2663 8.80171 18.1858C8.72123 18.1053 8.61207 18.0601 8.49825 18.0601H7.63342C7.84539 14.9094 10.3715 12.3829 13.5222 12.1706V13.0354C13.5222 13.2724 13.7146 13.4648 13.9515 13.4648C14.1884 13.4648 14.3805 13.2723 14.3805 13.0354V12.1706C17.5312 12.3829 20.0576 14.9094 20.2693 18.0601H19.4052C19.3488 18.06 19.293 18.071 19.2409 18.0925C19.1887 18.1141 19.1414 18.1456 19.1015 18.1855C19.0616 18.2253 19.03 18.2727 19.0084 18.3248C18.9869 18.3769 18.9758 18.4327 18.9759 18.4891C18.9758 18.5455 18.9869 18.6013 19.0085 18.6534C19.0301 18.7055 19.0617 18.7529 19.1016 18.7927C19.1414 18.8326 19.1888 18.8642 19.2409 18.8858C19.293 18.9073 19.3488 18.9184 19.4052 18.9184H20.2693ZM6.85044 17.3501C7.20596 15.1246 8.58619 13.2362 10.4909 12.1862C10.2689 10.9752 9.7604 10.3496 9.05748 9.40799C8.52468 8.69439 7.925 7.88959 7.47726 7.05337H4.06574C3.51745 8.03116 2.53928 9.28626 1.81928 10.3292C0.733899 11.9014 0.670923 14.1286 1.77115 15.7011C2.81787 17.1974 5.05857 17.6506 6.85044 17.3501ZM4.18401 2.77701C4.4347 3.33548 4.69294 3.91129 4.7403 4.56959H6.80916C6.86721 3.85535 7.24654 3.0046 7.50868 2.25151C7.33658 2.3084 7.15991 2.35039 6.98062 2.37701C5.66292 2.57017 5.3602 1.98757 4.56302 1.7509C4.38216 1.69701 4.13768 1.6558 3.77524 1.75129C3.88417 2.10898 4.03572 2.44716 4.18401 2.77701ZM4.47412 6.19506H7.08411C6.98824 5.9397 6.91342 5.68402 6.8642 5.42789H4.69044C4.64411 5.68613 4.57102 5.94079 4.47412 6.19506ZM13.4412 11.3155C13.7973 11.2911 14.1056 11.2911 14.4612 11.3155V9.87673H13.4412V11.3155ZM11.9597 9.01804H15.9431V8.25989H11.9597V9.01804ZM21.1428 18.489C21.1428 22.4543 17.9172 25.6802 13.9516 25.6802C9.88347 25.6802 6.61147 22.2838 6.76545 18.2322C4.69307 18.5138 2.26772 17.9083 1.06766 16.1933C-0.23826 14.3269 -0.175605 11.7106 1.11284 9.84236C1.41128 9.40978 1.69953 9.0101 1.978 8.6245C3.1076 7.06124 3.92283 5.93209 3.88884 4.72185C3.86068 3.73017 3.08923 2.79237 2.84174 1.5621C2.82227 1.46514 2.83682 1.36442 2.88294 1.27693C2.92905 1.18944 3.00392 1.12052 3.09492 1.08178C4.11342 0.649015 4.77371 0.827063 5.60328 1.27743C5.98158 1.48357 6.23188 1.61925 6.85582 1.52773C7.19329 1.47781 7.55572 1.34002 7.96187 1.10457C8.27937 0.921591 8.67112 1.19801 8.597 1.5621C8.4914 2.08511 8.29608 2.60921 8.10728 3.11705C7.8834 3.71781 7.67214 4.28569 7.65985 4.72191C7.61288 6.37465 9.418 8.36774 10.4355 9.84242C10.8395 10.428 11.1295 11.0993 11.2894 11.8086C11.7076 11.6414 12.1407 11.5141 12.5829 11.4284V9.87673H11.5304C11.4166 9.87664 11.3075 9.83137 11.227 9.75087C11.1466 9.67037 11.1014 9.56122 11.1014 9.44742V7.83065C11.1013 7.77428 11.1124 7.71845 11.1339 7.66635C11.1554 7.61425 11.187 7.56692 11.2269 7.52704C11.2667 7.48717 11.314 7.45554 11.3661 7.43397C11.4182 7.4124 11.474 7.40131 11.5304 7.40134H16.3724C16.4288 7.40124 16.4846 7.41228 16.5368 7.43383C16.5889 7.45537 16.6363 7.48699 16.6761 7.52687C16.716 7.56675 16.7476 7.61412 16.7692 7.66625C16.7907 7.71837 16.8018 7.77424 16.8017 7.83065V9.44742C16.8017 9.5038 16.7906 9.55964 16.7691 9.61175C16.7475 9.66385 16.7159 9.71119 16.676 9.75106C16.6361 9.79093 16.5888 9.82255 16.5367 9.84412C16.4846 9.86568 16.4288 9.87676 16.3724 9.87673H15.3198V11.4284C18.633 12.0693 21.1428 14.9911 21.1428 18.489ZM24.8147 22.6792C24.6866 22.4792 24.4204 22.4221 24.2211 22.5501L23.6775 22.8999C25.0852 19.8038 24.9241 16.1806 23.238 13.217C22.3566 11.6671 21.0888 10.3502 19.5722 9.40985C19.3708 9.28434 19.1064 9.34694 18.9809 9.54841C18.9512 9.59628 18.9312 9.64954 18.9221 9.70513C18.913 9.76073 18.9149 9.81758 18.9277 9.87243C18.9406 9.92728 18.9641 9.97906 18.997 10.0248C19.0299 10.0706 19.0715 10.1094 19.1194 10.1391C22.0314 11.9454 23.7701 15.0668 23.7701 18.4891C23.7701 20.0397 23.4098 21.5483 22.7186 22.9127L22.5866 21.9936C22.5529 21.7588 22.3352 21.5965 22.1005 21.6301C21.9878 21.6464 21.8862 21.7068 21.818 21.7979C21.7498 21.889 21.7205 22.0035 21.7366 22.1162L22.044 24.247C22.078 24.4862 22.3022 24.6506 22.5345 24.6119C22.5345 24.6209 22.6531 24.5809 22.7095 24.5439L24.6858 23.2722C24.8852 23.1437 24.9431 22.8782 24.8147 22.6792ZM20.4302 25.8658C20.6081 25.7092 20.8794 25.7269 21.0364 25.9048C21.1115 25.9903 21.1495 26.1021 21.1422 26.2157C21.1349 26.3292 21.0828 26.4352 20.9974 26.5103C19.0496 28.2224 16.5449 29.1665 13.9516 29.1659C9.50964 29.1659 5.55092 26.4175 3.97288 22.2904L3.74932 23.0905C3.68494 23.3191 3.44801 23.4525 3.21979 23.3882C3.11019 23.3575 3.01726 23.2846 2.96144 23.1854C2.90561 23.0862 2.89147 22.9689 2.92212 22.8593L3.54062 20.6512C3.62056 20.3618 3.9627 20.2333 4.20827 20.4111L5.93755 21.8715C6.11912 22.0242 6.14152 22.2951 5.98856 22.4763C5.83592 22.6571 5.56462 22.6803 5.38382 22.5269L4.78452 22.0202C6.21825 25.7832 9.81064 28.3074 13.9516 28.3074C16.3362 28.3082 18.6393 27.4401 20.4302 25.8658ZM7.7268 13.2437C7.70561 12.8877 7.51681 12.3537 6.79329 12.0396C6.03361 11.7098 5.66222 11.9496 5.12264 11.7058C4.73998 11.5227 4.70702 11.347 4.70273 11.2656C4.70491 10.8783 5.39028 10.6823 5.78203 10.6883C6.28801 10.7039 6.72027 10.8022 7.10292 10.9889C7.3163 11.0923 7.57345 11.0037 7.67694 10.7906C7.78075 10.5773 7.69179 10.3201 7.47912 10.2166C7.09172 10.0278 6.67144 9.90917 6.20379 9.85785V9.6437C6.20385 9.58733 6.19281 9.5315 6.17128 9.47941C6.14974 9.42731 6.11815 9.37997 6.07831 9.3401C6.03846 9.30022 5.99115 9.2686 5.93907 9.24703C5.88699 9.22546 5.83117 9.21437 5.7748 9.21439C5.71837 9.2143 5.66249 9.22534 5.61034 9.24687C5.55819 9.26841 5.5108 9.30002 5.47088 9.3399C5.43097 9.37978 5.39931 9.42714 5.37773 9.47927C5.35615 9.5314 5.34506 9.58728 5.3451 9.6437V9.86617C4.46849 10.0099 3.83265 10.5676 3.84372 11.276C3.85761 12.1658 4.83438 12.6924 5.77518 12.6953C6.01108 12.696 6.23649 12.7325 6.45153 12.8276C7.02305 13.0859 6.97915 13.4791 6.45518 13.7105C5.84372 13.9784 4.99892 13.8032 4.4315 13.5398C4.32812 13.492 4.20997 13.487 4.10297 13.5262C3.99597 13.5653 3.90886 13.6453 3.86075 13.7485C3.76129 13.963 3.8539 14.2184 4.06907 14.3182C4.47203 14.5063 4.90308 14.6271 5.3451 14.6759V14.8886C5.34513 14.945 5.35626 15.0008 5.37787 15.0529C5.39949 15.105 5.43115 15.1523 5.47105 15.1921C5.51096 15.2319 5.55832 15.2635 5.61044 15.2851C5.66256 15.3066 5.71841 15.3176 5.7748 15.3176C5.83113 15.3176 5.88692 15.3065 5.93896 15.2849C5.99101 15.2633 6.0383 15.2317 6.07814 15.1919C6.11797 15.1521 6.14957 15.1048 6.17113 15.0527C6.19269 15.0007 6.20379 14.9449 6.20379 14.8886V14.6687C7.08104 14.5286 7.68161 14.0107 7.72686 13.2996C7.72789 13.281 7.72787 13.2623 7.7268 13.2437Z" fill="black"/>
</svg>
