<svg width="32" height="32" viewBox="0 0 32 32" fill="none" xmlns="http://www.w3.org/2000/svg">
<path d="M26.7076 10.1777C26.6677 10.1644 26.6256 10.1591 26.5837 10.1622C26.5417 10.1652 26.5008 10.1764 26.4632 10.1953C26.4257 10.2142 26.3922 10.2403 26.3647 10.2721C26.3372 10.3039 26.3163 10.3409 26.3031 10.3808C25.2604 13.5415 24.4698 12.1711 23.3557 13.9093L22.2353 15.9804C22.1378 16.1661 21.9832 16.3157 21.7944 16.407C21.6055 16.4983 21.3923 16.5266 21.1861 16.4877C20.6131 16.3853 20.1941 15.6996 20.5171 15.0912L21.8679 12.573C22.3471 11.5883 21.9473 10.3778 20.9779 9.87562C19.9629 9.34229 18.7345 9.78346 18.2387 10.714L15.8554 14.6539C15.5669 15.078 14.9453 15.264 14.4213 14.8501C14.0429 14.5638 13.9648 13.9895 14.2473 13.5701C14.275 13.5287 17.0675 9.38965 17.4899 8.8384C17.5155 8.80508 17.5342 8.76705 17.545 8.72648C17.5558 8.68592 17.5586 8.64362 17.553 8.602C17.5475 8.56038 17.5338 8.52027 17.5127 8.48396C17.4916 8.44765 17.4636 8.41585 17.4302 8.3904C17.3969 8.36482 17.3589 8.34607 17.3183 8.33521C17.2778 8.32435 17.2355 8.32159 17.1939 8.3271C17.1523 8.33261 17.1121 8.34627 17.0758 8.36731C17.0395 8.38835 17.0077 8.41635 16.9822 8.4497C16.8478 8.62464 16.4941 9.13237 16.067 9.75402C11.8929 11.4423 12.0384 11.5004 11.6523 11.4692C11.4845 11.4552 11.3237 11.3958 11.1871 11.2973C11.0505 11.1988 10.9433 11.065 10.877 10.9103C10.7855 10.6852 10.7866 10.433 10.8801 10.2087C10.9736 9.98443 11.1519 9.80613 11.3762 9.71264L16.2001 7.71797C16.2786 7.68561 16.341 7.62339 16.3736 7.54502C16.4062 7.46664 16.4063 7.37852 16.374 7.30005C16.3416 7.22157 16.2794 7.15917 16.201 7.12656C16.1226 7.09395 16.0345 7.09382 15.9561 7.12618L13.0624 8.32298L11.8097 8.29056C11.3054 8.2769 10.9035 7.8545 10.912 7.37109L10.9184 7.30154C10.9568 6.81813 11.3813 6.44095 11.8519 6.46186C14.2942 6.52245 17.1665 6.59157 17.1196 6.59029H17.1277C17.2125 6.59131 17.2943 6.55857 17.3551 6.49928C17.4158 6.43999 17.4505 6.359 17.4515 6.27413C17.4525 6.18926 17.4198 6.10746 17.3605 6.04673C17.3012 5.986 17.2202 5.95131 17.1354 5.95029L13.7813 5.86837C13.6725 5.26506 14.1935 4.77269 14.72 4.80469C14.883 4.84181 17.8419 5.67679 19.8306 6.23701C21.0953 6.43455 23.104 5.37855 24.2581 4.76501C24.2968 4.74621 24.3312 4.71982 24.3595 4.68741C24.3877 4.655 24.4091 4.61724 24.4224 4.57638C24.4357 4.53552 24.4407 4.49239 24.437 4.44958C24.4332 4.40676 24.4209 4.36514 24.4008 4.32718C24.3806 4.28922 24.353 4.25571 24.3197 4.22865C24.2863 4.20159 24.2478 4.18153 24.2065 4.16967C24.1652 4.15781 24.1219 4.15439 24.0792 4.15962C24.0366 4.16485 23.9954 4.17862 23.9582 4.2001C23.0362 4.68991 20.9865 5.76511 19.9659 5.61279C14.9214 4.18474 14.8523 4.17706 14.8096 4.17279C13.8876 4.09002 13.0445 4.85973 13.1354 5.85301L11.8682 5.82229C11.0562 5.79413 10.3462 6.42815 10.2805 7.24863L10.2733 7.33823C10.2575 8.14037 10.8599 8.81194 11.6407 8.91136L11.1317 9.1217C10.7506 9.28074 10.4478 9.5841 10.2896 9.96556C10.1313 10.347 10.1303 10.7756 10.2869 11.1578C10.3988 11.4209 10.5804 11.6484 10.8122 11.8158C11.0439 11.9832 11.317 12.084 11.6019 12.1075C12.2159 12.1523 12.227 11.9919 15.4069 10.7196C14.8415 11.5496 14.2779 12.3809 13.7161 13.2134C13.1614 14.0373 13.4242 15.3037 14.6261 15.654C14.2341 16.0194 13.9212 16.4614 13.7067 16.9526C13.4922 17.4438 13.3806 17.9737 13.379 18.5096C13.379 20.666 15.1339 22.4205 17.2898 22.4205C20.0704 22.4205 21.9213 19.6079 20.9348 17.0816C21.6913 17.2966 22.4486 16.9374 22.7989 16.2846L23.9066 14.2349C24.2419 13.7131 24.547 13.5578 24.9007 13.3781C25.5433 13.0517 26.2076 12.7138 26.9107 10.5822C26.9373 10.5017 26.9308 10.4139 26.8928 10.3381C26.8547 10.2624 26.7881 10.2044 26.7076 10.1777ZM18.7947 11.031C19.142 10.3821 19.9834 10.0762 20.6822 10.4431C21.347 10.7878 21.6209 11.6177 21.2979 12.282C19.4355 15.744 20.0683 14.5566 19.9369 14.813C19.8328 15.0227 19.7771 15.2531 19.7739 15.4871C19.336 15.1266 18.8244 14.8664 18.2752 14.7248C17.726 14.5832 17.1524 14.5637 16.5948 14.6675L18.7947 11.031ZM20.5611 18.5092C20.5611 20.3127 19.0938 21.78 17.2898 21.78C15.4859 21.78 14.019 20.3127 14.019 18.5092C14.019 16.6298 15.5678 15.238 17.2898 15.238C19.0366 15.238 20.5026 16.6123 20.5606 18.3893L20.5611 18.5092ZM27.3826 2.48362C27.3306 2.35617 27.2301 2.25458 27.1032 2.20115C26.9763 2.14771 26.8335 2.1468 26.7059 2.19861L25.047 2.87445C24.9837 2.90019 24.9261 2.9382 24.8776 2.98629C24.829 3.03437 24.7904 3.09158 24.7641 3.15463C24.7377 3.21768 24.7241 3.28532 24.7239 3.35366C24.7238 3.42201 24.7372 3.4897 24.7633 3.55285C24.8401 3.74911 26.2144 7.11381 27.3143 9.81077C27.4253 10.0804 27.7325 10.2012 27.9906 10.0949L29.6503 9.41866C29.9149 9.31114 30.0429 9.00778 29.9349 8.74197L27.3826 2.48362ZM10.9257 20.486C10.9641 20.6289 11.0933 20.7232 11.235 20.7232C11.3122 20.7232 11.267 20.7219 12.6596 20.3546C12.7002 20.3437 12.7383 20.325 12.7717 20.2994C12.8051 20.2739 12.8331 20.242 12.8542 20.2056C12.8752 20.1692 12.8889 20.129 12.8944 20.0873C12.9 20.0456 12.8972 20.0033 12.8864 19.9627C12.8756 19.922 12.8568 19.884 12.8313 19.8506C12.8057 19.8172 12.7738 19.7892 12.7374 19.7681C12.701 19.7471 12.6608 19.7334 12.6192 19.7278C12.5775 19.7223 12.5351 19.725 12.4945 19.7359L11.1526 20.0943C11.112 20.1051 11.0739 20.1238 11.0405 20.1493C11.0071 20.1749 10.9791 20.2067 10.958 20.2431C10.9369 20.2795 10.9232 20.3196 10.9177 20.3613C10.9121 20.403 10.9148 20.4453 10.9257 20.486Z" fill="black"/>
<path d="M11.1526 17.0149C12.541 17.3814 12.4992 17.3836 12.5773 17.3836C12.6543 17.3826 12.7284 17.3538 12.786 17.3026C12.8436 17.2514 12.8808 17.1812 12.8908 17.1048C12.9008 17.0284 12.8829 16.9509 12.8405 16.8866C12.798 16.8223 12.7338 16.7755 12.6596 16.7547L11.3173 16.3963C11.2767 16.3855 11.2344 16.3828 11.1927 16.3883C11.151 16.3939 11.1109 16.4076 11.0745 16.4286C11.0381 16.4497 11.0063 16.4778 10.9807 16.5111C10.9552 16.5445 10.9365 16.5826 10.9257 16.6233C10.9148 16.6639 10.9121 16.7062 10.9177 16.7479C10.9232 16.7896 10.937 16.8297 10.958 16.8661C10.9791 16.9025 11.0071 16.9343 11.0405 16.9599C11.0739 16.9854 11.112 17.0041 11.1526 17.0149ZM22.2217 19.7362C22.1409 19.7182 22.0563 19.732 21.9856 19.7749C21.9149 19.8178 21.8634 19.8864 21.8421 19.9663C21.8208 20.0462 21.8312 20.1313 21.8711 20.2037C21.9111 20.2762 21.9775 20.3303 22.0565 20.3549L23.3984 20.7124C23.439 20.7233 23.4814 20.726 23.5231 20.7205C23.5647 20.715 23.6049 20.7013 23.6413 20.6802C23.6777 20.6592 23.7096 20.6311 23.7352 20.5977C23.7607 20.5644 23.7795 20.5263 23.7903 20.4857C23.8011 20.445 23.8039 20.4027 23.7983 20.361C23.7928 20.3193 23.7791 20.2791 23.7581 20.2427C23.737 20.2064 23.709 20.1745 23.6756 20.1489C23.6422 20.1233 23.6041 20.1046 23.5635 20.0938L22.2217 19.7362ZM2.34667 29.538H4.44246C4.52733 29.538 4.60872 29.5043 4.66873 29.4443C4.72874 29.3843 4.76246 29.3029 4.76246 29.218V28.8127L5.59873 28.7406C10.2392 28.4121 12.6447 31.3202 17.1149 28.8067L23.3203 25.5551C24.0969 25.1071 24.4557 24.1522 24.0277 23.3603C23.8383 22.8667 23.1949 22.3909 22.4947 22.4255C22.4294 22.4255 22.3313 22.4255 17.6521 23.8732C17.5739 23.9007 17.5095 23.9574 17.4722 24.0314C17.435 24.1053 17.4279 24.1909 17.4523 24.27C17.4767 24.3491 17.5309 24.4157 17.6034 24.4558C17.6759 24.4959 17.761 24.5064 17.8411 24.485C20.4378 23.6812 22.3718 23.0958 22.5246 23.0651C22.9103 23.0429 23.3429 23.2878 23.5017 23.7512C23.5187 23.7913 23.5209 23.8066 23.5209 23.8092C23.5704 24.3702 23.4897 24.715 23.0123 24.9945L16.8098 28.244C12.5858 30.6192 10.3706 27.7674 5.54881 28.1032L4.76246 28.1706V21.6997C4.76246 21.6149 4.72874 21.5335 4.66873 21.4735C4.60872 21.4135 4.52733 21.3797 4.44246 21.3797H2.34667C2.2618 21.3797 2.18041 21.4135 2.1204 21.4735C2.06039 21.5335 2.02667 21.6149 2.02667 21.6997V29.2176C2.02667 29.3947 2.17003 29.5376 2.34667 29.5376V29.538Z" fill="black"/>
<path d="M15.5209 25.3179C15.3954 25.4089 15.2453 25.4595 15.0904 25.463L10.3531 25.722C10.2683 25.7265 10.1888 25.7645 10.1321 25.8276C10.0754 25.8908 10.0461 25.9738 10.0506 26.0586C10.0551 26.1434 10.0931 26.2228 10.1562 26.2796C10.2194 26.3363 10.3025 26.3656 10.3872 26.3611L15.1207 26.1026C15.4579 26.087 15.7798 25.9573 16.0337 25.7347C16.2875 25.5122 16.4581 25.2099 16.5176 24.8776L16.544 24.5439C16.5099 23.6663 15.773 23.0946 14.9782 23.1385L11.8605 23.3318C11.66 23.348 11.4547 23.2801 11.2849 23.1509C10.1329 22.2741 9.02615 21.7258 7.88909 21.4715C7.21709 21.3529 6.49815 21.4212 5.62263 21.6891C5.54433 21.7163 5.47962 21.7727 5.44213 21.8467C5.40463 21.9206 5.39727 22.0061 5.4216 22.0854C5.44592 22.1646 5.50004 22.2313 5.57255 22.2714C5.64506 22.3116 5.73032 22.322 5.81037 22.3005C6.58434 22.0637 7.20941 22.001 7.76279 22.0987C8.79447 22.33 9.82018 22.8403 10.8975 23.6603C11.1898 23.8822 11.5456 23.9897 11.9002 23.9709L15.0183 23.7772C15.4705 23.7572 15.8703 24.072 15.9057 24.5286C15.8831 24.6096 15.9603 25.032 15.5209 25.3179ZM18.3113 20.0383H16.8691C17.0471 19.7141 17.1503 19.3301 17.2105 18.929H17.7054C17.7903 18.929 17.8717 18.8953 17.9317 18.8353C17.9917 18.7753 18.0254 18.6939 18.0254 18.609C18.0254 18.5241 17.9917 18.4427 17.9317 18.3827C17.8717 18.3227 17.7903 18.289 17.7054 18.289H17.2736C17.2886 17.9818 17.2881 17.6767 17.2796 17.3913C17.2685 17.0431 17.6854 16.8345 17.9546 17.1024C17.9841 17.133 18.0195 17.1573 18.0586 17.174C18.0976 17.1907 18.1396 17.1995 18.1821 17.1998C18.2246 17.2001 18.2667 17.1919 18.306 17.1758C18.3453 17.1596 18.381 17.1358 18.411 17.1058C18.441 17.0757 18.4647 17.0399 18.4808 17.0006C18.4968 16.9612 18.5048 16.9191 18.5044 16.8766C18.504 16.8341 18.4951 16.7921 18.4783 16.7531C18.4614 16.7141 18.437 16.6788 18.4064 16.6493C17.7357 15.9795 16.6114 16.4637 16.6396 17.4105C16.6492 17.7035 16.6466 17.9967 16.6319 18.2894H16.2688C16.1839 18.2894 16.1026 18.3231 16.0425 18.3832C15.9825 18.4432 15.9488 18.5246 15.9488 18.6094C15.9488 18.6943 15.9825 18.7757 16.0425 18.8357C16.1026 18.8957 16.1839 18.9294 16.2688 18.9294H16.5615C16.4911 19.3339 16.3695 19.7051 16.1519 19.9573C15.9087 20.2389 16.1114 20.6783 16.4843 20.6783H18.3113C18.3961 20.6783 18.4775 20.6446 18.5375 20.5846C18.5976 20.5246 18.6313 20.4432 18.6313 20.3583C18.6313 20.2735 18.5976 20.1921 18.5375 20.1321C18.4775 20.0721 18.3961 20.0383 18.3113 20.0383Z" fill="black"/>
</svg>
