<svg width="24" height="24" viewBox="0 0 24 24" fill="none" xmlns="http://www.w3.org/2000/svg">
<g clip-path="url(#clip0_673_1330)">
<path d="M22.7971 10.4036H20.3978V10.0037C20.3978 9.34121 19.8606 8.80407 19.1981 8.80407V8.00426H21.5975C22.26 8.00426 22.7971 7.46713 22.7971 6.80458V1.20605C22.7971 0.543512 22.26 0.00637331 21.5975 0.00637331H13.5996C12.937 0.00637331 12.3999 0.543512 12.3999 1.20605V6.80458C12.3999 7.46717 12.937 8.00426 13.5996 8.00426H15.9989V8.80407C15.3364 8.80407 14.7992 9.34121 14.7992 10.0037V10.4036H12.3999V10.0037C12.3967 8.2449 11.1237 6.74554 9.38868 6.4571C10.6137 5.51947 11.105 3.90543 10.61 2.4443C10.115 0.983176 8.74394 0 7.20128 0C5.65861 0 4.2875 0.983176 3.79249 2.4443C3.29748 3.90543 3.78879 5.51947 5.01383 6.4571C3.27879 6.74554 2.00576 8.2449 2.00263 10.0037V10.4036H1.20287C0.540326 10.4036 0.00318742 10.9408 0.00318742 11.6033V22.8003C0.00318742 23.4629 0.540326 24 1.20287 24H2.00267C2.66521 24 3.20235 23.4629 3.20235 22.8003V21.6006H20.7977V22.8003C20.7977 23.4629 21.3348 24 21.9974 24H22.7972C23.4597 24 23.9969 23.4629 23.9969 22.8003V11.6033C23.9968 10.9407 23.4597 10.4036 22.7971 10.4036ZM13.1997 6.80458V1.20605C13.1997 1.1 13.2418 0.99829 13.3168 0.923298C13.3918 0.848306 13.4935 0.806176 13.5996 0.806176H21.5975C21.65 0.806176 21.702 0.81652 21.7505 0.836615C21.799 0.856711 21.8431 0.886166 21.8802 0.923298C21.9173 0.96043 21.9468 1.00451 21.9669 1.05303C21.987 1.10154 21.9973 1.15354 21.9973 1.20605V6.80458C21.9973 6.8571 21.987 6.90909 21.9669 6.95761C21.9468 7.00613 21.9173 7.05021 21.8802 7.08734C21.8431 7.12447 21.799 7.15393 21.7505 7.17402C21.702 7.19412 21.65 7.20446 21.5975 7.20446H13.5996C13.4935 7.20446 13.3918 7.16233 13.3168 7.08734C13.2418 7.01235 13.1997 6.91064 13.1997 6.80458ZM16.7987 8.00426H18.3983V8.80407H16.7987V8.00426ZM15.599 10.0037C15.599 9.8977 15.6412 9.79599 15.7162 9.72099C15.7912 9.646 15.8929 9.60387 15.9989 9.60387H19.1981C19.3041 9.60387 19.4059 9.646 19.4808 9.72099C19.5558 9.79599 19.598 9.8977 19.598 10.0037V10.4036H15.599V10.0037ZM11.6001 10.0037V10.4036H9.59708C10.021 9.59093 10.35 8.73219 10.5776 7.84432C10.897 8.10634 11.1544 8.4359 11.3312 8.80929C11.508 9.18268 11.5999 9.59062 11.6001 10.0037ZM8.41056 8.41375L8.71287 7.20446H8.80083C9.16484 7.20446 9.5253 7.27593 9.86176 7.41483C9.6268 8.39871 9.26125 9.34674 8.77483 10.2337L8.41056 8.41375ZM7.8887 7.20446L7.68874 8.00426H6.71381L6.51385 7.20446H7.8887ZM5.6893 7.20446L5.99161 8.41375L5.6273 10.2337C5.14088 9.34674 4.77533 8.39871 4.54037 7.41483C4.87696 7.27593 5.23755 7.20446 5.60167 7.20446H5.6893ZM6.729 8.80407H7.67276L7.99269 10.4036H6.40953L6.729 8.80407ZM4.40203 3.60542C4.40203 2.05942 5.65533 0.806176 7.20128 0.806176C8.74723 0.806176 10.0005 2.05947 10.0005 3.60542C10.0005 5.15137 8.74723 6.40466 7.20128 6.40466C5.65603 6.40292 4.40377 5.15066 4.40203 3.60542ZM2.80243 10.0037C2.80269 9.59061 2.89453 9.18267 3.07134 8.80928C3.24815 8.43588 3.50554 8.10633 3.82497 7.84432C4.05263 8.73219 4.38165 9.59093 4.80552 10.4036H2.80243V10.0037ZM0.802991 11.6033C0.802991 11.4973 0.84512 11.3955 0.920112 11.3206C0.995104 11.2456 1.09681 11.2034 1.20287 11.2034H22.7971C22.9032 11.2034 23.0049 11.2456 23.0799 11.3206C23.1549 11.3955 23.197 11.4973 23.197 11.6033V20.8009H0.802991V11.6033ZM2.40255 22.8003C2.40255 22.9064 2.36042 23.0081 2.28543 23.0831C2.21044 23.1581 2.10873 23.2002 2.00267 23.2002H1.20287C1.09681 23.2002 0.995104 23.1581 0.920112 23.0831C0.84512 23.0081 0.802991 22.9064 0.802991 22.8003V21.6006H2.40255V22.8003ZM23.197 22.8003C23.197 22.9064 23.1549 23.0081 23.0799 23.0831C23.0049 23.1581 22.9032 23.2002 22.7971 23.2002H21.9973C21.9448 23.2002 21.8928 23.1899 21.8443 23.1698C21.7958 23.1497 21.7517 23.1202 21.7146 23.0831C21.6774 23.0459 21.648 23.0019 21.6279 22.9533C21.6078 22.9048 21.5975 22.8528 21.5975 22.8003V21.6006H23.197V22.8003Z" fill="black"/>
<path d="M3.60223 17.5515V18.4017C3.60223 19.0643 4.13937 19.6014 4.80191 19.6014H19.1981C19.8606 19.6014 20.3978 19.0643 20.3978 18.4017V17.5515C21.1048 17.3698 21.599 16.7324 21.599 16.0024C21.599 15.2723 21.1048 14.635 20.3978 14.4532V13.603C20.3978 12.9405 19.8606 12.4033 19.1981 12.4033H4.80191C4.13937 12.4033 3.60223 12.9405 3.60223 13.603V14.4532C2.89522 14.635 2.40096 15.2723 2.40096 16.0024C2.40096 16.7324 2.89522 17.3698 3.60223 17.5515ZM4.00211 15.2026C4.10816 15.2026 4.20987 15.1604 4.28487 15.0854C4.35986 15.0104 4.40199 14.9087 4.40199 14.8027V13.603C4.40199 13.5505 4.41233 13.4985 4.43243 13.45C4.45252 13.4015 4.48198 13.3574 4.51911 13.3202C4.55624 13.2831 4.60032 13.2537 4.64884 13.2336C4.69735 13.2135 4.74935 13.2031 4.80187 13.2031H19.198C19.3041 13.2031 19.4058 13.2453 19.4808 13.3202C19.5558 13.3952 19.5979 13.4969 19.5979 13.603V14.8027C19.5979 14.9087 19.64 15.0104 19.715 15.0854C19.79 15.1604 19.8917 15.2026 19.9978 15.2026C20.4395 15.2026 20.7976 15.5606 20.7976 16.0024C20.7976 16.4441 20.4395 16.8022 19.9978 16.8022C19.8917 16.8022 19.79 16.8443 19.715 16.9193C19.64 16.9943 19.5979 17.096 19.5979 17.202V18.4017C19.5979 18.5078 19.5558 18.6095 19.4808 18.6845C19.4058 18.7595 19.3041 18.8016 19.198 18.8016H4.80187C4.69581 18.8016 4.5941 18.7595 4.51911 18.6845C4.44412 18.6095 4.40199 18.5078 4.40199 18.4017V17.202C4.40199 17.1495 4.39164 17.0975 4.37155 17.049C4.35145 17.0005 4.322 16.9564 4.28487 16.9193C4.24773 16.8822 4.20365 16.8527 4.15514 16.8326C4.10662 16.8125 4.05462 16.8022 4.00211 16.8022C3.56038 16.8022 3.20231 16.4441 3.20231 16.0024C3.20231 15.5606 3.56043 15.2026 4.00211 15.2026Z" fill="black"/>
<path d="M9.60064 18.0016C9.70669 18.0016 9.8084 17.9594 9.88339 17.8845C9.95839 17.8095 10.0005 17.7077 10.0005 17.6017V16.402H10.8003V17.6017C10.8003 17.7077 10.8424 17.8095 10.9174 17.8845C10.9924 17.9594 11.0941 18.0016 11.2002 18.0016C11.3063 18.0016 11.408 17.9594 11.483 17.8845C11.5579 17.8095 11.6001 17.7077 11.6001 17.6017V14.4025C11.6001 14.2965 11.5579 14.1948 11.483 14.1198C11.408 14.0448 11.3063 14.0027 11.2002 14.0027C11.0941 14.0027 10.9924 14.0448 10.9174 14.1198C10.8424 14.1948 10.8003 14.2965 10.8003 14.4025V15.6022H10.0005V14.4025C10.0005 14.2965 9.95839 14.1948 9.88339 14.1198C9.8084 14.0448 9.70669 14.0027 9.60064 14.0027C9.49458 14.0027 9.39287 14.0448 9.31788 14.1198C9.24289 14.1948 9.20076 14.2965 9.20076 14.4025V17.6017C9.20076 17.7077 9.24289 17.8095 9.31788 17.8845C9.39287 17.9594 9.49458 18.0016 9.60064 18.0016ZM12.7998 18.0016C12.9059 18.0016 13.0076 17.9594 13.0826 17.8845C13.1576 17.8095 13.1997 17.7077 13.1997 17.6017V16.402H13.5996C13.7056 16.402 13.8073 16.4441 13.8823 16.5191C13.9573 16.5941 13.9994 16.6958 13.9994 16.8019V17.6017C13.9994 17.7077 14.0416 17.8095 14.1166 17.8845C14.1916 17.9594 14.2933 18.0016 14.3993 18.0016C14.5054 18.0016 14.6071 17.9594 14.6821 17.8845C14.7571 17.8095 14.7992 17.7077 14.7992 17.6017V16.8019C14.7982 16.5058 14.687 16.2207 14.4873 16.0021C14.6436 15.8307 14.7467 15.6174 14.7838 15.3884C14.8209 15.1594 14.7906 14.9245 14.6964 14.7124C14.6023 14.5004 14.4484 14.3203 14.2536 14.1943C14.0588 14.0682 13.8315 14.0016 13.5995 14.0027H12.7997C12.6937 14.0027 12.5919 14.0448 12.517 14.1198C12.442 14.1948 12.3998 14.2965 12.3998 14.4025V17.6017C12.3999 17.7078 12.442 17.8095 12.517 17.8845C12.592 17.9594 12.6937 18.0016 12.7998 18.0016ZM13.1997 14.8025H13.5996C13.7056 14.8025 13.8073 14.8446 13.8823 14.9196C13.9573 14.9946 13.9994 15.0963 13.9994 15.2023C13.9994 15.3084 13.9573 15.4101 13.8823 15.4851C13.8073 15.5601 13.7056 15.6022 13.5996 15.6022H13.1997V14.8025ZM17.5985 5.60488C18.4819 5.60488 19.1981 4.88873 19.1981 4.00532C19.1981 3.12192 18.4819 2.40576 17.5985 2.40576C16.7151 2.40576 15.999 3.12192 15.999 4.00532C15.999 4.88873 16.7151 5.60488 17.5985 5.60488ZM17.5985 3.20552C18.0403 3.20552 18.3983 3.56359 18.3983 4.00532C18.3983 4.44705 18.0403 4.80512 17.5985 4.80512C17.1568 4.80512 16.7987 4.44705 16.7987 4.00532C16.7987 3.56359 17.1568 3.20552 17.5985 3.20552Z" fill="black"/>
</g>
<defs>
<clipPath id="clip0_673_1330">
<rect width="24" height="24" fill="white"/>
</clipPath>
</defs>
</svg>
