<svg width="24" height="20" viewBox="0 0 24 20" fill="none" xmlns="http://www.w3.org/2000/svg">
<path d="M12 5.5C11.4808 5.5 10.9733 5.34605 10.5416 5.05761C10.1099 4.76917 9.7735 4.3592 9.57482 3.87955C9.37614 3.39989 9.32415 2.87209 9.42544 2.36289C9.52672 1.85369 9.77673 1.38596 10.1438 1.01885C10.511 0.651733 10.9787 0.401726 11.4879 0.30044C11.9971 0.199154 12.5249 0.251137 13.0045 0.449817C13.4842 0.648497 13.8942 0.98495 14.1826 1.41663C14.471 1.84831 14.625 2.35583 14.625 2.875C14.6242 3.57095 14.3474 4.23817 13.8553 4.73028C13.3632 5.22239 12.6959 5.49921 12 5.5ZM12 1C11.6292 1 11.2666 1.10997 10.9583 1.316C10.65 1.52202 10.4096 1.81486 10.2677 2.15747C10.1258 2.50008 10.0887 2.87708 10.161 3.2408C10.2334 3.60451 10.412 3.9386 10.6742 4.20083C10.9364 4.46305 11.2705 4.64163 11.6342 4.71397C11.9979 4.78632 12.3749 4.74919 12.7175 4.60728C13.0601 4.46536 13.353 4.22504 13.559 3.9167C13.765 3.60835 13.875 3.24584 13.875 2.875C13.8744 2.3779 13.6767 1.90134 13.3252 1.54983C12.9737 1.19833 12.4971 1.0006 12 1Z" fill="black"/>
<path d="M15 9.62513H14.25V7.75013C14.2505 7.6517 14.2897 7.55742 14.3591 7.48763L19.3673 2.44651C19.4521 2.36108 19.4997 2.24555 19.4997 2.12513C19.4997 2.00471 19.4521 1.88919 19.3673 1.80376C19.2874 1.72414 19.1807 1.67738 19.068 1.67273C18.9554 1.66808 18.8451 1.70587 18.759 1.77863L16.1918 3.96001C15.0214 4.95427 13.5357 5.50014 12 5.50014C10.4643 5.50014 8.97863 4.95427 7.80825 3.96001L5.241 1.77863C5.15179 1.70217 5.03631 1.66346 4.91905 1.67071C4.80178 1.67796 4.69195 1.73059 4.61284 1.81746C4.53373 1.90432 4.49156 2.01859 4.49528 2.13602C4.49899 2.25345 4.5483 2.36482 4.63275 2.44651L9.64088 7.48763C9.71029 7.55742 9.74949 7.6517 9.75 7.75013V9.62513H9V7.90501L4.101 2.97563C3.88156 2.75641 3.75535 2.46085 3.74873 2.15074C3.74212 1.84063 3.85562 1.53997 4.0655 1.31158C4.27539 1.0832 4.56543 0.944776 4.87499 0.92524C5.18456 0.905705 5.48969 1.00657 5.72663 1.20676L8.29388 3.38851C9.32867 4.26757 10.6422 4.75019 12 4.75019C13.3578 4.75019 14.6713 4.26757 15.7061 3.38851L18.2734 1.20676C18.5103 1.00657 18.8154 0.905705 19.125 0.92524C19.4346 0.944776 19.7246 1.0832 19.9345 1.31158C20.1444 1.53997 20.2579 1.84063 20.2513 2.15074C20.2447 2.46085 20.1184 2.75641 19.899 2.97563L15 7.90501V9.62513ZM12 19.7501C8.93325 19.7501 8.07263 18.9784 7.98488 18.8903C7.91454 18.8199 7.87502 18.7246 7.875 18.6251V17.1251C7.87579 16.4292 8.15261 15.762 8.64472 15.2699C9.13683 14.7777 9.80405 14.5009 10.5 14.5001H13.5C14.196 14.5009 14.8632 14.7777 15.3553 15.2699C15.8474 15.762 16.1242 16.4292 16.125 17.1251V18.6251C16.125 18.7246 16.0855 18.8199 16.0151 18.8903C15.9274 18.9784 15.0668 19.7501 12 19.7501ZM8.625 18.432C8.91638 18.5993 9.83925 19.0001 12 19.0001C14.151 19.0001 15.075 18.6026 15.375 18.4301V17.1251C15.3744 16.628 15.1767 16.1515 14.8252 15.8C14.4737 15.4485 13.9971 15.2507 13.5 15.2501H10.5C10.0029 15.2507 9.52633 15.4485 9.17483 15.8C8.82333 16.1515 8.6256 16.628 8.625 17.1251V18.432Z" fill="black"/>
<path d="M12 15.25C11.4808 15.25 10.9733 15.096 10.5416 14.8076C10.1099 14.5192 9.7735 14.1092 9.57482 13.6295C9.37614 13.1499 9.32415 12.6221 9.42544 12.1129C9.52672 11.6037 9.77673 11.136 10.1438 10.7688C10.511 10.4017 10.9787 10.1517 11.4879 10.0504C11.9971 9.94915 12.5249 10.0011 13.0045 10.1998C13.4842 10.3985 13.8942 10.735 14.1826 11.1666C14.471 11.5983 14.625 12.1058 14.625 12.625C14.6242 13.321 14.3474 13.9882 13.8553 14.4803C13.3632 14.9724 12.6959 15.2492 12 15.25ZM12 10.75C11.6292 10.75 11.2666 10.86 10.9583 11.066C10.65 11.272 10.4096 11.5649 10.2677 11.9075C10.1258 12.2501 10.0887 12.6271 10.161 12.9908C10.2334 13.3545 10.412 13.6886 10.6742 13.9508C10.9364 14.213 11.2705 14.3916 11.6342 14.464C11.9979 14.5363 12.3749 14.4992 12.7175 14.3573C13.0601 14.2154 13.353 13.975 13.559 13.6667C13.765 13.3584 13.875 12.9958 13.875 12.625C13.8744 12.1279 13.6767 11.6513 13.3252 11.2998C12.9737 10.9483 12.4971 10.7506 12 10.75ZM19.125 18.625C18.3473 18.634 17.5704 18.5704 16.8045 18.4349L16.9455 17.6984C17.665 17.8246 18.3946 17.8837 19.125 17.875C21.276 17.875 22.2 17.4775 22.5 17.305V16C22.4994 15.5029 22.3017 15.0263 21.9502 14.6748C21.5987 14.3233 21.1221 14.1256 20.625 14.125H17.625C17.3155 14.1248 17.0108 14.2012 16.7381 14.3476C16.4655 14.4939 16.2333 14.7055 16.0624 14.9635L15.4376 14.5484C15.6769 14.1873 16.0019 13.8911 16.3836 13.6863C16.7653 13.4816 17.1918 13.3746 17.625 13.375H20.625C21.3209 13.3758 21.9882 13.6526 22.4803 14.1447C22.9724 14.6368 23.2492 15.3041 23.25 16V17.5C23.25 17.5995 23.2105 17.6948 23.1401 17.7651C23.0524 17.8533 22.1917 18.625 19.125 18.625Z" fill="black"/>
<path d="M19.125 14.125C18.6058 14.125 18.0983 13.971 17.6666 13.6826C17.2349 13.3942 16.8985 12.9842 16.6998 12.5045C16.5011 12.0249 16.4492 11.4971 16.5504 10.9879C16.6517 10.4787 16.9017 10.011 17.2688 9.64385C17.636 9.27673 18.1037 9.02673 18.6129 8.92544C19.1221 8.82415 19.6499 8.87614 20.1295 9.07482C20.6092 9.2735 21.0192 9.60995 21.3076 10.0416C21.596 10.4733 21.75 10.9808 21.75 11.5C21.7492 12.196 21.4724 12.8632 20.9803 13.3553C20.4882 13.8474 19.8209 14.1242 19.125 14.125ZM19.125 9.625C18.7542 9.625 18.3916 9.73497 18.0833 9.941C17.775 10.147 17.5346 10.4399 17.3927 10.7825C17.2508 11.1251 17.2137 11.5021 17.286 11.8658C17.3584 12.2295 17.537 12.5636 17.7992 12.8258C18.0614 13.088 18.3955 13.2666 18.7592 13.339C19.1229 13.4113 19.4999 13.3742 19.8425 13.2323C20.1851 13.0904 20.478 12.85 20.684 12.5417C20.89 12.2334 21 11.8708 21 11.5C20.9994 11.0029 20.8017 10.5263 20.4502 10.1748C20.0987 9.82333 19.6221 9.6256 19.125 9.625ZM4.875 18.625C1.80825 18.625 0.947625 17.8533 0.859875 17.7651C0.789544 17.6948 0.750021 17.5994 0.75 17.5V16C0.750794 15.3041 1.02761 14.6368 1.51972 14.1447C2.01183 13.6526 2.67905 13.3758 3.375 13.375H6.375C6.80817 13.3746 7.23469 13.4816 7.61641 13.6863C7.99812 13.8911 8.32314 14.1873 8.56238 14.5484L7.93762 14.9635C7.76672 14.7055 7.53454 14.4939 7.26185 14.3476C6.98917 14.2012 6.68447 14.1248 6.375 14.125H3.375C2.8779 14.1256 2.40133 14.3233 2.04983 14.6748C1.69833 15.0263 1.5006 15.5029 1.5 16V17.3069C1.79138 17.4741 2.71425 17.875 4.875 17.875C5.6054 17.8837 6.33504 17.8246 7.0545 17.6984L7.1955 18.4349C6.42961 18.5704 5.65273 18.634 4.875 18.625Z" fill="black"/>
<path d="M4.875 14.125C4.35582 14.125 3.84831 13.971 3.41663 13.6826C2.98495 13.3942 2.6485 12.9842 2.44982 12.5045C2.25114 12.0249 2.19915 11.4971 2.30044 10.9879C2.40173 10.4787 2.65173 10.011 3.01885 9.64385C3.38596 9.27673 3.85369 9.02673 4.36289 8.92544C4.87209 8.82415 5.39989 8.87614 5.87954 9.07482C6.3592 9.2735 6.76917 9.60995 7.05761 10.0416C7.34605 10.4733 7.5 10.9808 7.5 11.5C7.49921 12.196 7.22239 12.8632 6.73028 13.3553C6.23817 13.8474 5.57095 14.1242 4.875 14.125ZM4.875 9.625C4.50416 9.625 4.14165 9.73497 3.83331 9.941C3.52496 10.147 3.28464 10.4399 3.14273 10.7825C3.00081 11.1251 2.96368 11.5021 3.03603 11.8658C3.10838 12.2295 3.28695 12.5636 3.54918 12.8258C3.8114 13.088 4.14549 13.2666 4.50921 13.339C4.87292 13.4113 5.24992 13.3742 5.59253 13.2323C5.93514 13.0904 6.22798 12.85 6.43401 12.5417C6.64003 12.2334 6.75 11.8708 6.75 11.5C6.7494 11.0029 6.55167 10.5263 6.20017 10.1748C5.84867 9.82333 5.3721 9.6256 4.875 9.625Z" fill="black"/>
</svg>
