<svg width="23" height="24" viewBox="0 0 23 24" fill="none" xmlns="http://www.w3.org/2000/svg">
<path d="M23.6047 14.8284H22.0233C21.8047 14.8284 21.628 15.0055 21.628 15.2237H17.6745C17.5694 15.2237 17.469 15.2652 17.395 15.3395L15.1681 17.5665L7.32766 16.203C7.142 16.1707 6.95153 16.1794 6.76959 16.2285C6.58766 16.2776 6.41867 16.3659 6.27447 16.4872C6.13021 16.6084 6.01426 16.7598 5.93476 16.9306C5.85526 17.1014 5.81414 17.2876 5.81429 17.476C5.81429 17.9334 6.05979 18.3611 6.45514 18.592L15.0795 23.6227C15.2769 23.7383 15.5015 23.7992 15.7302 23.7991C15.9279 23.7991 16.1256 23.7536 16.3086 23.6623L20.5352 21.5492H21.628C21.628 21.7674 21.8047 21.9445 22.0233 21.9445H23.6047C23.8233 21.9445 24 21.7674 24 21.5492V15.2237C24 15.0055 23.8233 14.8284 23.6047 14.8284ZM21.628 20.7585H20.4419C20.3806 20.7585 20.3198 20.7727 20.2652 20.8L15.9548 22.9554C15.8803 22.9928 15.7977 23.0109 15.7145 23.0082C15.6312 23.0055 15.5499 22.9821 15.478 22.94L6.85404 17.9093C6.77839 17.865 6.71562 17.8017 6.67194 17.7257C6.62825 17.6497 6.60517 17.5636 6.60497 17.476C6.60493 17.4028 6.6209 17.3305 6.65175 17.2642C6.68261 17.1979 6.72761 17.1391 6.78359 17.092C6.83957 17.0449 6.90518 17.0107 6.97581 16.9916C7.04644 16.9726 7.12038 16.9692 7.19245 16.9818L14.4841 18.2501L14.1639 18.5703C13.8785 18.8561 13.7211 19.236 13.7211 19.6401C13.7211 20.475 14.4003 21.1538 15.2345 21.1538C15.6389 21.1538 16.0188 20.9965 16.3047 20.7103L18.3494 18.666L17.7904 18.1069L15.7457 20.1516C15.6097 20.2866 15.4261 20.3626 15.2345 20.3632C14.836 20.3632 14.5118 20.039 14.5118 19.6401C14.5118 19.4471 14.5869 19.2653 14.7233 19.1289L17.8382 16.0144H21.628V20.7585ZM23.2093 21.1538H22.4186V15.6191H23.2093V21.1538ZM14.1165 6.13086C12.8083 6.13086 11.7444 7.19472 11.7444 8.50291C11.7444 9.81109 12.8083 10.875 14.1165 10.875C15.4246 10.875 16.4885 9.81109 16.4885 8.50291C16.4885 7.19472 15.4246 6.13086 14.1165 6.13086ZM14.1165 10.0843C13.2443 10.0843 12.5351 9.37503 12.5351 8.50291C12.5351 7.63078 13.2443 6.92154 14.1165 6.92154C14.9886 6.92154 15.6978 7.63078 15.6978 8.50291C15.6978 9.37503 14.9886 10.0843 14.1165 10.0843Z" fill="black"/>
<path d="M21.628 0.200684H6.60497C6.38635 0.200684 6.20963 0.377797 6.20963 0.596025V3.75876H3.0469C2.94174 3.75876 2.84132 3.80027 2.76739 3.87459L0 6.64198L0.559013 7.201L3.21057 4.54944H6.20963V6.92149H4.23292V7.71217H9.37236C9.80842 7.71217 10.163 8.0668 10.163 8.50286C10.163 8.71357 10.0808 8.91204 9.93098 9.06147C9.78115 9.21091 9.58268 9.29354 9.37236 9.29354H6.60497C6.55268 9.29353 6.50093 9.30402 6.45276 9.32438C6.40503 9.34423 6.36165 9.37324 6.32507 9.40977L5.13944 10.5954L5.69845 11.1544L6.20963 10.6432V12.8516H0.279506V13.6423H21.628C21.8466 13.6423 22.0233 13.4652 22.0233 13.247V0.596025C22.0233 0.377797 21.8466 0.200684 21.628 0.200684ZM7.00031 4.1541H8.13613C7.99302 4.70916 7.55498 5.1468 7.00031 5.29031V4.1541ZM7.00031 12.8516V11.7154C7.55498 11.8589 7.99302 12.2966 8.13613 12.8516H7.00031ZM21.2326 12.8516H20.0968C20.2399 12.2966 20.6779 11.8589 21.2326 11.7154V12.8516ZM21.2326 10.9105C20.2415 11.0777 19.4591 11.8605 19.2915 12.8516H8.94144C8.77421 11.8605 7.99143 11.0781 7.00031 10.9105V10.0842H9.37236C9.7938 10.0842 10.1911 9.91937 10.49 9.62049C10.7893 9.32161 10.9537 8.92469 10.9537 8.50286C10.9537 7.63073 10.2445 6.92149 9.37236 6.92149H7.00031V6.09523C7.99143 5.928 8.77382 5.14522 8.94144 4.1541H19.2915C19.4587 5.14522 20.2415 5.9276 21.2326 6.09523V10.9105ZM21.2326 5.29031C20.6779 5.1468 20.2399 4.70916 20.0968 4.1541H21.2326V5.29031ZM21.2326 3.36342H7.00031V2.57273H21.2326V3.36342ZM21.2326 1.78205H7.00031V0.991367H21.2326V1.78205Z" fill="black"/>
</svg>
