<svg width="24" height="24" viewBox="0 0 24 24" fill="none" xmlns="http://www.w3.org/2000/svg">
<path d="M11.9994 0.75C8.07066 0.75 4.87439 3.94627 4.87439 7.875C4.87439 10.3201 7.5719 14.8191 9.5774 17.8261C7.1565 18.2437 5.62439 19.2409 5.62439 20.4375C5.62439 21.2513 6.33155 21.9869 7.61559 22.5085C8.79262 22.9867 10.3494 23.25 11.9994 23.25C13.6494 23.25 15.2062 22.9867 16.3832 22.5085C17.6672 21.9869 18.3744 21.2513 18.3744 20.4375C18.3744 19.2405 16.8425 18.2435 14.4214 17.826C16.4269 14.8191 19.1244 10.3201 19.1244 7.875C19.1244 3.94627 15.9281 0.75 11.9994 0.75ZM16.6262 19.3075C17.2699 19.6567 17.6244 20.0578 17.6244 20.4375C17.6244 21.4131 15.3143 22.5 11.9994 22.5C8.68448 22.5 6.37439 21.4131 6.37439 20.4375C6.37439 20.0584 6.72811 19.6575 7.37039 19.3086C8.03817 18.9459 8.97966 18.6656 10.04 18.5117C10.4388 19.0966 10.8453 19.676 11.2597 20.2499H10.1244C10.0249 20.2499 9.92955 20.2894 9.85922 20.3597C9.7889 20.4301 9.74939 20.5254 9.74939 20.6249C9.74939 20.7244 9.7889 20.8197 9.85922 20.8901C9.92955 20.9604 10.0249 20.9999 10.1244 20.9999H13.8744C13.9738 20.9999 14.0692 20.9604 14.1396 20.8901C14.2099 20.8197 14.2494 20.7244 14.2494 20.6249C14.2494 20.5254 14.2099 20.4301 14.1396 20.3597C14.0692 20.2894 13.9738 20.2499 13.8744 20.2499H12.7391C13.1534 19.676 13.56 19.0966 13.9587 18.5118C15.0181 18.6656 15.9585 18.9453 16.6262 19.3075ZM11.9994 19.9909C11.4409 19.2213 10.1862 17.455 8.94314 15.4503C6.77194 11.9489 5.62439 9.32939 5.62439 7.875C5.62439 4.35984 8.48423 1.5 11.9994 1.5C15.5145 1.5 18.3744 4.35984 18.3744 7.875C18.3744 9.32873 17.2277 11.9467 15.0585 15.4459C13.8149 17.4518 12.5584 19.2206 11.9994 19.9909Z" fill="black"/>
<path d="M11.9994 3C11.0352 3 10.0927 3.28591 9.29098 3.82159C8.48929 4.35726 7.86445 5.11863 7.49548 6.00942C7.1265 6.90021 7.02996 7.88041 7.21806 8.82607C7.40616 9.77172 7.87046 10.6404 8.55224 11.3221C9.23402 12.0039 10.1027 12.4682 11.0483 12.6563C11.994 12.8444 12.9742 12.7479 13.865 12.3789C14.7558 12.0099 15.5171 11.3851 16.0528 10.5834C16.5885 9.78171 16.8744 8.83918 16.8744 7.875C16.8729 6.58252 16.3588 5.34339 15.4449 4.42947C14.531 3.51555 13.2919 3.00146 11.9994 3ZM11.9994 12C11.0592 12.0009 10.1472 11.679 9.41583 11.0881C10.0545 10.2448 10.9998 9.75 11.9994 9.75C12.999 9.75 13.9443 10.2448 14.583 11.0881C13.8516 11.679 12.9396 12.0009 11.9994 12ZM10.4994 7.5C10.4994 7.20333 10.5874 6.91332 10.7522 6.66664C10.917 6.41997 11.1513 6.22771 11.4254 6.11418C11.6995 6.00065 12.0011 5.97094 12.292 6.02882C12.583 6.0867 12.8503 6.22956 13.06 6.43934C13.2698 6.64912 13.4127 6.91639 13.4706 7.20736C13.5284 7.49834 13.4987 7.79994 13.3852 8.07403C13.2717 8.34811 13.0794 8.58238 12.8327 8.7472C12.5861 8.91203 12.2961 9 11.9994 9C11.6017 8.99955 11.2204 8.84137 10.9392 8.56017C10.658 8.27896 10.4998 7.89769 10.4994 7.5ZM15.1251 10.5638C14.6732 9.98467 14.0752 9.53632 13.3926 9.2648C13.7598 8.97527 14.0276 8.57854 14.1589 8.12977C14.2902 7.681 14.2784 7.20248 14.1251 6.76071C13.9719 6.31895 13.6849 5.9359 13.3039 5.6648C12.9229 5.39371 12.467 5.24804 11.9994 5.24804C11.5318 5.24804 11.0758 5.39371 10.6949 5.6648C10.3139 5.9359 10.0269 6.31895 9.87363 6.76071C9.7204 7.20248 9.70861 7.681 9.83989 8.12977C9.97118 8.57854 10.239 8.97527 10.6062 9.2648C9.92359 9.53632 9.32561 9.98467 8.87367 10.5638C8.35835 9.9654 8.02563 9.23165 7.91504 8.44973C7.80445 7.6678 7.92063 6.87056 8.24978 6.15272C8.57894 5.43488 9.10723 4.82661 9.7719 4.40017C10.4366 3.97373 11.2097 3.74705 11.9994 3.74705C12.7891 3.74705 13.5622 3.97373 14.2269 4.40017C14.8915 4.82661 15.4198 5.43488 15.749 6.15272C16.0781 6.87056 16.1943 7.6678 16.0837 8.44973C15.9731 9.23165 15.6404 9.9654 15.1251 10.5638Z" fill="black"/>
</svg>
