<svg width="24" height="24" viewBox="0 0 24 24" fill="none" xmlns="http://www.w3.org/2000/svg">
<g clip-path="url(#clip0_673_1324)">
<path d="M22.7077 3.95072H15.84C15.5815 2.84303 14.88 2.25226 13.9569 2.10457C13.1446 0.516878 11.7415 0.18457 10.08 0.18457C9.41538 0.18457 7.16308 0.29534 5.87077 1.95688C4.91077 3.17534 4.65231 4.91072 5.13231 7.16303C4.57846 7.45842 4.54154 8.08611 4.72615 8.67688C4.83692 9.23072 5.20615 10.9292 6.12923 11.1138C6.24 11.52 6.46154 12.2584 6.94154 12.9969V14.843L2.28923 16.6523C1.67002 16.8909 1.13755 17.3113 0.761888 17.8583C0.386226 18.4054 0.184975 19.0533 0.184615 19.7169V23.4461C0.184615 23.6676 0.332308 23.8153 0.553846 23.8153H20.1231C20.3446 23.8153 20.4923 23.6676 20.4923 23.4461V21.2307H22.7077C23.3354 21.2307 23.8154 20.7507 23.8154 20.123V5.05842C23.8154 4.43072 23.2985 3.95072 22.7077 3.95072ZM6.60923 10.4492C6.20308 10.1907 6.20308 11.0769 5.46462 8.49226C5.24308 7.71688 5.64923 7.79072 5.61231 7.79072C5.83385 7.79072 6.01846 7.56919 5.98154 7.34765C5.42769 5.16919 5.61231 3.50765 6.46154 2.43688C7.34769 1.32919 9.00923 0.849186 10.3015 0.923032H10.3385C12.6646 0.812263 13.3662 2.51072 13.3662 2.54765C13.5508 3.02765 14.1785 2.51072 14.8062 3.35996C15.1754 3.87688 15.4708 4.98457 14.7323 7.2738C14.6954 7.38457 14.7323 7.49534 14.7692 7.60611C14.9908 7.90149 15.4708 7.53226 15.2123 8.45534C15.2123 8.49226 14.8062 10.3753 14.3262 10.3753C14.2892 10.3753 14.1785 10.3384 14.0308 10.4123C13.9569 10.4492 13.8831 10.56 13.8831 10.6707C13.8462 10.8184 13.1815 14.2523 10.3015 14.363C7.42154 14.2523 6.75692 10.8184 6.72 10.6707C6.75692 10.5969 6.68308 10.523 6.60923 10.4492ZM11.8523 23.0769H8.86154L9.93231 19.9384C10.0431 19.6061 9.74769 19.5323 9.00923 18.4984L10.3754 18.1292L11.7046 18.4984C10.4862 20.4923 10.3385 18.4615 11.8523 23.0769ZM7.16308 15.5446L9.56308 17.5753L7.27385 18.203L6.31385 15.8769L7.16308 15.5446ZM11.1138 17.5753L13.4769 15.5076L14.2892 15.84L13.2923 18.203L11.1138 17.5753ZM13.0338 13.9569V14.9538L10.3385 17.28L7.64308 15.0276V13.9569C9.15692 15.4707 11.4092 15.5815 13.0338 13.9569ZM0.923077 19.7169C0.923077 18.683 1.58769 17.723 2.54769 17.3538L5.61231 16.1723L6.72 18.7938C6.79385 18.9415 6.90462 19.0153 7.05231 19.0153H7.16308L8.23385 18.72L9.15692 19.9015L8.04923 23.0769H0.923077V19.7169ZM19.7538 23.0769H12.6277L11.52 19.9015L12.4431 18.72L13.4031 18.9784H13.5138C13.6615 18.9784 13.8092 18.9046 13.8462 18.7569L14.9538 16.0984L18.0923 17.3169C19.0523 17.6861 19.7169 18.6461 19.7169 19.68V23.0769H19.7538ZM23.0769 20.123C23.0769 20.3446 22.9292 20.4923 22.7077 20.4923H20.4923V19.68C20.4923 18.3507 19.6431 17.0953 18.3877 16.6153L13.7723 14.843V12.9969C14.2154 12.2584 14.4738 11.52 14.5846 11.1138C15.4708 10.9292 15.8769 9.23072 15.9877 8.67688C16.1723 8.08611 16.1354 7.49534 15.6185 7.16303C15.9138 6.20303 16.0246 5.3538 16.0246 4.65226H22.7815C23.0031 4.65226 23.1508 4.79996 23.1508 5.02149V20.123H23.0769Z" fill="black"/>
<path d="M21.6 6.3877H20.1231C19.9015 6.3877 19.7538 6.53539 19.7538 6.75693C19.7538 6.97846 19.9015 7.12616 20.1231 7.12616H21.6C21.8215 7.12616 21.9692 6.97846 21.9692 6.75693C21.9692 6.53539 21.8215 6.3877 21.6 6.3877ZM21.6 9.34154H20.1231C19.9015 9.34154 19.7538 9.48923 19.7538 9.71077C19.7538 9.93231 19.9015 10.08 20.1231 10.08H21.6C21.8215 10.08 21.9692 9.93231 21.9692 9.71077C21.9692 9.48923 21.8215 9.34154 21.6 9.34154ZM21.6 12.2954H20.1231C19.9015 12.2954 19.7538 12.4431 19.7538 12.6646C19.7538 12.8862 19.9015 13.0338 20.1231 13.0338H21.6C21.8215 13.0338 21.9692 12.8862 21.9692 12.6646C21.9692 12.4431 21.8215 12.2954 21.6 12.2954ZM18.2769 6.3877H17.5385C17.0585 6.3877 17.0585 7.12616 17.5385 7.12616H18.2769C18.4985 7.12616 18.6462 6.97846 18.6462 6.75693C18.6462 6.53539 18.4985 6.3877 18.2769 6.3877ZM18.2769 9.34154C17.9446 9.37846 17.1692 9.15693 17.1692 9.71077C17.1692 9.93231 17.3169 10.08 17.5385 10.08H18.2769C18.4985 10.08 18.6462 9.93231 18.6462 9.71077C18.6462 9.48923 18.4985 9.34154 18.2769 9.34154ZM18.2769 12.2954H17.5385C17.3169 12.2954 17.1692 12.4431 17.1692 12.6646C17.1692 12.8862 17.3169 13.0338 17.5385 13.0338H18.2769C18.4985 13.0338 18.6462 12.8862 18.6462 12.6646C18.6462 12.4431 18.4985 12.2954 18.2769 12.2954ZM21.6 15.2123H20.1231C19.9015 15.2123 19.7538 15.36 19.7538 15.5815C19.7538 15.8031 19.9015 15.9508 20.1231 15.9508H21.6C21.8215 15.9508 21.9692 15.8031 21.9692 15.5815C21.9692 15.36 21.8215 15.2123 21.6 15.2123Z" fill="black"/>
</g>
<defs>
<clipPath id="clip0_673_1324">
<rect width="24" height="24" fill="white"/>
</clipPath>
</defs>
</svg>
