<svg width="24" height="24" viewBox="0 0 24 24" fill="none" xmlns="http://www.w3.org/2000/svg">
<g clip-path="url(#clip0_673_1337)">
<path d="M11.894 24C11.8201 24.0001 11.747 23.9838 11.6802 23.9522C11.6133 23.9207 11.5543 23.8747 11.5073 23.8176C11.4604 23.7605 11.4267 23.6937 11.4086 23.622C11.3906 23.5503 11.3887 23.4755 11.403 23.403L12.11 19.868C12.1288 19.7708 12.1765 19.6815 12.247 19.612L20.025 11.834C20.3067 11.5535 20.688 11.3961 21.0855 11.3961C21.483 11.3961 21.8643 11.5535 22.146 11.834L23.56 13.248C23.841 13.5294 23.9988 13.9108 23.9988 14.3085C23.9988 14.7062 23.841 15.0876 23.56 15.369L15.782 23.147C15.7122 23.2171 15.6231 23.2648 15.526 23.284L11.991 23.991C11.959 23.997 11.9265 24 11.894 24ZM13.062 20.211L12.532 22.862L15.183 22.332L22.854 14.661C22.9477 14.5672 23.0004 14.4401 23.0004 14.3075C23.0004 14.1749 22.9477 14.0478 22.854 13.954L21.44 12.54C21.3462 12.4463 21.2191 12.3936 21.0865 12.3936C20.9539 12.3936 20.8268 12.4463 20.733 12.54L13.062 20.211ZM9.5 21H2.5C1.83712 20.9995 1.20154 20.7359 0.732818 20.2672C0.264091 19.7985 0.00052931 19.1629 -3.57628e-07 18.5L-3.57628e-07 5.5C-3.57628e-07 4.121 1.121 3 2.5 3H4.5C4.63261 3 4.75979 3.05268 4.85355 3.14645C4.94732 3.24021 5 3.36739 5 3.5C5 3.63261 4.94732 3.75979 4.85355 3.85355C4.75979 3.94732 4.63261 4 4.5 4H2.5C1.673 4 1 4.673 1 5.5V18.5C1 19.327 1.673 20 2.5 20H9.5C9.63261 20 9.75979 20.0527 9.85355 20.1464C9.94732 20.2402 10 20.3674 10 20.5C10 20.6326 9.94732 20.7598 9.85355 20.8536C9.75979 20.9473 9.63261 21 9.5 21ZM16.5 12C16.3674 12 16.2402 11.9473 16.1464 11.8536C16.0527 11.7598 16 11.6326 16 11.5V5.5C16 4.673 15.327 4 14.5 4H12.5C12.3674 4 12.2402 3.94732 12.1464 3.85355C12.0527 3.75979 12 3.63261 12 3.5C12 3.36739 12.0527 3.24021 12.1464 3.14645C12.2402 3.05268 12.3674 3 12.5 3H14.5C15.879 3 17 4.121 17 5.5V11.5C17 11.6326 16.9473 11.7598 16.8536 11.8536C16.7598 11.9473 16.6326 12 16.5 12Z" fill="black"/>
<path d="M11.5 6H5.5C4.673 6 4 5.327 4 4.5V2.5C4 2.36739 4.05268 2.24021 4.14645 2.14645C4.24021 2.05268 4.36739 2 4.5 2H6.05C6.282 0.86 7.293 0 8.5 0C9.707 0 10.718 0.86 10.95 2H12.5C12.6326 2 12.7598 2.05268 12.8536 2.14645C12.9473 2.24021 13 2.36739 13 2.5V4.5C13 5.327 12.327 6 11.5 6ZM5 3V4.5C5 4.775 5.225 5 5.5 5H11.5C11.775 5 12 4.775 12 4.5V3H10.5C10.3674 3 10.2402 2.94732 10.1464 2.85355C10.0527 2.75979 10 2.63261 10 2.5C10 1.673 9.327 1 8.5 1C7.673 1 7 1.673 7 2.5C7 2.63261 6.94732 2.75979 6.85355 2.85355C6.75978 2.94732 6.63261 3 6.5 3H5ZM13.5 9H3.5C3.36739 9 3.24021 8.94732 3.14645 8.85355C3.05268 8.75979 3 8.63261 3 8.5C3 8.36739 3.05268 8.24021 3.14645 8.14645C3.24021 8.05268 3.36739 8 3.5 8H13.5C13.6326 8 13.7598 8.05268 13.8536 8.14645C13.9473 8.24021 14 8.36739 14 8.5C14 8.63261 13.9473 8.75979 13.8536 8.85355C13.7598 8.94732 13.6326 9 13.5 9ZM13.5 12H3.5C3.36739 12 3.24021 11.9473 3.14645 11.8536C3.05268 11.7598 3 11.6326 3 11.5C3 11.3674 3.05268 11.2402 3.14645 11.1464C3.24021 11.0527 3.36739 11 3.5 11H13.5C13.6326 11 13.7598 11.0527 13.8536 11.1464C13.9473 11.2402 14 11.3674 14 11.5C14 11.6326 13.9473 11.7598 13.8536 11.8536C13.7598 11.9473 13.6326 12 13.5 12ZM13.5 15H3.5C3.36739 15 3.24021 14.9473 3.14645 14.8536C3.05268 14.7598 3 14.6326 3 14.5C3 14.3674 3.05268 14.2402 3.14645 14.1464C3.24021 14.0527 3.36739 14 3.5 14H13.5C13.6326 14 13.7598 14.0527 13.8536 14.1464C13.9473 14.2402 14 14.3674 14 14.5C14 14.6326 13.9473 14.7598 13.8536 14.8536C13.7598 14.9473 13.6326 15 13.5 15Z" fill="black"/>
</g>
<defs>
<clipPath id="clip0_673_1337">
<rect width="24" height="24" fill="white"/>
</clipPath>
</defs>
</svg>
