<svg width="26" height="30" viewBox="0 0 26 30" fill="none" xmlns="http://www.w3.org/2000/svg">
<path fill-rule="evenodd" clip-rule="evenodd" d="M14.8806 18.3013V14.8645C14.8806 14.6276 14.6885 14.4352 14.4516 14.4352C14.2147 14.4352 14.0223 14.6276 14.0223 14.8645V18.489C14.0223 18.608 14.0718 18.7227 14.1601 18.804L17.4681 21.8665C17.6419 22.0276 17.9138 22.0171 18.075 21.843C18.1523 21.7594 18.1931 21.6485 18.1887 21.5348C18.1842 21.421 18.1347 21.3137 18.0511 21.2364L14.8806 18.3013ZM20.7693 18.9184C20.5577 22.0683 18.0312 24.5952 14.8805 24.8071V23.9423C14.8805 23.7053 14.6884 23.513 14.4515 23.513C14.2146 23.513 14.0222 23.7053 14.0222 23.9423V24.8071C10.8715 24.5951 8.34541 22.0683 8.13344 18.9184H8.99827C9.11209 18.9184 9.22125 18.8732 9.30173 18.7927C9.38221 18.7122 9.42742 18.6031 9.42742 18.4892C9.42742 18.3754 9.38221 18.2663 9.30173 18.1858C9.22125 18.1053 9.11209 18.0601 8.99827 18.0601H8.13344C8.34541 14.9094 10.8715 12.3829 14.0222 12.1706V13.0354C14.0222 13.2724 14.2147 13.4648 14.4515 13.4648C14.6884 13.4648 14.8805 13.2723 14.8805 13.0354V12.1706C18.0312 12.3829 20.5576 14.9094 20.7693 18.0601H19.9052C19.8488 18.06 19.793 18.071 19.7409 18.0925C19.6888 18.1141 19.6414 18.1456 19.6015 18.1855C19.5617 18.2253 19.53 18.2727 19.5085 18.3248C19.4869 18.3769 19.4758 18.4327 19.4759 18.4891C19.4759 18.5455 19.487 18.6013 19.5085 18.6534C19.5301 18.7055 19.5617 18.7529 19.6016 18.7927C19.6414 18.8326 19.6888 18.8642 19.7409 18.8858C19.793 18.9073 19.8488 18.9184 19.9052 18.9184H20.7693ZM7.35046 17.3501C7.70598 15.1246 9.08621 13.2362 10.9909 12.1862C10.7689 10.9752 10.2604 10.3496 9.5575 9.40799C9.0247 8.69439 8.42502 7.88959 7.97728 7.05337H4.56576C4.01747 8.03116 3.0393 9.28626 2.3193 10.3292C1.23392 11.9014 1.17094 14.1286 2.27117 15.7011C3.31789 17.1974 5.55859 17.6506 7.35046 17.3501ZM4.68403 2.77701C4.93472 3.33548 5.19296 3.91129 5.24032 4.56959H7.30918C7.36723 3.85535 7.74656 3.0046 8.0087 2.25151C7.8366 2.3084 7.65993 2.35039 7.48064 2.37701C6.16294 2.57017 5.86022 1.98757 5.06304 1.7509C4.88218 1.69701 4.6377 1.6558 4.27526 1.75129C4.38419 2.10898 4.53574 2.44716 4.68403 2.77701ZM4.97414 6.19506H7.58413C7.48826 5.9397 7.41344 5.68402 7.36422 5.42789H5.19046C5.14413 5.68613 5.07104 5.94079 4.97414 6.19506ZM13.9412 11.3155C14.2973 11.2911 14.6056 11.2911 14.9612 11.3155V9.87673H13.9412V11.3155ZM12.4597 9.01804H16.4431V8.25989H12.4597V9.01804ZM21.6428 18.489C21.6428 22.4543 18.4172 25.6802 14.4516 25.6802C10.3835 25.6802 7.11149 22.2838 7.26547 18.2322C5.19309 18.5138 2.76774 17.9083 1.56768 16.1933C0.26176 14.3269 0.324415 11.7106 1.61286 9.84236C1.9113 9.40978 2.19955 9.0101 2.47802 8.6245C3.60762 7.06124 4.42285 5.93209 4.38886 4.72185C4.3607 3.73017 3.58925 2.79237 3.34176 1.5621C3.32229 1.46514 3.33684 1.36442 3.38296 1.27693C3.42907 1.18944 3.50394 1.12052 3.59494 1.08178C4.61344 0.649015 5.27373 0.827063 6.1033 1.27743C6.4816 1.48357 6.7319 1.61925 7.35584 1.52773C7.69331 1.47781 8.05574 1.34002 8.46189 1.10457C8.77939 0.921591 9.17114 1.19801 9.09702 1.5621C8.99142 2.08511 8.7961 2.60921 8.6073 3.11705C8.38342 3.71781 8.17216 4.28569 8.15987 4.72191C8.1129 6.37465 9.91802 8.36774 10.9355 9.84242C11.3395 10.428 11.6296 11.0993 11.7894 11.8086C12.2076 11.6414 12.6407 11.5141 13.0829 11.4284V9.87673H12.0304C11.9166 9.87664 11.8075 9.83137 11.727 9.75087C11.6466 9.67037 11.6014 9.56122 11.6014 9.44742V7.83065C11.6013 7.77428 11.6124 7.71845 11.6339 7.66635C11.6555 7.61425 11.687 7.56692 11.7269 7.52704C11.7667 7.48717 11.814 7.45554 11.8661 7.43397C11.9182 7.4124 11.974 7.40131 12.0304 7.40134H16.8724C16.9288 7.40124 16.9847 7.41228 17.0368 7.43383C17.0889 7.45537 17.1363 7.48699 17.1762 7.52687C17.216 7.56675 17.2477 7.61412 17.2692 7.66625C17.2907 7.71837 17.3018 7.77424 17.3017 7.83065V9.44742C17.3017 9.5038 17.2906 9.55964 17.2691 9.61175C17.2475 9.66385 17.2159 9.71119 17.176 9.75106C17.1362 9.79093 17.0888 9.82255 17.0367 9.84412C16.9846 9.86568 16.9288 9.87676 16.8724 9.87673H15.8198V11.4284C19.133 12.0693 21.6428 14.9911 21.6428 18.489ZM25.3147 22.6792C25.1866 22.4792 24.9204 22.4221 24.7212 22.5501L24.1775 22.8999C25.5852 19.8038 25.4241 16.1806 23.738 13.217C22.8566 11.6671 21.5889 10.3502 20.0723 9.40985C19.8708 9.28434 19.6064 9.34694 19.4809 9.54841C19.4512 9.59628 19.4312 9.64954 19.4221 9.70513C19.413 9.76073 19.4149 9.81758 19.4278 9.87243C19.4406 9.92728 19.4642 9.97906 19.4971 10.0248C19.5299 10.0706 19.5715 10.1094 19.6194 10.1391C22.5314 11.9454 24.2701 15.0668 24.2701 18.4891C24.2701 20.0397 23.9098 21.5483 23.2186 22.9127L23.0866 21.9936C23.0529 21.7588 22.8352 21.5965 22.6005 21.6301C22.4878 21.6464 22.3863 21.7068 22.318 21.7979C22.2498 21.889 22.2205 22.0035 22.2366 22.1162L22.5441 24.247C22.578 24.4862 22.8022 24.6506 23.0345 24.6119C23.0345 24.6209 23.1532 24.5809 23.2095 24.5439L25.1859 23.2722C25.3852 23.1437 25.4431 22.8782 25.3147 22.6792ZM20.9302 25.8658C21.1082 25.7092 21.3795 25.7269 21.5364 25.9048C21.6115 25.9903 21.6496 26.1021 21.6422 26.2157C21.6349 26.3292 21.5828 26.4352 21.4974 26.5103C19.5496 28.2224 17.0449 29.1665 14.4516 29.1659C10.0097 29.1659 6.05094 26.4175 4.4729 22.2904L4.24934 23.0905C4.18496 23.3191 3.94803 23.4525 3.71981 23.3882C3.61021 23.3575 3.51728 23.2846 3.46146 23.1854C3.40563 23.0862 3.39149 22.9689 3.42214 22.8593L4.04064 20.6512C4.12058 20.3618 4.46272 20.2333 4.70829 20.4111L6.43757 21.8715C6.61914 22.0242 6.64154 22.2951 6.48858 22.4763C6.33594 22.6571 6.06464 22.6803 5.88384 22.5269L5.28454 22.0202C6.71827 25.7832 10.3107 28.3074 14.4516 28.3074C16.8362 28.3082 19.1393 27.4401 20.9302 25.8658ZM8.22682 13.2437C8.20563 12.8877 8.01683 12.3537 7.29331 12.0396C6.53363 11.7098 6.16224 11.9496 5.62266 11.7058C5.24 11.5227 5.20704 11.347 5.20275 11.2656C5.20493 10.8783 5.8903 10.6823 6.28205 10.6883C6.78803 10.7039 7.22029 10.8022 7.60294 10.9889C7.81632 11.0923 8.07347 11.0037 8.17696 10.7906C8.28077 10.5773 8.19181 10.3201 7.97914 10.2166C7.59174 10.0278 7.17146 9.90917 6.70381 9.85785V9.6437C6.70387 9.58733 6.69283 9.5315 6.6713 9.47941C6.64976 9.42731 6.61817 9.37997 6.57833 9.3401C6.53848 9.30022 6.49117 9.2686 6.43909 9.24703C6.38701 9.22546 6.33119 9.21437 6.27482 9.21439C6.21839 9.2143 6.16251 9.22534 6.11036 9.24687C6.05821 9.26841 6.01082 9.30002 5.9709 9.3399C5.93099 9.37978 5.89933 9.42714 5.87775 9.47927C5.85617 9.5314 5.84508 9.58728 5.84512 9.6437V9.86617C4.96851 10.0099 4.33267 10.5676 4.34374 11.276C4.35763 12.1658 5.3344 12.6924 6.2752 12.6953C6.5111 12.696 6.73651 12.7325 6.95155 12.8276C7.52307 13.0859 7.47917 13.4791 6.9552 13.7105C6.34374 13.9784 5.49894 13.8032 4.93152 13.5398C4.82814 13.492 4.70999 13.487 4.60299 13.5262C4.49599 13.5653 4.40888 13.6453 4.36077 13.7485C4.26131 13.963 4.35392 14.2184 4.56909 14.3182C4.97205 14.5063 5.4031 14.6271 5.84512 14.6759V14.8886C5.84515 14.945 5.85628 15.0008 5.87789 15.0529C5.89951 15.105 5.93117 15.1523 5.97107 15.1921C6.01098 15.2319 6.05834 15.2635 6.11046 15.2851C6.16258 15.3066 6.21843 15.3176 6.27482 15.3176C6.33115 15.3176 6.38694 15.3065 6.43898 15.2849C6.49103 15.2633 6.53832 15.2317 6.57816 15.1919C6.61799 15.1521 6.64959 15.1048 6.67115 15.0527C6.69271 15.0007 6.70381 14.9449 6.70381 14.8886V14.6687C7.58106 14.5286 8.18163 14.0107 8.22688 13.2996C8.22791 13.281 8.22789 13.2623 8.22682 13.2437Z" fill="black"/>
</svg>
