<svg width="31" height="30" viewBox="0 0 31 30" fill="none" xmlns="http://www.w3.org/2000/svg">
<path d="M3.89974 28.3253H5.98307C6.90224 28.3253 7.64974 27.5769 7.64974 26.6586V23.7753C7.64974 22.8561 6.90224 22.1086 5.98307 22.1086H3.89974C2.98057 22.1086 2.23307 22.8561 2.23307 23.7753V26.6586C2.23307 27.5769 2.98057 28.3253 3.89974 28.3253ZM3.89974 23.7753H5.98307L5.98474 26.6586H3.89974V23.7753ZM10.9831 28.3253H13.0664C13.9856 28.3253 14.7331 27.5769 14.7331 26.6586V16.3253C14.7331 15.4069 13.9856 14.6586 13.0664 14.6586H10.9831C10.0639 14.6586 9.31641 15.4069 9.31641 16.3253V26.6586C9.31641 27.5769 10.0639 28.3253 10.9831 28.3253ZM10.9831 16.3253H13.0664L13.0681 26.6586H10.9831V16.3253ZM18.0664 17.5586C17.1472 17.5586 16.3997 18.3061 16.3997 19.2253V26.6586C16.3997 27.5769 17.1472 28.3253 18.0664 28.3253H20.1497C21.0689 28.3253 21.8164 27.5769 21.8164 26.6586V19.2253C21.8164 18.3061 21.0689 17.5586 20.1497 17.5586H18.0664ZM18.0664 26.6586V19.2253H20.1497L20.1514 26.6586H18.0664ZM28.8997 26.6586V10.4753C28.8997 9.55611 28.1522 8.80861 27.2331 8.80861H25.1497C24.2306 8.80861 23.4831 9.55611 23.4831 10.4753V26.6586C23.4831 27.5769 24.2306 28.3253 25.1497 28.3253H27.2331C28.1522 28.3253 28.8997 27.5769 28.8997 26.6586ZM25.1497 10.4753H27.2331L27.2347 26.6586H25.1497V10.4753ZM5.52224 13.9478L11.8106 7.65945C11.9322 7.53839 12.0881 7.45769 12.2572 7.42832C12.4262 7.39895 12.6003 7.42233 12.7556 7.49528L17.7189 9.82945C18.1843 10.0485 18.706 10.1187 19.2127 10.0304C19.7195 9.94213 20.1867 9.69967 20.5506 9.33611L26.7897 3.09778C26.8693 3.02091 26.9328 2.92895 26.9765 2.82728C27.0202 2.72561 27.0432 2.61626 27.0441 2.50561C27.0451 2.39496 27.024 2.28523 26.9821 2.18282C26.9402 2.0804 26.8783 1.98736 26.8001 1.90912C26.7218 1.83087 26.6288 1.769 26.5264 1.72709C26.424 1.68519 26.3142 1.66411 26.2036 1.66507C26.0929 1.66603 25.9836 1.68902 25.8819 1.73269C25.7802 1.77637 25.6883 1.83985 25.6114 1.91945L19.3722 8.15861C19.251 8.27964 19.0953 8.36033 18.9265 8.38971C18.7577 8.41908 18.5839 8.39571 18.4289 8.32278L13.4656 5.98695C12.9995 5.76915 12.4778 5.69982 11.971 5.78836C11.4642 5.8769 10.9969 6.11902 10.6322 6.48195L4.34391 12.7703C4.26432 12.8472 4.20083 12.9391 4.15716 13.0408C4.11348 13.1424 4.09049 13.2518 4.08953 13.3624C4.08857 13.4731 4.10966 13.5828 4.15156 13.6852C4.19346 13.7877 4.25533 13.8807 4.33358 13.9589C4.41182 14.0372 4.50487 14.0991 4.60728 14.141C4.70969 14.1829 4.81943 14.2039 4.93007 14.203C5.04072 14.202 5.15007 14.179 5.25174 14.1354C5.35341 14.0917 5.44537 14.0282 5.52224 13.9486V13.9478Z" fill="black"/>
</svg>
