<svg width="22" height="22" viewBox="0 0 22 22" fill="none" xmlns="http://www.w3.org/2000/svg">
<g clip-path="url(#clip0_363_2639)">
<path d="M11 0C4.93457 0 0 4.93457 0 11C0 17.0653 4.93457 21.9999 11 21.9999C17.0653 21.9999 21.9999 17.0654 21.9999 11C21.9999 4.93453 17.0653 0 11 0ZM11 20.6249C5.69276 20.6249 1.375 16.3072 1.375 11C1.375 5.69276 5.69276 1.375 11 1.375C16.3072 1.375 20.6249 5.69271 20.6249 11C20.6249 16.3072 16.3072 20.6249 11 20.6249ZM17.1015 11C17.1015 11.3797 16.7937 11.6875 16.414 11.6875H11.6875V16.414C11.6875 16.7937 11.3796 17.1015 11 17.1015C10.6203 17.1015 10.3125 16.7937 10.3125 16.414V11.6875H5.58589C5.20622 11.6875 4.89839 11.3797 4.89839 11C4.89839 10.6202 5.20622 10.3125 5.58589 10.3125H10.3125V5.58589C10.3125 5.20618 10.6203 4.89839 11 4.89839C11.3796 4.89839 11.6875 5.20618 11.6875 5.58589V10.3125H16.414C16.7937 10.3125 17.1015 10.6203 17.1015 11Z" fill="black"/>
</g>
<defs>
<clipPath id="clip0_363_2639">
<rect width="22" height="22" fill="white"/>
</clipPath>
</defs>
</svg>
