<svg width="24" height="24" viewBox="0 0 24 24" fill="none" xmlns="http://www.w3.org/2000/svg">
<path d="M12 7.12462C12.5033 7.11775 12.9833 6.91157 13.3348 6.55129C13.6863 6.19101 13.8806 5.70605 13.875 5.20274V4.17149C13.8811 3.9214 13.8372 3.67261 13.7457 3.43976C13.6542 3.20692 13.5171 2.99473 13.3424 2.81568C13.1676 2.63663 12.9589 2.49434 12.7283 2.3972C12.4978 2.30005 12.2502 2.25 12 2.25C11.7498 2.25 11.5022 2.30005 11.2717 2.3972C11.0411 2.49434 10.8324 2.63663 10.6576 2.81568C10.4829 2.99473 10.3458 3.20692 10.2543 3.43976C10.1628 3.67261 10.1189 3.9214 10.125 4.17149V5.20274C10.1194 5.70605 10.3137 6.19101 10.6652 6.55129C11.0167 6.91157 11.4967 7.11775 12 7.12462ZM10.875 4.17149C10.8688 4.01989 10.8933 3.8686 10.9471 3.72671C11.0008 3.58483 11.0827 3.45526 11.1878 3.34581C11.2928 3.23635 11.419 3.14927 11.5585 3.08978C11.6981 3.03029 11.8483 2.99962 12 2.99962C12.1517 2.99962 12.3019 3.03029 12.4415 3.08978C12.581 3.14927 12.7072 3.23635 12.8122 3.34581C12.9173 3.45526 12.9992 3.58483 13.0529 3.72671C13.1067 3.8686 13.1312 4.01989 13.125 4.17149V5.20274C13.1312 5.35434 13.1067 5.50563 13.0529 5.64752C12.9992 5.78941 12.9173 5.91897 12.8122 6.02843C12.7072 6.13788 12.581 6.22497 12.4415 6.28446C12.3019 6.34395 12.1517 6.37462 12 6.37462C11.8483 6.37462 11.6981 6.34395 11.5585 6.28446C11.419 6.22497 11.2928 6.13788 11.1878 6.02843C11.0827 5.91897 11.0008 5.78941 10.9471 5.64752C10.8933 5.50563 10.8688 5.35434 10.875 5.20274V4.17149ZM8.70206 8.62462C8.81577 8.32252 9.02456 8.06555 9.297 7.89243L10.4436 7.34924C10.2311 7.18917 10.0437 6.99817 9.88781 6.78262L8.9625 7.22099C8.95569 7.22426 8.94894 7.22763 8.94225 7.23112C8.67459 7.39355 8.44408 7.61044 8.26568 7.86773C8.08727 8.12501 7.96496 8.41694 7.90669 8.72456C8.09279 8.65878 8.28868 8.62499 8.48606 8.62462H8.70206ZM13.5566 7.34924L14.7023 7.89206C14.9762 8.06469 15.1865 8.32184 15.3013 8.62462H15.5139C15.7123 8.62503 15.9092 8.65914 16.0961 8.72549C16.0381 8.4173 15.9156 8.12486 15.7367 7.86732C15.5577 7.60979 15.3264 7.39298 15.0577 7.23112C15.0511 7.22763 15.0443 7.22426 15.0375 7.22099L14.1122 6.78262C13.9563 6.99812 13.769 7.18911 13.5566 7.34924ZM12 13.4996C12.2225 13.4996 12.44 13.4336 12.625 13.31C12.81 13.1864 12.9542 13.0107 13.0394 12.8051C13.1245 12.5996 13.1468 12.3734 13.1034 12.1551C13.06 11.9369 12.9528 11.7365 12.7955 11.5791C12.6382 11.4218 12.4377 11.3146 12.2195 11.2712C12.0012 11.2278 11.775 11.2501 11.5695 11.3353C11.3639 11.4204 11.1882 11.5646 11.0646 11.7496C10.941 11.9346 10.875 12.1521 10.875 12.3746C10.8753 12.6729 10.994 12.9588 11.2049 13.1697C11.4158 13.3806 11.7017 13.4993 12 13.4996ZM12 11.9996C12.0742 11.9996 12.1467 12.0216 12.2083 12.0628C12.27 12.104 12.3181 12.1626 12.3465 12.2311C12.3748 12.2996 12.3823 12.375 12.3678 12.4478C12.3533 12.5205 12.3176 12.5873 12.2652 12.6398C12.2127 12.6922 12.1459 12.7279 12.0732 12.7424C12.0004 12.7569 11.925 12.7495 11.8565 12.7211C11.788 12.6927 11.7294 12.6446 11.6882 12.583C11.647 12.5213 11.625 12.4488 11.625 12.3746C11.6251 12.2752 11.6647 12.1799 11.735 12.1096C11.8053 12.0393 11.9006 11.9998 12 11.9996ZM4.125 7.12462H7.125C7.32385 7.12442 7.5145 7.04534 7.65511 6.90473C7.79572 6.76412 7.8748 6.57347 7.875 6.37462V3.37462C7.8748 3.17577 7.79572 2.98512 7.65511 2.84451C7.5145 2.7039 7.32385 2.62482 7.125 2.62462H4.125C3.92615 2.62482 3.7355 2.7039 3.59489 2.84451C3.45428 2.98512 3.3752 3.17577 3.375 3.37462V6.37462C3.3752 6.57347 3.45428 6.76412 3.59489 6.90473C3.7355 7.04534 3.92615 7.12442 4.125 7.12462ZM4.125 3.37462H7.125L7.12556 6.37462H4.125V3.37462ZM14.49 16.2189C14.5237 16.1228 14.5408 16.0216 14.5406 15.9197C14.5411 15.8011 14.5178 15.6837 14.4722 15.5743C14.4266 15.4649 14.3596 15.3657 14.2751 15.2826L13.9644 14.9719C13.8445 14.8522 13.6933 14.7688 13.5281 14.7313C13.3629 14.6938 13.1905 14.7037 13.0307 14.7598C12.9574 14.6071 12.8425 14.4782 12.6992 14.3879C12.5558 14.2976 12.3899 14.2497 12.2205 14.2496H11.7787C11.6094 14.2497 11.4436 14.2976 11.3003 14.3879C11.157 14.4781 11.0422 14.607 10.9689 14.7596C10.8095 14.7036 10.6375 14.6935 10.4726 14.7307C10.3078 14.7678 10.1567 14.8506 10.0367 14.9696L9.72169 15.2848C9.60205 15.4048 9.51871 15.5561 9.48123 15.7214C9.44375 15.8866 9.45365 16.0591 9.50981 16.2189C9.35726 16.2921 9.22847 16.4069 9.13828 16.5501C9.04809 16.6932 9.00016 16.859 9 17.0282V17.4707C9.00014 17.6399 9.04808 17.8057 9.13831 17.9489C9.22854 18.0921 9.35738 18.2069 9.51 18.2801C9.47602 18.3767 9.45877 18.4783 9.459 18.5807C9.45873 18.6988 9.48199 18.8158 9.52741 18.9248C9.57284 19.0339 9.63952 19.1327 9.72356 19.2157L10.0346 19.527C10.1546 19.6466 10.3059 19.73 10.4711 19.7675C10.6364 19.8051 10.8088 19.7953 10.9688 19.7392C11.042 19.892 11.1568 20.0209 11.3001 20.1112C11.4435 20.2015 11.6094 20.2495 11.7787 20.2496H12.2207C12.3901 20.2495 12.556 20.2015 12.6993 20.1112C12.8426 20.0209 12.9575 19.892 13.0307 19.7392C13.1269 19.7729 13.228 19.79 13.3299 19.7899C13.4478 19.7903 13.5646 19.7673 13.6735 19.7222C13.7824 19.6771 13.8813 19.6109 13.9644 19.5274L14.2778 19.2139C14.3614 19.1311 14.4278 19.0325 14.4729 18.9237C14.5181 18.815 14.5411 18.6984 14.5406 18.5807C14.5409 18.4784 14.5236 18.3768 14.4896 18.2803C14.6423 18.2072 14.7712 18.0924 14.8615 17.9492C14.9518 17.806 14.9998 17.6402 15 17.4709V17.0284C14.9999 16.8591 14.952 16.6933 14.8617 16.5501C14.7715 16.4069 14.6426 16.2921 14.49 16.2189ZM14.25 17.4709C14.25 17.51 14.2345 17.5474 14.2068 17.5751C14.1792 17.6027 14.1417 17.6182 14.1026 17.6182H13.8816C13.8392 17.6205 13.7985 17.6357 13.765 17.6618C13.7315 17.6878 13.7068 17.7234 13.6941 17.7639C13.6605 17.8748 13.6159 17.9821 13.5611 18.0842C13.5416 18.1217 13.534 18.1644 13.5393 18.2063C13.5447 18.2483 13.5628 18.2877 13.5911 18.3191L13.7471 18.4759C13.7608 18.4895 13.7717 18.5056 13.7792 18.5235C13.7866 18.5413 13.7904 18.5604 13.7904 18.5797C13.7904 18.5991 13.7866 18.6182 13.7792 18.636C13.7717 18.6538 13.7608 18.67 13.7471 18.6836L13.434 18.9971C13.4061 19.0243 13.3687 19.0395 13.3298 19.0395C13.2908 19.0395 13.2534 19.0243 13.2255 18.9971L13.0689 18.8407C13.0376 18.8124 12.9983 18.7943 12.9564 18.7891C12.9145 18.7838 12.872 18.7915 12.8346 18.8111C12.7322 18.8657 12.6248 18.9104 12.5139 18.9444C12.4735 18.9571 12.4379 18.9818 12.4119 19.0152C12.3859 19.0487 12.3707 19.0893 12.3684 19.1316V19.3526C12.3684 19.372 12.3646 19.3911 12.3571 19.409C12.3497 19.4269 12.3388 19.4431 12.3251 19.4568C12.3113 19.4704 12.2951 19.4812 12.2771 19.4886C12.2592 19.4959 12.24 19.4997 12.2207 19.4996H11.7787C11.7396 19.4997 11.7021 19.4843 11.6744 19.4567C11.6466 19.4292 11.631 19.3917 11.6308 19.3526V19.1316C11.6286 19.0893 11.6135 19.0487 11.5876 19.0153C11.5616 18.9818 11.5261 18.9571 11.4857 18.9444C11.3297 18.8979 11.0846 18.6862 10.9301 18.8407L10.7739 18.9971C10.746 19.0242 10.7085 19.0394 10.6696 19.0394C10.6306 19.0394 10.5932 19.0242 10.5652 18.9971L10.2521 18.6836C10.2385 18.67 10.2276 18.6538 10.2203 18.636C10.2129 18.6181 10.2091 18.599 10.2091 18.5797C10.2091 18.5604 10.2129 18.5413 10.2203 18.5235C10.2276 18.5057 10.2385 18.4895 10.2521 18.4759L10.4087 18.3191C10.437 18.2876 10.455 18.2483 10.4602 18.2063C10.4655 18.1643 10.4579 18.1217 10.4383 18.0842C10.3836 17.9819 10.339 17.8745 10.3052 17.7636C10.2925 17.7232 10.2678 17.6876 10.2344 17.6616C10.2009 17.6356 10.1603 17.6205 10.1181 17.6182H9.89719C9.87784 17.6182 9.85869 17.6144 9.84082 17.607C9.82295 17.5996 9.80671 17.5888 9.79304 17.5751C9.77937 17.5614 9.76854 17.5451 9.76115 17.5273C9.75376 17.5094 9.74998 17.4902 9.75 17.4709V17.0284C9.74998 17.009 9.75376 16.9899 9.76115 16.972C9.76854 16.9541 9.77937 16.9379 9.79304 16.9242C9.80671 16.9105 9.82295 16.8996 9.84082 16.8922C9.85869 16.8848 9.87784 16.881 9.89719 16.881H10.1181C10.1604 16.8788 10.201 16.8637 10.2345 16.8377C10.268 16.8117 10.2927 16.7761 10.3054 16.7357C10.339 16.6247 10.3836 16.5173 10.4383 16.4151C10.4579 16.3776 10.4655 16.335 10.4602 16.293C10.4549 16.2511 10.4369 16.2118 10.4087 16.1803L10.2521 16.0236C10.2245 15.9959 10.209 15.9585 10.209 15.9194C10.209 15.8803 10.2245 15.8429 10.2521 15.8152L10.5652 15.5019C10.5932 15.4748 10.6306 15.4597 10.6696 15.4597C10.7085 15.4597 10.746 15.4748 10.7739 15.5019L10.9301 15.6585C10.9616 15.6868 11.001 15.7047 11.0431 15.71C11.0851 15.7153 11.1277 15.7077 11.1652 15.6881C11.2674 15.6337 11.3745 15.5891 11.4851 15.555C11.5256 15.5423 11.5613 15.5176 11.5873 15.4841C11.6134 15.4505 11.6285 15.4099 11.6308 15.3675V15.1472C11.6309 15.108 11.6466 15.0704 11.6743 15.0427C11.7021 15.0151 11.7397 14.9996 11.7789 14.9996H12.2207C12.2401 14.9996 12.2593 15.0034 12.2772 15.0108C12.2951 15.0182 12.3114 15.0291 12.3252 15.0428C12.3389 15.0565 12.3498 15.0728 12.3572 15.0907C12.3646 15.1086 12.3684 15.1278 12.3684 15.1472V15.3677C12.3708 15.41 12.3859 15.4506 12.4119 15.4841C12.4379 15.5175 12.4735 15.5423 12.5139 15.555C12.6248 15.589 12.7322 15.6336 12.8346 15.6881C12.872 15.7078 12.9145 15.7155 12.9564 15.7102C12.9983 15.7049 13.0376 15.6868 13.0689 15.6585L13.2255 15.5019C13.2534 15.4748 13.2908 15.4596 13.3298 15.4596C13.3687 15.4596 13.4061 15.4748 13.434 15.5019L13.7471 15.8151C13.7609 15.8287 13.7718 15.8449 13.7793 15.8628C13.7867 15.8807 13.7906 15.8999 13.7906 15.9193C13.7906 15.9387 13.7867 15.9579 13.7793 15.9758C13.7718 15.9937 13.7609 16.0099 13.7471 16.0236L13.5909 16.1803C13.5626 16.2118 13.5446 16.2511 13.5392 16.2931C13.5339 16.3351 13.5415 16.3777 13.5611 16.4152C13.6162 16.5173 13.6608 16.6246 13.6943 16.7357C13.7069 16.7761 13.7317 16.8118 13.7652 16.8377C13.7987 16.8637 13.8394 16.8788 13.8818 16.881H14.1026C14.1417 16.881 14.1791 16.8966 14.2067 16.9241C14.2343 16.9517 14.2499 16.9891 14.25 17.0282V17.4709Z" fill="black"/>
<path d="M12.0006 16.125C11.7781 16.1249 11.5605 16.1908 11.3754 16.3143C11.1904 16.4378 11.0461 16.6135 10.9608 16.819C10.8756 17.0245 10.8532 17.2507 10.8965 17.469C10.9398 17.6872 11.0469 17.8878 11.2042 18.0452C11.3614 18.2026 11.5619 18.3098 11.7801 18.3533C11.9983 18.3968 12.2245 18.3746 12.4301 18.2895C12.6357 18.2045 12.8115 18.0603 12.9352 17.8753C13.0589 17.6904 13.1249 17.4729 13.125 17.2504C13.1246 16.9522 13.006 16.6663 12.7953 16.4554C12.5845 16.2444 12.2987 16.1256 12.0006 16.125ZM12.0006 17.625C11.9264 17.6251 11.8538 17.6032 11.792 17.562C11.7303 17.5209 11.6821 17.4623 11.6537 17.3938C11.6252 17.3253 11.6177 17.2498 11.6322 17.177C11.6466 17.1043 11.6823 17.0374 11.7348 16.9849C11.7872 16.9324 11.8541 16.8967 11.9269 16.8822C11.9996 16.8677 12.0751 16.8752 12.1436 16.9036C12.2122 16.932 12.2708 16.9801 12.3119 17.0419C12.3531 17.1036 12.3751 17.1762 12.375 17.2504C12.3748 17.3496 12.3352 17.4447 12.2651 17.5149C12.1949 17.5851 12.0998 17.6247 12.0006 17.625ZM6.08044 4.20881L5.43056 4.72856L5.22056 4.48256C5.15597 4.40693 5.06397 4.36005 4.96481 4.35224C4.86565 4.34444 4.76745 4.37634 4.69181 4.44094C4.61618 4.50553 4.5693 4.59753 4.56149 4.69669C4.55369 4.79585 4.58559 4.89405 4.65019 4.96969L5.09588 5.49169C5.1603 5.56383 5.24958 5.60901 5.34587 5.61819C5.44215 5.62736 5.53836 5.59986 5.61525 5.54119L6.54881 4.79494C6.5873 4.76418 6.61935 4.72615 6.64314 4.68301C6.66692 4.63987 6.68198 4.59247 6.68745 4.54351C6.69291 4.49455 6.68868 4.44499 6.675 4.39766C6.66131 4.35034 6.63844 4.30617 6.60769 4.26769C6.57693 4.2292 6.5389 4.19715 6.49576 4.17336C6.45262 4.14958 6.40522 4.13452 6.35626 4.12905C6.3073 4.12359 6.25774 4.12782 6.21041 4.1415C6.16309 4.15519 6.11892 4.17806 6.08044 4.20881ZM16.875 7.125H19.875C20.0739 7.1248 20.2645 7.04572 20.4051 6.90511C20.5457 6.7645 20.6248 6.57385 20.625 6.375V3.375C20.6248 3.17615 20.5457 2.9855 20.4051 2.84489C20.2645 2.70428 20.0739 2.6252 19.875 2.625H16.875C16.6761 2.6252 16.4855 2.70428 16.3449 2.84489C16.2043 2.9855 16.1252 3.17615 16.125 3.375V6.375C16.1252 6.57385 16.2043 6.7645 16.3449 6.90511C16.4855 7.04572 16.6761 7.1248 16.875 7.125ZM16.875 3.375H19.875L19.8756 6.375H16.875V3.375Z" fill="black"/>
<path d="M18.8304 4.20903L18.1806 4.72878L17.9706 4.48278C17.906 4.40714 17.814 4.36027 17.7148 4.35246C17.6156 4.34465 17.5175 4.37656 17.4418 4.44116C17.3662 4.50575 17.3193 4.59775 17.3115 4.69691C17.3037 4.79607 17.3356 4.89427 17.4002 4.96991L17.8459 5.49191C17.9098 5.56491 17.9991 5.61072 18.0957 5.61992C18.1923 5.62912 18.2887 5.60103 18.3652 5.54141L19.2988 4.79516C19.3765 4.73305 19.4264 4.6426 19.4374 4.54372C19.4485 4.44485 19.4198 4.34563 19.3577 4.26791C19.2956 4.19018 19.2051 4.14031 19.1063 4.12927C19.0074 4.11823 18.9082 4.14692 18.8304 4.20903ZM15.9189 14.4467L16.4964 10.3864L16.5 10.3335C16.496 10.0758 16.3899 9.83021 16.205 9.65057C16.0202 9.47093 15.7717 9.37191 15.5139 9.37522H8.48625C8.22849 9.37186 7.97991 9.47086 7.79503 9.6505C7.61015 9.83015 7.50405 10.0758 7.5 10.3335L8.08106 14.4467C8.09043 14.655 8.16709 14.8546 8.29955 15.0157C8.43201 15.1767 8.61311 15.2904 8.81569 15.3398C8.89751 15.1203 9.02552 14.921 9.19106 14.7553L9.32137 14.6252H9.06637C9.00756 14.6285 8.94982 14.6085 8.90566 14.5695C8.86151 14.5305 8.8345 14.4757 8.8305 14.4169L8.25113 10.3142C8.26034 10.2594 8.28935 10.2099 8.33265 10.175C8.37596 10.1402 8.43055 10.1225 8.48606 10.1252H15.5138C15.5693 10.1225 15.6239 10.1402 15.6672 10.175C15.7105 10.2099 15.7395 10.2594 15.7487 10.3142L15.1731 14.3642L15.1693 14.4167C15.1654 14.4755 15.1384 14.5304 15.0942 14.5694C15.0501 14.6085 14.9923 14.6285 14.9334 14.6252H14.6779L14.8029 14.7503C14.9703 14.9175 15.0997 15.1187 15.1824 15.3403C15.3854 15.2913 15.567 15.1776 15.6999 15.0165C15.8327 14.8553 15.9096 14.6554 15.9189 14.4467ZM0.75 15.7493C0.750198 15.6499 0.789783 15.5547 0.860077 15.4845C0.930371 15.4142 1.02564 15.3748 1.125 15.3747H7.632C7.47715 15.1517 7.37871 14.8946 7.34513 14.6252H1.125C0.826855 14.6254 0.540964 14.7439 0.330055 14.9546C0.119147 15.1653 0.000446854 15.4511 0 15.7493L0 16.4987C0 16.5982 0.0395088 16.6936 0.109835 16.7639C0.180161 16.8342 0.275544 16.8737 0.375 16.8737H2.8125V21.3756C2.8125 21.475 2.85201 21.5704 2.92234 21.6408C2.99266 21.7111 3.08804 21.7506 3.1875 21.7506C3.28696 21.7506 3.38234 21.7111 3.45266 21.6408C3.52299 21.5704 3.5625 21.475 3.5625 21.3756V16.8737H4.3125V21.3756C4.3125 21.475 4.35201 21.5704 4.42234 21.6408C4.49266 21.7111 4.58804 21.7506 4.6875 21.7506C4.78696 21.7506 4.88234 21.7111 4.95266 21.6408C5.02299 21.5704 5.0625 21.475 5.0625 21.3756V16.8737H8.2575C8.2823 16.606 8.37271 16.3485 8.52075 16.1241H0.75V15.7493ZM22.875 14.6252H16.6549C16.6213 14.8946 16.5228 15.1517 16.368 15.3747H22.875C22.9744 15.3748 23.0696 15.4142 23.1399 15.4845C23.2102 15.5547 23.2498 15.6499 23.25 15.7493V16.1243H15.4792C15.6273 16.3486 15.7177 16.6059 15.7425 16.8735H18.9375V21.3703C18.9375 21.4698 18.977 21.5652 19.0473 21.6355C19.1177 21.7058 19.213 21.7453 19.3125 21.7453C19.412 21.7453 19.5073 21.7058 19.5777 21.6355C19.648 21.5652 19.6875 21.4698 19.6875 21.3703V16.8733H20.4375V21.3702C20.4375 21.4696 20.477 21.565 20.5473 21.6353C20.6177 21.7056 20.713 21.7452 20.8125 21.7452C20.912 21.7452 21.0073 21.7056 21.0777 21.6353C21.148 21.565 21.1875 21.4696 21.1875 21.3702V16.8733H23.625C23.7244 16.8733 23.8198 16.8339 23.8901 16.7636C23.9604 16.6933 24 16.598 24 16.4985V15.7491C23.9995 15.451 23.8808 15.1652 23.6699 14.9545C23.459 14.7439 23.1731 14.6254 22.875 14.6252Z" fill="black"/>
</svg>
