<svg width="32" height="32" viewBox="0 0 32 32" fill="none" xmlns="http://www.w3.org/2000/svg">
<path d="M3.26331 11.3687C3.1838 11.2847 3.14075 11.1727 3.14357 11.0571C3.1464 10.9415 3.19488 10.8317 3.27841 10.7518C3.36194 10.6718 3.47372 10.6282 3.58933 10.6304C3.70495 10.6326 3.81498 10.6805 3.89538 10.7636L4.44663 11.3394V9.97742C4.44747 9.22688 4.74599 8.50732 5.2767 7.9766C5.80741 7.44588 6.52696 7.14734 7.2775 7.14648H23.4994C24.2499 7.14734 24.9695 7.44588 25.5002 7.9766C26.0309 8.50732 26.3294 9.22688 26.3303 9.97742V12.3708C26.3303 12.4868 26.2842 12.5981 26.2021 12.6802C26.1201 12.7622 26.0088 12.8083 25.8928 12.8083C25.7767 12.8083 25.6654 12.7622 25.5834 12.6802C25.5013 12.5981 25.4553 12.4868 25.4553 12.3708V9.97742C25.4547 9.45886 25.2484 8.96171 24.8818 8.59503C24.5151 8.22834 24.0179 8.02208 23.4994 8.02148H7.2775C6.75894 8.02208 6.2618 8.22834 5.89512 8.59503C5.52845 8.96171 5.32221 9.45886 5.32163 9.97742V11.3407L5.93125 10.705C6.01216 10.624 6.12165 10.5778 6.2362 10.5766C6.35074 10.5753 6.46121 10.619 6.54387 10.6984C6.62653 10.7777 6.67479 10.8862 6.67827 11.0007C6.68175 11.1152 6.64019 11.2265 6.5625 11.3107L5.2 12.7317C5.15918 12.7743 5.11017 12.8082 5.05592 12.8313C5.00167 12.8545 4.9433 12.8664 4.88431 12.8664C4.82528 12.8664 4.76687 12.8544 4.71258 12.8312C4.65829 12.8081 4.60926 12.7741 4.56844 12.7315L3.26331 11.3687ZM8.593 19.752C9.305 20.4294 9.563 21.5804 9.38169 23.2708C9.37259 23.3585 9.34587 23.4434 9.30312 23.5206C9.26038 23.5977 9.20249 23.6654 9.13294 23.7195C8.17431 24.4724 6.86356 24.8534 5.23488 24.8534C5.15721 24.8534 5.07884 24.8526 4.99975 24.8509C3.26081 24.889 1.87106 24.5084 0.866439 23.7196C0.796945 23.6654 0.739107 23.5978 0.696396 23.5207C0.653684 23.4436 0.626977 23.3587 0.617877 23.271C0.436627 21.5805 0.694627 20.4296 1.40656 19.7523C1.4145 19.7448 1.42263 19.7375 1.431 19.7307C1.79211 19.4264 2.20966 19.1963 2.65977 19.0535C3.10988 18.9108 3.58372 18.8581 4.05419 18.8987C4.12141 18.9038 4.18655 18.9243 4.24452 18.9587C4.30249 18.9931 4.35172 19.0405 4.38838 19.097C4.49869 19.2673 4.73294 19.3731 4.99981 19.3731C5.26669 19.3731 5.50094 19.2673 5.61119 19.097C5.64784 19.0405 5.69708 18.9931 5.75505 18.9587C5.81302 18.9243 5.87815 18.9038 5.94538 18.8987C6.41585 18.858 6.88973 18.9106 7.33988 19.0533C7.79003 19.196 8.20762 19.426 8.56875 19.7303C8.57694 19.7374 8.58506 19.7444 8.593 19.7519V19.752ZM8.00113 20.3968C7.49741 19.9721 6.85571 19.7465 6.19706 19.7624C5.90888 20.07 5.4775 20.248 4.99981 20.248C4.52213 20.248 4.09069 20.07 3.8025 19.7624C3.14389 19.7464 2.50219 19.972 1.9985 20.3967C1.5235 20.8599 1.3485 21.7642 1.47844 23.0859C2.31725 23.7104 3.49719 24.0099 4.98975 23.9757H5.00969C6.50181 24.0099 7.68219 23.7105 8.52113 23.0859C8.65094 21.7644 8.47606 20.8599 8.00113 20.3967V20.3968ZM2.55338 16.3921C2.55336 15.9083 2.69683 15.4353 2.96563 15.0329C3.23443 14.6306 3.6165 14.317 4.06352 14.1319C4.51053 13.9467 5.00242 13.8982 5.47698 13.9926C5.95154 14.087 6.38746 14.3199 6.72962 14.6621C7.07177 15.0042 7.30479 15.4401 7.39922 15.9146C7.49364 16.3892 7.44522 16.8811 7.26009 17.3281C7.07495 17.7751 6.76142 18.1572 6.35913 18.4261C5.95683 18.6949 5.48386 18.8384 5 18.8385C4.35137 18.8378 3.72949 18.5799 3.27081 18.1212C2.81214 17.6626 2.55412 17.0407 2.55338 16.3921ZM3.42838 16.3921C3.42838 16.7029 3.52054 17.0067 3.6932 17.2651C3.86586 17.5236 4.11128 17.725 4.39841 17.8439C4.68554 17.9629 5.00149 17.994 5.30632 17.9334C5.61114 17.8727 5.89115 17.7231 6.11092 17.5033C6.3307 17.2836 6.48038 17.0036 6.54103 16.6988C6.60169 16.394 6.5706 16.078 6.45169 15.7909C6.33278 15.5037 6.13139 15.2583 5.87299 15.0856C5.6146 14.9129 5.31079 14.8207 5 14.8207C4.58334 14.8211 4.18386 14.9868 3.88922 15.2814C3.59458 15.576 3.42884 15.9754 3.42838 16.3921ZM31.3821 23.2705C31.373 23.3583 31.3463 23.4432 31.3036 23.5203C31.2608 23.5975 31.2029 23.6652 31.1334 23.7194C30.1748 24.4722 28.8641 24.8532 27.2354 24.8532C27.1576 24.8532 27.0791 24.8524 27.0003 24.8507C25.2611 24.8882 23.8714 24.5081 22.8669 23.7194C22.7974 23.6652 22.7395 23.5976 22.6968 23.5205C22.6541 23.4434 22.6274 23.3585 22.6183 23.2709C22.4371 21.5804 22.695 20.4295 23.407 19.7521C23.4149 19.7446 23.4231 19.7374 23.4314 19.7305C23.7926 19.4263 24.2101 19.1962 24.6602 19.0535C25.1104 18.9108 25.5842 18.8583 26.0546 18.8989C26.1218 18.9039 26.187 18.9245 26.245 18.9589C26.3029 18.9933 26.3522 19.0407 26.3888 19.0972C26.4991 19.2675 26.7333 19.3733 27.0002 19.3733C27.2671 19.3733 27.5013 19.2675 27.6116 19.0972C27.6483 19.0407 27.6975 18.9933 27.7555 18.9589C27.8135 18.9245 27.8786 18.9039 27.9458 18.8989C28.4162 18.8583 28.89 18.9108 29.3401 19.0535C29.7901 19.1961 30.2076 19.4261 30.5688 19.7303C30.5771 19.7372 30.5853 19.7444 30.5932 19.7519C31.3054 20.4292 31.5634 21.5802 31.3821 23.2705ZM30.0015 20.3967C29.4977 19.9722 28.8561 19.7466 28.1975 19.7624C27.9093 20.07 27.4779 20.248 27.0002 20.248C26.5225 20.248 26.0911 20.07 25.8029 19.7624C25.1443 19.7462 24.5025 19.9718 23.9989 20.3967C23.5239 20.8599 23.3489 21.7643 23.4789 23.0859C24.3179 23.7104 25.4963 24.0095 26.9903 23.9757H27.0103C28.5017 24.0099 29.6827 23.7105 30.5216 23.0859C30.6513 21.7644 30.4765 20.8599 30.0015 20.3967ZM27 13.9457C27.4839 13.9457 27.9569 14.0892 28.3592 14.358C28.7615 14.6268 29.0751 15.0089 29.2602 15.4559C29.4454 15.9029 29.4938 16.3948 29.3994 16.8694C29.305 17.3439 29.072 17.7799 28.7299 18.122C28.3878 18.4641 27.9518 18.6971 27.4773 18.7915C27.0027 18.8859 26.5108 18.8375 26.0638 18.6523C25.6168 18.4672 25.2347 18.1536 24.9659 17.7513C24.697 17.349 24.5536 16.876 24.5536 16.3921C24.5543 15.7435 24.8123 15.1217 25.2709 14.663C25.7296 14.2044 26.3514 13.9464 27 13.9457ZM25.4288 16.3921C25.4288 16.7029 25.5209 17.0067 25.6936 17.2652C25.8663 17.5236 26.1117 17.725 26.3989 17.8439C26.686 17.9629 27.002 17.994 27.3068 17.9333C27.6117 17.8727 27.8917 17.723 28.1114 17.5032C28.3312 17.2834 28.4808 17.0034 28.5415 16.6986C28.6021 16.3937 28.5709 16.0778 28.452 15.7906C28.333 15.5035 28.1315 15.2581 27.8731 15.0854C27.6147 14.9128 27.3108 14.8206 27 14.8207C26.5834 14.8212 26.184 14.9869 25.8895 15.2815C25.5949 15.5761 25.4292 15.9755 25.4288 16.3921ZM20.2778 11.7802C21.1989 12.7013 21.7721 13.9133 21.8998 15.2097C22.0275 16.5061 21.7017 17.8066 20.978 18.8898C20.2543 19.9729 19.1774 20.7715 17.9308 21.1497C16.6843 21.5278 15.3451 21.462 14.1417 20.9635C12.9382 20.465 11.9448 19.5646 11.3307 18.4158C10.7167 17.2669 10.5199 15.9407 10.7741 14.6631C11.0283 13.3855 11.7175 12.2355 12.7245 11.4091C13.7315 10.5827 14.9938 10.1311 16.2965 10.1311C17.0362 10.1291 17.7689 10.2738 18.4523 10.5569C19.1357 10.84 19.7561 11.2558 20.2778 11.7802ZM21.0519 15.7615C21.052 14.6613 20.6705 13.5951 19.9725 12.7446C19.2746 11.8942 18.3034 11.312 17.2243 11.0974C16.1452 10.8827 15.0251 11.0488 14.0548 11.5675C13.0845 12.0861 12.3241 12.9251 11.9031 13.9416C11.482 14.958 11.4265 16.089 11.7458 17.1418C12.0652 18.1947 12.7397 19.1042 13.6545 19.7154C14.5693 20.3266 15.6677 20.6018 16.7626 20.4939C17.8575 20.3861 18.8812 19.9019 19.6591 19.124C20.102 18.6835 20.4532 18.1595 20.6923 17.5823C20.9314 17.0052 21.0536 16.3864 21.0519 15.7617V15.7615ZM16.5085 15.3282C16.2892 15.3031 16.0729 15.2559 15.8631 15.1874C15.4855 15.0326 15.2799 14.7917 15.2842 14.5086C15.2886 14.2117 15.5217 13.927 15.8643 13.8C16.5916 13.5301 17.2721 13.8554 17.5575 14.6089C17.5776 14.663 17.6082 14.7126 17.6475 14.7548C17.6868 14.797 17.7341 14.831 17.7866 14.8549C17.8391 14.8787 17.8959 14.892 17.9535 14.8938C18.0112 14.8957 18.0686 14.8861 18.1226 14.8657C18.1765 14.8452 18.2259 14.8143 18.2679 14.7748C18.3098 14.7352 18.3435 14.6877 18.3671 14.635C18.3906 14.5823 18.4035 14.5255 18.405 14.4679C18.4065 14.4102 18.3965 14.3528 18.3758 14.299C18.0804 13.5192 17.4771 13.0122 16.7684 12.8717V12.353C16.7684 12.237 16.7223 12.1257 16.6402 12.0436C16.5582 11.9616 16.4469 11.9155 16.3309 11.9155C16.2148 11.9155 16.1036 11.9616 16.0215 12.0436C15.9395 12.1257 15.8934 12.237 15.8934 12.353V12.8824C15.7801 12.9068 15.6687 12.9393 15.5601 12.9797C14.871 13.2352 14.4193 13.8303 14.4093 14.4957C14.3996 15.1474 14.8227 15.7102 15.5412 16.0013C15.5457 16.0031 15.5503 16.0049 15.5548 16.0065C15.8222 16.0976 16.0983 16.1605 16.3788 16.194C16.8183 16.26 17.1086 16.3035 17.3858 16.6363C17.5521 16.836 17.5983 17.0618 17.5158 17.2722C17.4069 17.55 17.0944 17.7545 16.7001 17.8059C15.9926 17.8979 15.2001 17.6513 15.0258 16.8927C15.013 16.8366 14.9892 16.7836 14.9559 16.7367C14.9226 16.6898 14.8804 16.65 14.8317 16.6194C14.783 16.5888 14.7287 16.5682 14.672 16.5586C14.6153 16.5491 14.5572 16.5508 14.5012 16.5637C14.4451 16.5765 14.3922 16.6003 14.3453 16.6337C14.2985 16.6671 14.2587 16.7094 14.2282 16.7581C14.1977 16.8069 14.1772 16.8612 14.1677 16.9179C14.1582 16.9747 14.16 17.0327 14.173 17.0887C14.3858 18.0144 15.1084 18.5001 15.8934 18.6482V19.171C15.8934 19.287 15.9395 19.3983 16.0215 19.4803C16.1036 19.5624 16.2148 19.6085 16.3309 19.6085C16.4469 19.6085 16.5582 19.5624 16.6402 19.4803C16.7223 19.3983 16.7684 19.287 16.7684 19.171V18.6779C16.7832 18.6762 16.7983 18.6755 16.8131 18.6735C17.5345 18.5798 18.1018 18.1751 18.3304 17.5914C18.5287 17.0855 18.4269 16.5192 18.0581 16.0764C17.5679 15.4874 17.0051 15.4029 16.5085 15.3284V15.3282Z" fill="black"/>
</svg>
